; NON-PLATED HOLES START AT T1
; THROUGH (PLATED) HOLES START AT T100
M48
INCH
T100C0.040000
T101C0.036000
T102C0.035000
T103C0.039370
T104C0.038000
T105C0.032000
T106C0.035433
%
T100
X017709Y004100
X017709Y006100
X017709Y001100
X017709Y003100
X017709Y002100
X017709Y005100
T101
X009753Y008103
X013753Y008103
X008753Y008103
X009753Y014103
X012753Y014103
X002753Y014103
X013753Y014103
X011753Y008103
X010753Y014103
X011753Y014103
X017709Y010098
X004753Y014103
X016753Y008103
X005753Y008103
X014753Y008103
X016709Y010098
X010753Y008103
X007753Y008103
X005753Y014103
X006753Y014103
X017709Y012100
X014753Y014103
X006753Y008103
X002753Y008103
X003753Y014103
X015753Y014103
X017709Y011100
X003753Y008103
X008753Y014103
X016753Y014103
X016709Y012100
X004753Y008103
X007753Y014103
X016709Y011100
X015753Y008103
X012753Y008103
T102
X018709Y004100
X018709Y013100
X018709Y009100
X018709Y008100
T103
X002709Y005100
X011709Y012100
X005709Y005100
X013709Y005100
X016709Y003100
X002709Y003100
X014709Y012100
X011709Y010100
X014709Y010100
X013709Y003100
X005709Y003100
X016709Y005100
T104
X010268Y001141
X014709Y002100
X001179Y006659
X016709Y019100
X001709Y019100
X004709Y002100
X006709Y005100
X010268Y002144
X010268Y005655
X012709Y002100
X014709Y005100
X001709Y010100
X001709Y012100
X004709Y012100
X001179Y001141
X004709Y005100
X012709Y005100
X010268Y006659
X006709Y002100
X004709Y010100
T105
X005709Y010100
X008709Y011100
X008709Y010100
X005709Y011100
T106
X009000Y006212
T00
M30
