G04 MADE WITH FRITZING*
G04 WWW.FRITZING.ORG*
G04 DOUBLE SIDED*
G04 HOLES PLATED*
G04 CONTOUR ON CENTER OF CONTOUR VECTOR*
%ASAXBY*%
%FSLAX23Y23*%
%MOIN*%
%OFA0B0*%
%SFA1.0B1.0*%
%ADD10C,0.078000*%
%ADD11C,0.075000*%
%ADD12C,0.052000*%
%ADD13C,0.074000*%
%ADD14C,0.070000*%
%ADD15C,0.059370*%
%ADD16C,0.075433*%
%ADD17R,0.070000X0.069958*%
%ADD18C,0.024000*%
%ADD19R,0.001000X0.001000*%
%LNCOPPER1*%
G90*
G70*
G54D10*
X1671Y1910D03*
G54D11*
X1871Y410D03*
X1871Y810D03*
X1871Y1310D03*
X1871Y910D03*
G54D12*
X871Y1010D03*
X871Y1110D03*
X571Y1110D03*
X571Y1010D03*
X871Y1010D03*
X871Y1110D03*
X571Y1110D03*
X571Y1010D03*
G54D10*
X118Y666D03*
X118Y114D03*
X1027Y666D03*
X1027Y566D03*
X1027Y214D03*
X1027Y114D03*
G54D13*
X1771Y110D03*
X1771Y210D03*
X1771Y310D03*
X1771Y410D03*
X1771Y510D03*
X1771Y610D03*
G54D14*
X1675Y1410D03*
X1575Y1410D03*
X1475Y1410D03*
X1375Y1410D03*
X1275Y1410D03*
X1175Y1410D03*
X1075Y1410D03*
X975Y1410D03*
X875Y1410D03*
X775Y1410D03*
X675Y1410D03*
X575Y1410D03*
X475Y1410D03*
X375Y1410D03*
X275Y1410D03*
X1675Y810D03*
X1575Y810D03*
X1475Y810D03*
X1375Y810D03*
X1275Y810D03*
X1175Y810D03*
X1075Y810D03*
X975Y810D03*
X875Y810D03*
X775Y810D03*
X675Y810D03*
X575Y810D03*
X475Y810D03*
X375Y810D03*
X275Y810D03*
X1771Y1210D03*
X1671Y1210D03*
X1771Y1110D03*
X1671Y1110D03*
X1771Y1010D03*
X1671Y1010D03*
G54D10*
X671Y210D03*
X671Y510D03*
X1271Y210D03*
X1271Y510D03*
X1471Y210D03*
X1471Y510D03*
X471Y210D03*
X471Y510D03*
X171Y1210D03*
X471Y1210D03*
X171Y1910D03*
G54D15*
X271Y510D03*
X571Y510D03*
X271Y310D03*
X571Y310D03*
X271Y510D03*
X571Y510D03*
X271Y310D03*
X571Y310D03*
X1471Y1010D03*
X1171Y1010D03*
X1471Y1210D03*
X1171Y1210D03*
X1471Y1010D03*
X1171Y1010D03*
X1471Y1210D03*
X1171Y1210D03*
X1371Y510D03*
X1671Y510D03*
X1371Y310D03*
X1671Y310D03*
X1371Y510D03*
X1671Y510D03*
X1371Y310D03*
X1671Y310D03*
G54D10*
X471Y1010D03*
X171Y1010D03*
G54D16*
X900Y621D03*
G54D17*
X1675Y1410D03*
G54D18*
X1845Y1323D02*
X1701Y1397D01*
D02*
X1088Y1384D02*
X1158Y1238D01*
D02*
X650Y231D02*
X593Y288D01*
D02*
X997Y214D02*
X701Y210D01*
D02*
X1341Y302D02*
X1056Y222D01*
D02*
X1287Y485D02*
X1308Y453D01*
X1308Y453D02*
X1452Y453D01*
X1452Y453D02*
X1461Y482D01*
D02*
X1640Y510D02*
X1501Y510D01*
D02*
X1297Y1391D02*
X1404Y1293D01*
X1404Y1293D02*
X1524Y1293D01*
X1524Y1293D02*
X1608Y981D01*
X1608Y981D02*
X1644Y933D01*
X1644Y933D02*
X1740Y933D01*
X1740Y933D02*
X1740Y765D01*
X1740Y765D02*
X1260Y549D01*
X1260Y549D02*
X1263Y539D01*
D02*
X553Y989D02*
X516Y945D01*
X516Y945D02*
X204Y885D01*
X204Y885D02*
X221Y738D01*
D02*
X221Y738D02*
X900Y693D01*
X900Y693D02*
X900Y650D01*
D02*
X544Y1108D02*
X108Y1077D01*
X108Y1077D02*
X108Y957D01*
X108Y957D02*
X180Y693D01*
X180Y693D02*
X828Y549D01*
X828Y549D02*
X997Y563D01*
D02*
X174Y1880D02*
X240Y1173D01*
X240Y1173D02*
X108Y1077D01*
D02*
X1740Y310D02*
X1702Y310D01*
D02*
X1498Y224D02*
X1643Y296D01*
D02*
X1301Y210D02*
X1441Y210D01*
D02*
X1485Y983D02*
X1562Y836D01*
D02*
X1656Y1884D02*
X1390Y1435D01*
G54D19*
X1141Y1240D02*
X1199Y1240D01*
X1441Y1240D02*
X1499Y1240D01*
X1141Y1239D02*
X1199Y1239D01*
X1441Y1239D02*
X1499Y1239D01*
X1141Y1238D02*
X1199Y1238D01*
X1441Y1238D02*
X1499Y1238D01*
X1141Y1237D02*
X1199Y1237D01*
X1441Y1237D02*
X1499Y1237D01*
X1141Y1236D02*
X1199Y1236D01*
X1441Y1236D02*
X1499Y1236D01*
X1141Y1235D02*
X1199Y1235D01*
X1441Y1235D02*
X1499Y1235D01*
X1141Y1234D02*
X1199Y1234D01*
X1441Y1234D02*
X1499Y1234D01*
X1141Y1233D02*
X1199Y1233D01*
X1441Y1233D02*
X1499Y1233D01*
X1141Y1232D02*
X1199Y1232D01*
X1441Y1232D02*
X1499Y1232D01*
X1141Y1231D02*
X1199Y1231D01*
X1441Y1231D02*
X1499Y1231D01*
X1141Y1230D02*
X1168Y1230D01*
X1172Y1230D02*
X1199Y1230D01*
X1441Y1230D02*
X1468Y1230D01*
X1472Y1230D02*
X1499Y1230D01*
X1141Y1229D02*
X1163Y1229D01*
X1177Y1229D02*
X1199Y1229D01*
X1441Y1229D02*
X1463Y1229D01*
X1477Y1229D02*
X1499Y1229D01*
X1141Y1228D02*
X1161Y1228D01*
X1179Y1228D02*
X1199Y1228D01*
X1441Y1228D02*
X1461Y1228D01*
X1479Y1228D02*
X1499Y1228D01*
X1141Y1227D02*
X1159Y1227D01*
X1181Y1227D02*
X1199Y1227D01*
X1441Y1227D02*
X1459Y1227D01*
X1481Y1227D02*
X1499Y1227D01*
X1141Y1226D02*
X1158Y1226D01*
X1183Y1226D02*
X1199Y1226D01*
X1441Y1226D02*
X1458Y1226D01*
X1482Y1226D02*
X1499Y1226D01*
X1141Y1225D02*
X1156Y1225D01*
X1184Y1225D02*
X1199Y1225D01*
X1441Y1225D02*
X1456Y1225D01*
X1484Y1225D02*
X1499Y1225D01*
X1141Y1224D02*
X1155Y1224D01*
X1185Y1224D02*
X1199Y1224D01*
X1441Y1224D02*
X1455Y1224D01*
X1485Y1224D02*
X1499Y1224D01*
X1141Y1223D02*
X1155Y1223D01*
X1186Y1223D02*
X1199Y1223D01*
X1441Y1223D02*
X1454Y1223D01*
X1486Y1223D02*
X1499Y1223D01*
X1141Y1222D02*
X1154Y1222D01*
X1186Y1222D02*
X1199Y1222D01*
X1441Y1222D02*
X1454Y1222D01*
X1486Y1222D02*
X1499Y1222D01*
X1141Y1221D02*
X1153Y1221D01*
X1187Y1221D02*
X1199Y1221D01*
X1441Y1221D02*
X1453Y1221D01*
X1487Y1221D02*
X1499Y1221D01*
X1141Y1220D02*
X1153Y1220D01*
X1188Y1220D02*
X1199Y1220D01*
X1441Y1220D02*
X1452Y1220D01*
X1488Y1220D02*
X1499Y1220D01*
X1141Y1219D02*
X1152Y1219D01*
X1188Y1219D02*
X1199Y1219D01*
X1441Y1219D02*
X1452Y1219D01*
X1488Y1219D02*
X1499Y1219D01*
X1141Y1218D02*
X1151Y1218D01*
X1189Y1218D02*
X1199Y1218D01*
X1441Y1218D02*
X1451Y1218D01*
X1489Y1218D02*
X1499Y1218D01*
X1141Y1217D02*
X1151Y1217D01*
X1189Y1217D02*
X1199Y1217D01*
X1441Y1217D02*
X1451Y1217D01*
X1489Y1217D02*
X1499Y1217D01*
X1141Y1216D02*
X1151Y1216D01*
X1189Y1216D02*
X1199Y1216D01*
X1441Y1216D02*
X1451Y1216D01*
X1489Y1216D02*
X1499Y1216D01*
X1141Y1215D02*
X1151Y1215D01*
X1190Y1215D02*
X1199Y1215D01*
X1441Y1215D02*
X1450Y1215D01*
X1490Y1215D02*
X1499Y1215D01*
X1141Y1214D02*
X1150Y1214D01*
X1190Y1214D02*
X1199Y1214D01*
X1441Y1214D02*
X1450Y1214D01*
X1490Y1214D02*
X1499Y1214D01*
X1141Y1213D02*
X1150Y1213D01*
X1190Y1213D02*
X1199Y1213D01*
X1441Y1213D02*
X1450Y1213D01*
X1490Y1213D02*
X1499Y1213D01*
X1141Y1212D02*
X1150Y1212D01*
X1190Y1212D02*
X1199Y1212D01*
X1441Y1212D02*
X1450Y1212D01*
X1490Y1212D02*
X1499Y1212D01*
X1141Y1211D02*
X1150Y1211D01*
X1190Y1211D02*
X1199Y1211D01*
X1441Y1211D02*
X1450Y1211D01*
X1490Y1211D02*
X1499Y1211D01*
X1141Y1210D02*
X1150Y1210D01*
X1190Y1210D02*
X1199Y1210D01*
X1441Y1210D02*
X1450Y1210D01*
X1490Y1210D02*
X1499Y1210D01*
X1141Y1209D02*
X1150Y1209D01*
X1190Y1209D02*
X1199Y1209D01*
X1441Y1209D02*
X1450Y1209D01*
X1490Y1209D02*
X1499Y1209D01*
X1141Y1208D02*
X1150Y1208D01*
X1190Y1208D02*
X1199Y1208D01*
X1441Y1208D02*
X1450Y1208D01*
X1490Y1208D02*
X1499Y1208D01*
X1141Y1207D02*
X1150Y1207D01*
X1190Y1207D02*
X1199Y1207D01*
X1441Y1207D02*
X1450Y1207D01*
X1490Y1207D02*
X1499Y1207D01*
X1141Y1206D02*
X1150Y1206D01*
X1190Y1206D02*
X1199Y1206D01*
X1441Y1206D02*
X1450Y1206D01*
X1490Y1206D02*
X1499Y1206D01*
X1141Y1205D02*
X1151Y1205D01*
X1189Y1205D02*
X1199Y1205D01*
X1441Y1205D02*
X1451Y1205D01*
X1489Y1205D02*
X1499Y1205D01*
X1141Y1204D02*
X1151Y1204D01*
X1189Y1204D02*
X1199Y1204D01*
X1441Y1204D02*
X1451Y1204D01*
X1489Y1204D02*
X1499Y1204D01*
X1141Y1203D02*
X1151Y1203D01*
X1189Y1203D02*
X1199Y1203D01*
X1441Y1203D02*
X1451Y1203D01*
X1489Y1203D02*
X1499Y1203D01*
X1141Y1202D02*
X1152Y1202D01*
X1188Y1202D02*
X1199Y1202D01*
X1441Y1202D02*
X1452Y1202D01*
X1488Y1202D02*
X1499Y1202D01*
X1141Y1201D02*
X1152Y1201D01*
X1188Y1201D02*
X1199Y1201D01*
X1441Y1201D02*
X1452Y1201D01*
X1488Y1201D02*
X1499Y1201D01*
X1141Y1200D02*
X1153Y1200D01*
X1187Y1200D02*
X1199Y1200D01*
X1441Y1200D02*
X1453Y1200D01*
X1487Y1200D02*
X1499Y1200D01*
X1141Y1199D02*
X1154Y1199D01*
X1187Y1199D02*
X1199Y1199D01*
X1441Y1199D02*
X1454Y1199D01*
X1486Y1199D02*
X1499Y1199D01*
X1141Y1198D02*
X1154Y1198D01*
X1186Y1198D02*
X1199Y1198D01*
X1441Y1198D02*
X1454Y1198D01*
X1486Y1198D02*
X1499Y1198D01*
X1141Y1197D02*
X1155Y1197D01*
X1185Y1197D02*
X1199Y1197D01*
X1441Y1197D02*
X1455Y1197D01*
X1485Y1197D02*
X1499Y1197D01*
X1141Y1196D02*
X1156Y1196D01*
X1184Y1196D02*
X1199Y1196D01*
X1441Y1196D02*
X1456Y1196D01*
X1484Y1196D02*
X1499Y1196D01*
X1141Y1195D02*
X1158Y1195D01*
X1183Y1195D02*
X1199Y1195D01*
X1441Y1195D02*
X1457Y1195D01*
X1483Y1195D02*
X1499Y1195D01*
X1141Y1194D02*
X1159Y1194D01*
X1181Y1194D02*
X1199Y1194D01*
X1441Y1194D02*
X1459Y1194D01*
X1481Y1194D02*
X1499Y1194D01*
X1141Y1193D02*
X1161Y1193D01*
X1180Y1193D02*
X1199Y1193D01*
X1441Y1193D02*
X1461Y1193D01*
X1479Y1193D02*
X1499Y1193D01*
X1141Y1192D02*
X1163Y1192D01*
X1177Y1192D02*
X1199Y1192D01*
X1441Y1192D02*
X1463Y1192D01*
X1477Y1192D02*
X1499Y1192D01*
X1141Y1191D02*
X1167Y1191D01*
X1173Y1191D02*
X1199Y1191D01*
X1441Y1191D02*
X1467Y1191D01*
X1473Y1191D02*
X1499Y1191D01*
X1141Y1190D02*
X1199Y1190D01*
X1441Y1190D02*
X1499Y1190D01*
X1141Y1189D02*
X1199Y1189D01*
X1441Y1189D02*
X1499Y1189D01*
X1141Y1188D02*
X1199Y1188D01*
X1441Y1188D02*
X1499Y1188D01*
X1141Y1187D02*
X1199Y1187D01*
X1441Y1187D02*
X1499Y1187D01*
X1141Y1186D02*
X1199Y1186D01*
X1441Y1186D02*
X1499Y1186D01*
X1141Y1185D02*
X1199Y1185D01*
X1441Y1185D02*
X1499Y1185D01*
X1141Y1184D02*
X1199Y1184D01*
X1441Y1184D02*
X1499Y1184D01*
X1141Y1183D02*
X1199Y1183D01*
X1441Y1183D02*
X1499Y1183D01*
X1141Y1182D02*
X1199Y1182D01*
X1441Y1182D02*
X1499Y1182D01*
X1141Y1181D02*
X1199Y1181D01*
X1441Y1181D02*
X1499Y1181D01*
X540Y1136D02*
X601Y1136D01*
X840Y1136D02*
X900Y1136D01*
X536Y1135D02*
X604Y1135D01*
X836Y1135D02*
X904Y1135D01*
X534Y1134D02*
X607Y1134D01*
X834Y1134D02*
X907Y1134D01*
X532Y1133D02*
X608Y1133D01*
X832Y1133D02*
X908Y1133D01*
X530Y1132D02*
X610Y1132D01*
X830Y1132D02*
X910Y1132D01*
X529Y1131D02*
X612Y1131D01*
X829Y1131D02*
X911Y1131D01*
X528Y1130D02*
X613Y1130D01*
X828Y1130D02*
X913Y1130D01*
X527Y1129D02*
X614Y1129D01*
X827Y1129D02*
X914Y1129D01*
X526Y1128D02*
X615Y1128D01*
X826Y1128D02*
X915Y1128D01*
X525Y1127D02*
X616Y1127D01*
X825Y1127D02*
X916Y1127D01*
X524Y1126D02*
X566Y1126D01*
X574Y1126D02*
X616Y1126D01*
X824Y1126D02*
X866Y1126D01*
X874Y1126D02*
X916Y1126D01*
X523Y1125D02*
X563Y1125D01*
X577Y1125D02*
X617Y1125D01*
X823Y1125D02*
X863Y1125D01*
X877Y1125D02*
X917Y1125D01*
X523Y1124D02*
X561Y1124D01*
X579Y1124D02*
X618Y1124D01*
X823Y1124D02*
X861Y1124D01*
X879Y1124D02*
X918Y1124D01*
X522Y1123D02*
X560Y1123D01*
X581Y1123D02*
X618Y1123D01*
X822Y1123D02*
X860Y1123D01*
X881Y1123D02*
X918Y1123D01*
X522Y1122D02*
X559Y1122D01*
X582Y1122D02*
X619Y1122D01*
X822Y1122D02*
X859Y1122D01*
X882Y1122D02*
X919Y1122D01*
X521Y1121D02*
X558Y1121D01*
X583Y1121D02*
X619Y1121D01*
X821Y1121D02*
X858Y1121D01*
X883Y1121D02*
X919Y1121D01*
X521Y1120D02*
X557Y1120D01*
X584Y1120D02*
X620Y1120D01*
X821Y1120D02*
X857Y1120D01*
X883Y1120D02*
X920Y1120D01*
X520Y1119D02*
X556Y1119D01*
X584Y1119D02*
X620Y1119D01*
X820Y1119D02*
X856Y1119D01*
X884Y1119D02*
X920Y1119D01*
X520Y1118D02*
X556Y1118D01*
X585Y1118D02*
X621Y1118D01*
X820Y1118D02*
X856Y1118D01*
X885Y1118D02*
X921Y1118D01*
X520Y1117D02*
X555Y1117D01*
X585Y1117D02*
X621Y1117D01*
X820Y1117D02*
X855Y1117D01*
X885Y1117D02*
X921Y1117D01*
X519Y1116D02*
X555Y1116D01*
X586Y1116D02*
X621Y1116D01*
X819Y1116D02*
X855Y1116D01*
X886Y1116D02*
X921Y1116D01*
X519Y1115D02*
X555Y1115D01*
X586Y1115D02*
X621Y1115D01*
X819Y1115D02*
X854Y1115D01*
X886Y1115D02*
X921Y1115D01*
X519Y1114D02*
X554Y1114D01*
X586Y1114D02*
X621Y1114D01*
X819Y1114D02*
X854Y1114D01*
X886Y1114D02*
X921Y1114D01*
X519Y1113D02*
X554Y1113D01*
X587Y1113D02*
X622Y1113D01*
X819Y1113D02*
X854Y1113D01*
X886Y1113D02*
X922Y1113D01*
X519Y1112D02*
X554Y1112D01*
X587Y1112D02*
X622Y1112D01*
X819Y1112D02*
X854Y1112D01*
X887Y1112D02*
X922Y1112D01*
X519Y1111D02*
X554Y1111D01*
X587Y1111D02*
X622Y1111D01*
X819Y1111D02*
X854Y1111D01*
X887Y1111D02*
X922Y1111D01*
X519Y1110D02*
X554Y1110D01*
X587Y1110D02*
X622Y1110D01*
X819Y1110D02*
X854Y1110D01*
X887Y1110D02*
X922Y1110D01*
X519Y1109D02*
X554Y1109D01*
X587Y1109D02*
X622Y1109D01*
X819Y1109D02*
X854Y1109D01*
X887Y1109D02*
X922Y1109D01*
X519Y1108D02*
X554Y1108D01*
X587Y1108D02*
X622Y1108D01*
X819Y1108D02*
X854Y1108D01*
X886Y1108D02*
X922Y1108D01*
X519Y1107D02*
X554Y1107D01*
X586Y1107D02*
X622Y1107D01*
X819Y1107D02*
X854Y1107D01*
X886Y1107D02*
X921Y1107D01*
X519Y1106D02*
X554Y1106D01*
X586Y1106D02*
X621Y1106D01*
X819Y1106D02*
X854Y1106D01*
X886Y1106D02*
X921Y1106D01*
X519Y1105D02*
X555Y1105D01*
X586Y1105D02*
X621Y1105D01*
X819Y1105D02*
X855Y1105D01*
X886Y1105D02*
X921Y1105D01*
X520Y1104D02*
X555Y1104D01*
X585Y1104D02*
X621Y1104D01*
X820Y1104D02*
X855Y1104D01*
X885Y1104D02*
X921Y1104D01*
X520Y1103D02*
X556Y1103D01*
X585Y1103D02*
X621Y1103D01*
X820Y1103D02*
X856Y1103D01*
X885Y1103D02*
X921Y1103D01*
X520Y1102D02*
X556Y1102D01*
X584Y1102D02*
X620Y1102D01*
X820Y1102D02*
X856Y1102D01*
X884Y1102D02*
X920Y1102D01*
X521Y1101D02*
X557Y1101D01*
X584Y1101D02*
X620Y1101D01*
X820Y1101D02*
X857Y1101D01*
X884Y1101D02*
X920Y1101D01*
X521Y1100D02*
X558Y1100D01*
X583Y1100D02*
X620Y1100D01*
X821Y1100D02*
X858Y1100D01*
X883Y1100D02*
X919Y1100D01*
X522Y1099D02*
X559Y1099D01*
X582Y1099D02*
X619Y1099D01*
X821Y1099D02*
X859Y1099D01*
X882Y1099D02*
X919Y1099D01*
X522Y1098D02*
X560Y1098D01*
X581Y1098D02*
X618Y1098D01*
X822Y1098D02*
X860Y1098D01*
X881Y1098D02*
X918Y1098D01*
X523Y1097D02*
X561Y1097D01*
X579Y1097D02*
X618Y1097D01*
X823Y1097D02*
X861Y1097D01*
X879Y1097D02*
X918Y1097D01*
X523Y1096D02*
X563Y1096D01*
X578Y1096D02*
X617Y1096D01*
X823Y1096D02*
X863Y1096D01*
X877Y1096D02*
X917Y1096D01*
X524Y1095D02*
X566Y1095D01*
X575Y1095D02*
X617Y1095D01*
X824Y1095D02*
X866Y1095D01*
X875Y1095D02*
X916Y1095D01*
X525Y1094D02*
X616Y1094D01*
X825Y1094D02*
X916Y1094D01*
X526Y1093D02*
X615Y1093D01*
X826Y1093D02*
X915Y1093D01*
X526Y1092D02*
X614Y1092D01*
X826Y1092D02*
X914Y1092D01*
X528Y1091D02*
X613Y1091D01*
X828Y1091D02*
X913Y1091D01*
X529Y1090D02*
X612Y1090D01*
X829Y1090D02*
X912Y1090D01*
X530Y1089D02*
X610Y1089D01*
X830Y1089D02*
X910Y1089D01*
X532Y1088D02*
X609Y1088D01*
X832Y1088D02*
X909Y1088D01*
X534Y1087D02*
X607Y1087D01*
X834Y1087D02*
X907Y1087D01*
X536Y1086D02*
X605Y1086D01*
X836Y1086D02*
X904Y1086D01*
X540Y1085D02*
X601Y1085D01*
X839Y1085D02*
X901Y1085D01*
X1141Y1040D02*
X1199Y1040D01*
X1441Y1040D02*
X1499Y1040D01*
X1141Y1039D02*
X1199Y1039D01*
X1441Y1039D02*
X1499Y1039D01*
X1141Y1038D02*
X1199Y1038D01*
X1441Y1038D02*
X1499Y1038D01*
X1141Y1037D02*
X1199Y1037D01*
X1441Y1037D02*
X1499Y1037D01*
X540Y1036D02*
X601Y1036D01*
X840Y1036D02*
X900Y1036D01*
X1141Y1036D02*
X1199Y1036D01*
X1441Y1036D02*
X1499Y1036D01*
X536Y1035D02*
X604Y1035D01*
X836Y1035D02*
X904Y1035D01*
X1141Y1035D02*
X1199Y1035D01*
X1441Y1035D02*
X1499Y1035D01*
X534Y1034D02*
X607Y1034D01*
X834Y1034D02*
X907Y1034D01*
X1141Y1034D02*
X1199Y1034D01*
X1441Y1034D02*
X1499Y1034D01*
X532Y1033D02*
X608Y1033D01*
X832Y1033D02*
X908Y1033D01*
X1141Y1033D02*
X1199Y1033D01*
X1441Y1033D02*
X1499Y1033D01*
X530Y1032D02*
X610Y1032D01*
X830Y1032D02*
X910Y1032D01*
X1141Y1032D02*
X1199Y1032D01*
X1441Y1032D02*
X1499Y1032D01*
X529Y1031D02*
X612Y1031D01*
X829Y1031D02*
X911Y1031D01*
X1141Y1031D02*
X1199Y1031D01*
X1441Y1031D02*
X1499Y1031D01*
X528Y1030D02*
X613Y1030D01*
X828Y1030D02*
X913Y1030D01*
X1141Y1030D02*
X1168Y1030D01*
X1172Y1030D02*
X1199Y1030D01*
X1441Y1030D02*
X1468Y1030D01*
X1472Y1030D02*
X1499Y1030D01*
X527Y1029D02*
X614Y1029D01*
X827Y1029D02*
X914Y1029D01*
X1141Y1029D02*
X1163Y1029D01*
X1177Y1029D02*
X1199Y1029D01*
X1441Y1029D02*
X1463Y1029D01*
X1477Y1029D02*
X1499Y1029D01*
X526Y1028D02*
X615Y1028D01*
X826Y1028D02*
X915Y1028D01*
X1141Y1028D02*
X1161Y1028D01*
X1179Y1028D02*
X1199Y1028D01*
X1441Y1028D02*
X1461Y1028D01*
X1479Y1028D02*
X1499Y1028D01*
X525Y1027D02*
X616Y1027D01*
X825Y1027D02*
X916Y1027D01*
X1141Y1027D02*
X1159Y1027D01*
X1181Y1027D02*
X1199Y1027D01*
X1441Y1027D02*
X1459Y1027D01*
X1481Y1027D02*
X1499Y1027D01*
X524Y1026D02*
X566Y1026D01*
X574Y1026D02*
X616Y1026D01*
X824Y1026D02*
X866Y1026D01*
X874Y1026D02*
X916Y1026D01*
X1141Y1026D02*
X1158Y1026D01*
X1183Y1026D02*
X1199Y1026D01*
X1441Y1026D02*
X1458Y1026D01*
X1482Y1026D02*
X1499Y1026D01*
X523Y1025D02*
X563Y1025D01*
X577Y1025D02*
X617Y1025D01*
X823Y1025D02*
X863Y1025D01*
X877Y1025D02*
X917Y1025D01*
X1141Y1025D02*
X1156Y1025D01*
X1184Y1025D02*
X1199Y1025D01*
X1441Y1025D02*
X1456Y1025D01*
X1484Y1025D02*
X1499Y1025D01*
X523Y1024D02*
X561Y1024D01*
X579Y1024D02*
X618Y1024D01*
X823Y1024D02*
X861Y1024D01*
X879Y1024D02*
X918Y1024D01*
X1141Y1024D02*
X1155Y1024D01*
X1185Y1024D02*
X1199Y1024D01*
X1441Y1024D02*
X1455Y1024D01*
X1485Y1024D02*
X1499Y1024D01*
X522Y1023D02*
X560Y1023D01*
X581Y1023D02*
X618Y1023D01*
X822Y1023D02*
X860Y1023D01*
X881Y1023D02*
X918Y1023D01*
X1141Y1023D02*
X1155Y1023D01*
X1186Y1023D02*
X1199Y1023D01*
X1441Y1023D02*
X1454Y1023D01*
X1486Y1023D02*
X1499Y1023D01*
X522Y1022D02*
X559Y1022D01*
X582Y1022D02*
X619Y1022D01*
X822Y1022D02*
X859Y1022D01*
X882Y1022D02*
X919Y1022D01*
X1141Y1022D02*
X1154Y1022D01*
X1186Y1022D02*
X1199Y1022D01*
X1441Y1022D02*
X1454Y1022D01*
X1486Y1022D02*
X1499Y1022D01*
X521Y1021D02*
X558Y1021D01*
X583Y1021D02*
X619Y1021D01*
X821Y1021D02*
X858Y1021D01*
X883Y1021D02*
X919Y1021D01*
X1141Y1021D02*
X1153Y1021D01*
X1187Y1021D02*
X1199Y1021D01*
X1441Y1021D02*
X1453Y1021D01*
X1487Y1021D02*
X1499Y1021D01*
X521Y1020D02*
X557Y1020D01*
X584Y1020D02*
X620Y1020D01*
X821Y1020D02*
X857Y1020D01*
X883Y1020D02*
X920Y1020D01*
X1141Y1020D02*
X1153Y1020D01*
X1188Y1020D02*
X1199Y1020D01*
X1441Y1020D02*
X1452Y1020D01*
X1488Y1020D02*
X1499Y1020D01*
X520Y1019D02*
X556Y1019D01*
X584Y1019D02*
X620Y1019D01*
X820Y1019D02*
X856Y1019D01*
X884Y1019D02*
X920Y1019D01*
X1141Y1019D02*
X1152Y1019D01*
X1188Y1019D02*
X1199Y1019D01*
X1441Y1019D02*
X1452Y1019D01*
X1488Y1019D02*
X1499Y1019D01*
X520Y1018D02*
X556Y1018D01*
X585Y1018D02*
X621Y1018D01*
X820Y1018D02*
X856Y1018D01*
X885Y1018D02*
X921Y1018D01*
X1141Y1018D02*
X1151Y1018D01*
X1189Y1018D02*
X1199Y1018D01*
X1441Y1018D02*
X1451Y1018D01*
X1489Y1018D02*
X1499Y1018D01*
X520Y1017D02*
X555Y1017D01*
X585Y1017D02*
X621Y1017D01*
X820Y1017D02*
X855Y1017D01*
X885Y1017D02*
X921Y1017D01*
X1141Y1017D02*
X1151Y1017D01*
X1189Y1017D02*
X1199Y1017D01*
X1441Y1017D02*
X1451Y1017D01*
X1489Y1017D02*
X1499Y1017D01*
X519Y1016D02*
X555Y1016D01*
X586Y1016D02*
X621Y1016D01*
X819Y1016D02*
X855Y1016D01*
X886Y1016D02*
X921Y1016D01*
X1141Y1016D02*
X1151Y1016D01*
X1189Y1016D02*
X1199Y1016D01*
X1441Y1016D02*
X1451Y1016D01*
X1489Y1016D02*
X1499Y1016D01*
X519Y1015D02*
X555Y1015D01*
X586Y1015D02*
X621Y1015D01*
X819Y1015D02*
X854Y1015D01*
X886Y1015D02*
X921Y1015D01*
X1141Y1015D02*
X1151Y1015D01*
X1190Y1015D02*
X1199Y1015D01*
X1441Y1015D02*
X1450Y1015D01*
X1490Y1015D02*
X1499Y1015D01*
X519Y1014D02*
X554Y1014D01*
X586Y1014D02*
X621Y1014D01*
X819Y1014D02*
X854Y1014D01*
X886Y1014D02*
X921Y1014D01*
X1141Y1014D02*
X1150Y1014D01*
X1190Y1014D02*
X1199Y1014D01*
X1441Y1014D02*
X1450Y1014D01*
X1490Y1014D02*
X1499Y1014D01*
X519Y1013D02*
X554Y1013D01*
X587Y1013D02*
X622Y1013D01*
X819Y1013D02*
X854Y1013D01*
X886Y1013D02*
X922Y1013D01*
X1141Y1013D02*
X1150Y1013D01*
X1190Y1013D02*
X1199Y1013D01*
X1441Y1013D02*
X1450Y1013D01*
X1490Y1013D02*
X1499Y1013D01*
X519Y1012D02*
X554Y1012D01*
X587Y1012D02*
X622Y1012D01*
X819Y1012D02*
X854Y1012D01*
X887Y1012D02*
X922Y1012D01*
X1141Y1012D02*
X1150Y1012D01*
X1190Y1012D02*
X1199Y1012D01*
X1441Y1012D02*
X1450Y1012D01*
X1490Y1012D02*
X1499Y1012D01*
X519Y1011D02*
X554Y1011D01*
X587Y1011D02*
X622Y1011D01*
X819Y1011D02*
X854Y1011D01*
X887Y1011D02*
X922Y1011D01*
X1141Y1011D02*
X1150Y1011D01*
X1190Y1011D02*
X1199Y1011D01*
X1441Y1011D02*
X1450Y1011D01*
X1490Y1011D02*
X1499Y1011D01*
X519Y1010D02*
X554Y1010D01*
X587Y1010D02*
X622Y1010D01*
X819Y1010D02*
X854Y1010D01*
X887Y1010D02*
X922Y1010D01*
X1141Y1010D02*
X1150Y1010D01*
X1190Y1010D02*
X1199Y1010D01*
X1441Y1010D02*
X1450Y1010D01*
X1490Y1010D02*
X1499Y1010D01*
X519Y1009D02*
X554Y1009D01*
X587Y1009D02*
X622Y1009D01*
X819Y1009D02*
X854Y1009D01*
X887Y1009D02*
X922Y1009D01*
X1141Y1009D02*
X1150Y1009D01*
X1190Y1009D02*
X1199Y1009D01*
X1441Y1009D02*
X1450Y1009D01*
X1490Y1009D02*
X1499Y1009D01*
X519Y1008D02*
X554Y1008D01*
X587Y1008D02*
X622Y1008D01*
X819Y1008D02*
X854Y1008D01*
X886Y1008D02*
X922Y1008D01*
X1141Y1008D02*
X1150Y1008D01*
X1190Y1008D02*
X1199Y1008D01*
X1441Y1008D02*
X1450Y1008D01*
X1490Y1008D02*
X1499Y1008D01*
X519Y1007D02*
X554Y1007D01*
X586Y1007D02*
X622Y1007D01*
X819Y1007D02*
X854Y1007D01*
X886Y1007D02*
X921Y1007D01*
X1141Y1007D02*
X1150Y1007D01*
X1190Y1007D02*
X1199Y1007D01*
X1441Y1007D02*
X1450Y1007D01*
X1490Y1007D02*
X1499Y1007D01*
X519Y1006D02*
X554Y1006D01*
X586Y1006D02*
X621Y1006D01*
X819Y1006D02*
X854Y1006D01*
X886Y1006D02*
X921Y1006D01*
X1141Y1006D02*
X1150Y1006D01*
X1190Y1006D02*
X1199Y1006D01*
X1441Y1006D02*
X1450Y1006D01*
X1490Y1006D02*
X1499Y1006D01*
X519Y1005D02*
X555Y1005D01*
X586Y1005D02*
X621Y1005D01*
X819Y1005D02*
X855Y1005D01*
X886Y1005D02*
X921Y1005D01*
X1141Y1005D02*
X1151Y1005D01*
X1189Y1005D02*
X1199Y1005D01*
X1441Y1005D02*
X1451Y1005D01*
X1489Y1005D02*
X1499Y1005D01*
X520Y1004D02*
X555Y1004D01*
X585Y1004D02*
X621Y1004D01*
X820Y1004D02*
X855Y1004D01*
X885Y1004D02*
X921Y1004D01*
X1141Y1004D02*
X1151Y1004D01*
X1189Y1004D02*
X1199Y1004D01*
X1441Y1004D02*
X1451Y1004D01*
X1489Y1004D02*
X1499Y1004D01*
X520Y1003D02*
X556Y1003D01*
X585Y1003D02*
X621Y1003D01*
X820Y1003D02*
X856Y1003D01*
X885Y1003D02*
X921Y1003D01*
X1141Y1003D02*
X1151Y1003D01*
X1189Y1003D02*
X1199Y1003D01*
X1441Y1003D02*
X1451Y1003D01*
X1489Y1003D02*
X1499Y1003D01*
X520Y1002D02*
X556Y1002D01*
X584Y1002D02*
X620Y1002D01*
X820Y1002D02*
X856Y1002D01*
X884Y1002D02*
X920Y1002D01*
X1141Y1002D02*
X1152Y1002D01*
X1188Y1002D02*
X1199Y1002D01*
X1441Y1002D02*
X1452Y1002D01*
X1488Y1002D02*
X1499Y1002D01*
X521Y1001D02*
X557Y1001D01*
X584Y1001D02*
X620Y1001D01*
X821Y1001D02*
X857Y1001D01*
X884Y1001D02*
X920Y1001D01*
X1141Y1001D02*
X1152Y1001D01*
X1188Y1001D02*
X1199Y1001D01*
X1441Y1001D02*
X1452Y1001D01*
X1488Y1001D02*
X1499Y1001D01*
X521Y1000D02*
X558Y1000D01*
X583Y1000D02*
X620Y1000D01*
X821Y1000D02*
X858Y1000D01*
X883Y1000D02*
X919Y1000D01*
X1141Y1000D02*
X1153Y1000D01*
X1187Y1000D02*
X1199Y1000D01*
X1441Y1000D02*
X1453Y1000D01*
X1487Y1000D02*
X1499Y1000D01*
X522Y999D02*
X559Y999D01*
X582Y999D02*
X619Y999D01*
X821Y999D02*
X859Y999D01*
X882Y999D02*
X919Y999D01*
X1141Y999D02*
X1154Y999D01*
X1187Y999D02*
X1199Y999D01*
X1441Y999D02*
X1454Y999D01*
X1486Y999D02*
X1499Y999D01*
X522Y998D02*
X560Y998D01*
X581Y998D02*
X618Y998D01*
X822Y998D02*
X860Y998D01*
X881Y998D02*
X918Y998D01*
X1141Y998D02*
X1154Y998D01*
X1186Y998D02*
X1199Y998D01*
X1441Y998D02*
X1454Y998D01*
X1486Y998D02*
X1499Y998D01*
X523Y997D02*
X561Y997D01*
X579Y997D02*
X618Y997D01*
X823Y997D02*
X861Y997D01*
X879Y997D02*
X918Y997D01*
X1141Y997D02*
X1155Y997D01*
X1185Y997D02*
X1199Y997D01*
X1441Y997D02*
X1455Y997D01*
X1485Y997D02*
X1499Y997D01*
X523Y996D02*
X563Y996D01*
X578Y996D02*
X617Y996D01*
X823Y996D02*
X863Y996D01*
X877Y996D02*
X917Y996D01*
X1141Y996D02*
X1156Y996D01*
X1184Y996D02*
X1199Y996D01*
X1441Y996D02*
X1456Y996D01*
X1484Y996D02*
X1499Y996D01*
X524Y995D02*
X566Y995D01*
X575Y995D02*
X617Y995D01*
X824Y995D02*
X866Y995D01*
X875Y995D02*
X916Y995D01*
X1141Y995D02*
X1158Y995D01*
X1183Y995D02*
X1199Y995D01*
X1441Y995D02*
X1457Y995D01*
X1483Y995D02*
X1499Y995D01*
X525Y994D02*
X616Y994D01*
X825Y994D02*
X916Y994D01*
X1141Y994D02*
X1159Y994D01*
X1181Y994D02*
X1199Y994D01*
X1441Y994D02*
X1459Y994D01*
X1481Y994D02*
X1499Y994D01*
X526Y993D02*
X615Y993D01*
X826Y993D02*
X915Y993D01*
X1141Y993D02*
X1161Y993D01*
X1179Y993D02*
X1199Y993D01*
X1441Y993D02*
X1461Y993D01*
X1479Y993D02*
X1499Y993D01*
X527Y992D02*
X614Y992D01*
X826Y992D02*
X914Y992D01*
X1141Y992D02*
X1163Y992D01*
X1177Y992D02*
X1199Y992D01*
X1441Y992D02*
X1463Y992D01*
X1477Y992D02*
X1499Y992D01*
X528Y991D02*
X613Y991D01*
X828Y991D02*
X913Y991D01*
X1141Y991D02*
X1167Y991D01*
X1173Y991D02*
X1199Y991D01*
X1441Y991D02*
X1467Y991D01*
X1473Y991D02*
X1499Y991D01*
X529Y990D02*
X612Y990D01*
X829Y990D02*
X912Y990D01*
X1141Y990D02*
X1199Y990D01*
X1441Y990D02*
X1499Y990D01*
X530Y989D02*
X610Y989D01*
X830Y989D02*
X910Y989D01*
X1141Y989D02*
X1199Y989D01*
X1441Y989D02*
X1499Y989D01*
X532Y988D02*
X609Y988D01*
X832Y988D02*
X909Y988D01*
X1141Y988D02*
X1199Y988D01*
X1441Y988D02*
X1499Y988D01*
X534Y987D02*
X607Y987D01*
X834Y987D02*
X907Y987D01*
X1141Y987D02*
X1199Y987D01*
X1441Y987D02*
X1499Y987D01*
X536Y986D02*
X605Y986D01*
X836Y986D02*
X904Y986D01*
X1141Y986D02*
X1199Y986D01*
X1441Y986D02*
X1499Y986D01*
X540Y985D02*
X601Y985D01*
X839Y985D02*
X901Y985D01*
X1141Y985D02*
X1199Y985D01*
X1441Y985D02*
X1499Y985D01*
X1141Y984D02*
X1199Y984D01*
X1441Y984D02*
X1499Y984D01*
X1141Y983D02*
X1199Y983D01*
X1441Y983D02*
X1499Y983D01*
X1141Y982D02*
X1199Y982D01*
X1441Y982D02*
X1499Y982D01*
X1141Y981D02*
X1199Y981D01*
X1441Y981D02*
X1499Y981D01*
X241Y540D02*
X299Y540D01*
X541Y540D02*
X599Y540D01*
X1341Y540D02*
X1399Y540D01*
X1641Y540D02*
X1699Y540D01*
X241Y539D02*
X300Y539D01*
X541Y539D02*
X599Y539D01*
X1341Y539D02*
X1399Y539D01*
X1641Y539D02*
X1699Y539D01*
X241Y538D02*
X300Y538D01*
X541Y538D02*
X599Y538D01*
X1341Y538D02*
X1399Y538D01*
X1641Y538D02*
X1699Y538D01*
X241Y537D02*
X300Y537D01*
X541Y537D02*
X599Y537D01*
X1341Y537D02*
X1399Y537D01*
X1641Y537D02*
X1699Y537D01*
X241Y536D02*
X300Y536D01*
X541Y536D02*
X599Y536D01*
X1341Y536D02*
X1399Y536D01*
X1641Y536D02*
X1699Y536D01*
X241Y535D02*
X300Y535D01*
X541Y535D02*
X599Y535D01*
X1341Y535D02*
X1399Y535D01*
X1641Y535D02*
X1699Y535D01*
X241Y534D02*
X300Y534D01*
X541Y534D02*
X599Y534D01*
X1341Y534D02*
X1399Y534D01*
X1641Y534D02*
X1699Y534D01*
X241Y533D02*
X300Y533D01*
X541Y533D02*
X599Y533D01*
X1341Y533D02*
X1399Y533D01*
X1641Y533D02*
X1699Y533D01*
X241Y532D02*
X300Y532D01*
X541Y532D02*
X599Y532D01*
X1341Y532D02*
X1399Y532D01*
X1641Y532D02*
X1699Y532D01*
X241Y531D02*
X300Y531D01*
X541Y531D02*
X599Y531D01*
X1341Y531D02*
X1399Y531D01*
X1641Y531D02*
X1699Y531D01*
X241Y530D02*
X268Y530D01*
X273Y530D02*
X300Y530D01*
X541Y530D02*
X568Y530D01*
X573Y530D02*
X599Y530D01*
X1341Y530D02*
X1368Y530D01*
X1373Y530D02*
X1399Y530D01*
X1641Y530D02*
X1668Y530D01*
X1672Y530D02*
X1699Y530D01*
X241Y529D02*
X263Y529D01*
X277Y529D02*
X300Y529D01*
X541Y529D02*
X563Y529D01*
X577Y529D02*
X599Y529D01*
X1341Y529D02*
X1363Y529D01*
X1377Y529D02*
X1399Y529D01*
X1641Y529D02*
X1663Y529D01*
X1677Y529D02*
X1699Y529D01*
X241Y528D02*
X261Y528D01*
X280Y528D02*
X300Y528D01*
X541Y528D02*
X561Y528D01*
X580Y528D02*
X599Y528D01*
X1341Y528D02*
X1361Y528D01*
X1379Y528D02*
X1399Y528D01*
X1641Y528D02*
X1661Y528D01*
X1679Y528D02*
X1699Y528D01*
X241Y527D02*
X259Y527D01*
X282Y527D02*
X300Y527D01*
X541Y527D02*
X559Y527D01*
X581Y527D02*
X599Y527D01*
X1341Y527D02*
X1359Y527D01*
X1381Y527D02*
X1399Y527D01*
X1641Y527D02*
X1659Y527D01*
X1681Y527D02*
X1699Y527D01*
X241Y526D02*
X258Y526D01*
X283Y526D02*
X300Y526D01*
X541Y526D02*
X558Y526D01*
X583Y526D02*
X599Y526D01*
X1341Y526D02*
X1358Y526D01*
X1383Y526D02*
X1399Y526D01*
X1641Y526D02*
X1657Y526D01*
X1682Y526D02*
X1699Y526D01*
X241Y525D02*
X257Y525D01*
X284Y525D02*
X300Y525D01*
X541Y525D02*
X557Y525D01*
X584Y525D02*
X599Y525D01*
X1341Y525D02*
X1356Y525D01*
X1384Y525D02*
X1399Y525D01*
X1641Y525D02*
X1656Y525D01*
X1684Y525D02*
X1699Y525D01*
X241Y524D02*
X256Y524D01*
X285Y524D02*
X300Y524D01*
X541Y524D02*
X556Y524D01*
X585Y524D02*
X599Y524D01*
X1341Y524D02*
X1355Y524D01*
X1385Y524D02*
X1399Y524D01*
X1641Y524D02*
X1655Y524D01*
X1685Y524D02*
X1699Y524D01*
X241Y523D02*
X255Y523D01*
X286Y523D02*
X300Y523D01*
X541Y523D02*
X555Y523D01*
X586Y523D02*
X599Y523D01*
X1341Y523D02*
X1354Y523D01*
X1386Y523D02*
X1399Y523D01*
X1641Y523D02*
X1654Y523D01*
X1686Y523D02*
X1699Y523D01*
X241Y522D02*
X254Y522D01*
X287Y522D02*
X300Y522D01*
X541Y522D02*
X554Y522D01*
X587Y522D02*
X599Y522D01*
X1341Y522D02*
X1354Y522D01*
X1386Y522D02*
X1399Y522D01*
X1641Y522D02*
X1654Y522D01*
X1686Y522D02*
X1699Y522D01*
X241Y521D02*
X253Y521D01*
X287Y521D02*
X300Y521D01*
X541Y521D02*
X553Y521D01*
X587Y521D02*
X599Y521D01*
X1341Y521D02*
X1353Y521D01*
X1387Y521D02*
X1399Y521D01*
X1641Y521D02*
X1653Y521D01*
X1687Y521D02*
X1699Y521D01*
X241Y520D02*
X253Y520D01*
X288Y520D02*
X300Y520D01*
X541Y520D02*
X553Y520D01*
X588Y520D02*
X599Y520D01*
X1341Y520D02*
X1352Y520D01*
X1388Y520D02*
X1399Y520D01*
X1641Y520D02*
X1652Y520D01*
X1688Y520D02*
X1699Y520D01*
X241Y519D02*
X252Y519D01*
X289Y519D02*
X300Y519D01*
X541Y519D02*
X552Y519D01*
X588Y519D02*
X599Y519D01*
X1341Y519D02*
X1352Y519D01*
X1388Y519D02*
X1399Y519D01*
X1641Y519D02*
X1652Y519D01*
X1688Y519D02*
X1699Y519D01*
X241Y518D02*
X252Y518D01*
X289Y518D02*
X300Y518D01*
X541Y518D02*
X552Y518D01*
X589Y518D02*
X599Y518D01*
X1341Y518D02*
X1351Y518D01*
X1389Y518D02*
X1399Y518D01*
X1641Y518D02*
X1651Y518D01*
X1689Y518D02*
X1699Y518D01*
X241Y517D02*
X251Y517D01*
X289Y517D02*
X300Y517D01*
X541Y517D02*
X551Y517D01*
X589Y517D02*
X599Y517D01*
X1341Y517D02*
X1351Y517D01*
X1389Y517D02*
X1399Y517D01*
X1641Y517D02*
X1651Y517D01*
X1689Y517D02*
X1699Y517D01*
X241Y516D02*
X251Y516D01*
X290Y516D02*
X300Y516D01*
X541Y516D02*
X551Y516D01*
X590Y516D02*
X599Y516D01*
X1341Y516D02*
X1351Y516D01*
X1389Y516D02*
X1399Y516D01*
X1641Y516D02*
X1651Y516D01*
X1689Y516D02*
X1699Y516D01*
X241Y515D02*
X251Y515D01*
X290Y515D02*
X300Y515D01*
X541Y515D02*
X551Y515D01*
X590Y515D02*
X599Y515D01*
X1341Y515D02*
X1350Y515D01*
X1390Y515D02*
X1399Y515D01*
X1641Y515D02*
X1650Y515D01*
X1690Y515D02*
X1699Y515D01*
X241Y514D02*
X251Y514D01*
X290Y514D02*
X300Y514D01*
X541Y514D02*
X550Y514D01*
X590Y514D02*
X599Y514D01*
X1341Y514D02*
X1350Y514D01*
X1390Y514D02*
X1399Y514D01*
X1641Y514D02*
X1650Y514D01*
X1690Y514D02*
X1699Y514D01*
X241Y513D02*
X250Y513D01*
X290Y513D02*
X300Y513D01*
X541Y513D02*
X550Y513D01*
X590Y513D02*
X599Y513D01*
X1341Y513D02*
X1350Y513D01*
X1390Y513D02*
X1399Y513D01*
X1641Y513D02*
X1650Y513D01*
X1690Y513D02*
X1699Y513D01*
X241Y512D02*
X250Y512D01*
X290Y512D02*
X300Y512D01*
X541Y512D02*
X550Y512D01*
X590Y512D02*
X599Y512D01*
X1341Y512D02*
X1350Y512D01*
X1390Y512D02*
X1399Y512D01*
X1641Y512D02*
X1650Y512D01*
X1690Y512D02*
X1699Y512D01*
X241Y511D02*
X250Y511D01*
X290Y511D02*
X300Y511D01*
X541Y511D02*
X550Y511D01*
X590Y511D02*
X599Y511D01*
X1341Y511D02*
X1350Y511D01*
X1390Y511D02*
X1399Y511D01*
X1641Y511D02*
X1650Y511D01*
X1690Y511D02*
X1699Y511D01*
X241Y510D02*
X250Y510D01*
X290Y510D02*
X300Y510D01*
X541Y510D02*
X550Y510D01*
X590Y510D02*
X599Y510D01*
X1341Y510D02*
X1350Y510D01*
X1390Y510D02*
X1399Y510D01*
X1641Y510D02*
X1650Y510D01*
X1690Y510D02*
X1699Y510D01*
X241Y509D02*
X250Y509D01*
X290Y509D02*
X300Y509D01*
X541Y509D02*
X550Y509D01*
X590Y509D02*
X599Y509D01*
X1341Y509D02*
X1350Y509D01*
X1390Y509D02*
X1399Y509D01*
X1641Y509D02*
X1650Y509D01*
X1690Y509D02*
X1699Y509D01*
X241Y508D02*
X250Y508D01*
X290Y508D02*
X300Y508D01*
X541Y508D02*
X550Y508D01*
X590Y508D02*
X599Y508D01*
X1341Y508D02*
X1350Y508D01*
X1390Y508D02*
X1399Y508D01*
X1641Y508D02*
X1650Y508D01*
X1690Y508D02*
X1699Y508D01*
X241Y507D02*
X251Y507D01*
X290Y507D02*
X300Y507D01*
X541Y507D02*
X550Y507D01*
X590Y507D02*
X599Y507D01*
X1341Y507D02*
X1350Y507D01*
X1390Y507D02*
X1399Y507D01*
X1641Y507D02*
X1650Y507D01*
X1690Y507D02*
X1699Y507D01*
X241Y506D02*
X251Y506D01*
X290Y506D02*
X300Y506D01*
X541Y506D02*
X551Y506D01*
X590Y506D02*
X599Y506D01*
X1341Y506D02*
X1350Y506D01*
X1390Y506D02*
X1399Y506D01*
X1641Y506D02*
X1650Y506D01*
X1690Y506D02*
X1699Y506D01*
X241Y505D02*
X251Y505D01*
X290Y505D02*
X300Y505D01*
X541Y505D02*
X551Y505D01*
X590Y505D02*
X599Y505D01*
X1341Y505D02*
X1351Y505D01*
X1389Y505D02*
X1399Y505D01*
X1641Y505D02*
X1651Y505D01*
X1689Y505D02*
X1699Y505D01*
X241Y504D02*
X251Y504D01*
X289Y504D02*
X300Y504D01*
X541Y504D02*
X551Y504D01*
X589Y504D02*
X599Y504D01*
X1341Y504D02*
X1351Y504D01*
X1389Y504D02*
X1399Y504D01*
X1641Y504D02*
X1651Y504D01*
X1689Y504D02*
X1699Y504D01*
X241Y503D02*
X252Y503D01*
X289Y503D02*
X300Y503D01*
X541Y503D02*
X552Y503D01*
X589Y503D02*
X599Y503D01*
X1341Y503D02*
X1351Y503D01*
X1389Y503D02*
X1399Y503D01*
X1641Y503D02*
X1651Y503D01*
X1689Y503D02*
X1699Y503D01*
X241Y502D02*
X252Y502D01*
X289Y502D02*
X300Y502D01*
X541Y502D02*
X552Y502D01*
X588Y502D02*
X599Y502D01*
X1341Y502D02*
X1352Y502D01*
X1388Y502D02*
X1399Y502D01*
X1641Y502D02*
X1652Y502D01*
X1688Y502D02*
X1699Y502D01*
X241Y501D02*
X253Y501D01*
X288Y501D02*
X300Y501D01*
X541Y501D02*
X553Y501D01*
X588Y501D02*
X599Y501D01*
X1341Y501D02*
X1352Y501D01*
X1388Y501D02*
X1399Y501D01*
X1641Y501D02*
X1652Y501D01*
X1688Y501D02*
X1699Y501D01*
X241Y500D02*
X253Y500D01*
X287Y500D02*
X300Y500D01*
X541Y500D02*
X553Y500D01*
X587Y500D02*
X599Y500D01*
X1341Y500D02*
X1353Y500D01*
X1387Y500D02*
X1399Y500D01*
X1641Y500D02*
X1653Y500D01*
X1687Y500D02*
X1699Y500D01*
X241Y499D02*
X254Y499D01*
X287Y499D02*
X300Y499D01*
X541Y499D02*
X554Y499D01*
X587Y499D02*
X599Y499D01*
X1341Y499D02*
X1354Y499D01*
X1386Y499D02*
X1399Y499D01*
X1641Y499D02*
X1654Y499D01*
X1686Y499D02*
X1699Y499D01*
X241Y498D02*
X255Y498D01*
X286Y498D02*
X300Y498D01*
X541Y498D02*
X555Y498D01*
X586Y498D02*
X599Y498D01*
X1341Y498D02*
X1354Y498D01*
X1386Y498D02*
X1399Y498D01*
X1641Y498D02*
X1654Y498D01*
X1686Y498D02*
X1699Y498D01*
X241Y497D02*
X256Y497D01*
X285Y497D02*
X300Y497D01*
X541Y497D02*
X556Y497D01*
X585Y497D02*
X599Y497D01*
X1341Y497D02*
X1355Y497D01*
X1385Y497D02*
X1399Y497D01*
X1641Y497D02*
X1655Y497D01*
X1685Y497D02*
X1699Y497D01*
X241Y496D02*
X257Y496D01*
X284Y496D02*
X300Y496D01*
X541Y496D02*
X557Y496D01*
X584Y496D02*
X599Y496D01*
X1341Y496D02*
X1356Y496D01*
X1384Y496D02*
X1399Y496D01*
X1641Y496D02*
X1656Y496D01*
X1684Y496D02*
X1699Y496D01*
X241Y495D02*
X258Y495D01*
X283Y495D02*
X300Y495D01*
X541Y495D02*
X558Y495D01*
X583Y495D02*
X599Y495D01*
X1341Y495D02*
X1358Y495D01*
X1383Y495D02*
X1399Y495D01*
X1641Y495D02*
X1657Y495D01*
X1682Y495D02*
X1699Y495D01*
X241Y494D02*
X259Y494D01*
X282Y494D02*
X300Y494D01*
X541Y494D02*
X559Y494D01*
X581Y494D02*
X599Y494D01*
X1341Y494D02*
X1359Y494D01*
X1381Y494D02*
X1399Y494D01*
X1641Y494D02*
X1659Y494D01*
X1681Y494D02*
X1699Y494D01*
X241Y493D02*
X261Y493D01*
X280Y493D02*
X300Y493D01*
X541Y493D02*
X561Y493D01*
X580Y493D02*
X599Y493D01*
X1341Y493D02*
X1361Y493D01*
X1379Y493D02*
X1399Y493D01*
X1641Y493D02*
X1661Y493D01*
X1679Y493D02*
X1699Y493D01*
X241Y492D02*
X263Y492D01*
X277Y492D02*
X300Y492D01*
X541Y492D02*
X563Y492D01*
X577Y492D02*
X599Y492D01*
X1341Y492D02*
X1363Y492D01*
X1377Y492D02*
X1399Y492D01*
X1641Y492D02*
X1663Y492D01*
X1677Y492D02*
X1699Y492D01*
X241Y491D02*
X268Y491D01*
X272Y491D02*
X300Y491D01*
X541Y491D02*
X568Y491D01*
X572Y491D02*
X599Y491D01*
X1341Y491D02*
X1368Y491D01*
X1372Y491D02*
X1399Y491D01*
X1641Y491D02*
X1668Y491D01*
X1672Y491D02*
X1699Y491D01*
X241Y490D02*
X300Y490D01*
X541Y490D02*
X599Y490D01*
X1341Y490D02*
X1399Y490D01*
X1641Y490D02*
X1699Y490D01*
X241Y489D02*
X300Y489D01*
X541Y489D02*
X599Y489D01*
X1341Y489D02*
X1399Y489D01*
X1641Y489D02*
X1699Y489D01*
X241Y488D02*
X300Y488D01*
X541Y488D02*
X599Y488D01*
X1341Y488D02*
X1399Y488D01*
X1641Y488D02*
X1699Y488D01*
X241Y487D02*
X300Y487D01*
X541Y487D02*
X599Y487D01*
X1341Y487D02*
X1399Y487D01*
X1641Y487D02*
X1699Y487D01*
X241Y486D02*
X300Y486D01*
X541Y486D02*
X599Y486D01*
X1341Y486D02*
X1399Y486D01*
X1641Y486D02*
X1699Y486D01*
X241Y485D02*
X300Y485D01*
X541Y485D02*
X599Y485D01*
X1341Y485D02*
X1399Y485D01*
X1641Y485D02*
X1699Y485D01*
X241Y484D02*
X300Y484D01*
X541Y484D02*
X599Y484D01*
X1341Y484D02*
X1399Y484D01*
X1641Y484D02*
X1699Y484D01*
X241Y483D02*
X300Y483D01*
X541Y483D02*
X599Y483D01*
X1341Y483D02*
X1399Y483D01*
X1641Y483D02*
X1699Y483D01*
X241Y482D02*
X300Y482D01*
X541Y482D02*
X599Y482D01*
X1341Y482D02*
X1399Y482D01*
X1641Y482D02*
X1699Y482D01*
X241Y481D02*
X299Y481D01*
X541Y481D02*
X599Y481D01*
X1341Y481D02*
X1399Y481D01*
X1641Y481D02*
X1699Y481D01*
X241Y340D02*
X299Y340D01*
X541Y340D02*
X599Y340D01*
X1341Y340D02*
X1399Y340D01*
X1641Y340D02*
X1699Y340D01*
X241Y339D02*
X300Y339D01*
X541Y339D02*
X599Y339D01*
X1341Y339D02*
X1399Y339D01*
X1641Y339D02*
X1699Y339D01*
X241Y338D02*
X300Y338D01*
X541Y338D02*
X599Y338D01*
X1341Y338D02*
X1399Y338D01*
X1641Y338D02*
X1699Y338D01*
X241Y337D02*
X300Y337D01*
X541Y337D02*
X599Y337D01*
X1341Y337D02*
X1399Y337D01*
X1641Y337D02*
X1699Y337D01*
X241Y336D02*
X300Y336D01*
X541Y336D02*
X599Y336D01*
X1341Y336D02*
X1399Y336D01*
X1641Y336D02*
X1699Y336D01*
X241Y335D02*
X300Y335D01*
X541Y335D02*
X599Y335D01*
X1341Y335D02*
X1399Y335D01*
X1641Y335D02*
X1699Y335D01*
X241Y334D02*
X300Y334D01*
X541Y334D02*
X599Y334D01*
X1341Y334D02*
X1399Y334D01*
X1641Y334D02*
X1699Y334D01*
X241Y333D02*
X300Y333D01*
X541Y333D02*
X599Y333D01*
X1341Y333D02*
X1399Y333D01*
X1641Y333D02*
X1699Y333D01*
X241Y332D02*
X300Y332D01*
X541Y332D02*
X599Y332D01*
X1341Y332D02*
X1399Y332D01*
X1641Y332D02*
X1699Y332D01*
X241Y331D02*
X300Y331D01*
X541Y331D02*
X599Y331D01*
X1341Y331D02*
X1399Y331D01*
X1641Y331D02*
X1699Y331D01*
X241Y330D02*
X268Y330D01*
X273Y330D02*
X300Y330D01*
X541Y330D02*
X568Y330D01*
X573Y330D02*
X599Y330D01*
X1341Y330D02*
X1367Y330D01*
X1373Y330D02*
X1399Y330D01*
X1641Y330D02*
X1667Y330D01*
X1673Y330D02*
X1699Y330D01*
X241Y329D02*
X263Y329D01*
X277Y329D02*
X300Y329D01*
X541Y329D02*
X563Y329D01*
X577Y329D02*
X599Y329D01*
X1341Y329D02*
X1363Y329D01*
X1377Y329D02*
X1399Y329D01*
X1641Y329D02*
X1663Y329D01*
X1677Y329D02*
X1699Y329D01*
X241Y328D02*
X261Y328D01*
X280Y328D02*
X300Y328D01*
X541Y328D02*
X561Y328D01*
X580Y328D02*
X599Y328D01*
X1341Y328D02*
X1361Y328D01*
X1379Y328D02*
X1399Y328D01*
X1641Y328D02*
X1661Y328D01*
X1679Y328D02*
X1699Y328D01*
X241Y327D02*
X259Y327D01*
X282Y327D02*
X300Y327D01*
X541Y327D02*
X559Y327D01*
X582Y327D02*
X599Y327D01*
X1341Y327D02*
X1359Y327D01*
X1381Y327D02*
X1399Y327D01*
X1641Y327D02*
X1659Y327D01*
X1681Y327D02*
X1699Y327D01*
X241Y326D02*
X258Y326D01*
X283Y326D02*
X300Y326D01*
X541Y326D02*
X558Y326D01*
X583Y326D02*
X599Y326D01*
X1341Y326D02*
X1358Y326D01*
X1383Y326D02*
X1399Y326D01*
X1641Y326D02*
X1657Y326D01*
X1683Y326D02*
X1699Y326D01*
X241Y325D02*
X257Y325D01*
X284Y325D02*
X300Y325D01*
X541Y325D02*
X557Y325D01*
X584Y325D02*
X599Y325D01*
X1341Y325D02*
X1356Y325D01*
X1384Y325D02*
X1399Y325D01*
X1641Y325D02*
X1656Y325D01*
X1684Y325D02*
X1699Y325D01*
X241Y324D02*
X256Y324D01*
X285Y324D02*
X300Y324D01*
X541Y324D02*
X555Y324D01*
X585Y324D02*
X599Y324D01*
X1341Y324D02*
X1355Y324D01*
X1385Y324D02*
X1399Y324D01*
X1641Y324D02*
X1655Y324D01*
X1685Y324D02*
X1699Y324D01*
X241Y323D02*
X255Y323D01*
X286Y323D02*
X300Y323D01*
X541Y323D02*
X555Y323D01*
X586Y323D02*
X599Y323D01*
X1341Y323D02*
X1354Y323D01*
X1386Y323D02*
X1399Y323D01*
X1641Y323D02*
X1654Y323D01*
X1686Y323D02*
X1699Y323D01*
X241Y322D02*
X254Y322D01*
X287Y322D02*
X300Y322D01*
X541Y322D02*
X554Y322D01*
X587Y322D02*
X599Y322D01*
X1341Y322D02*
X1354Y322D01*
X1386Y322D02*
X1399Y322D01*
X1641Y322D02*
X1654Y322D01*
X1686Y322D02*
X1699Y322D01*
X241Y321D02*
X253Y321D01*
X287Y321D02*
X300Y321D01*
X541Y321D02*
X553Y321D01*
X587Y321D02*
X599Y321D01*
X1341Y321D02*
X1353Y321D01*
X1387Y321D02*
X1399Y321D01*
X1641Y321D02*
X1653Y321D01*
X1687Y321D02*
X1699Y321D01*
X241Y320D02*
X253Y320D01*
X288Y320D02*
X300Y320D01*
X541Y320D02*
X553Y320D01*
X588Y320D02*
X599Y320D01*
X1341Y320D02*
X1352Y320D01*
X1388Y320D02*
X1399Y320D01*
X1641Y320D02*
X1652Y320D01*
X1688Y320D02*
X1699Y320D01*
X241Y319D02*
X252Y319D01*
X289Y319D02*
X300Y319D01*
X541Y319D02*
X552Y319D01*
X588Y319D02*
X599Y319D01*
X1341Y319D02*
X1352Y319D01*
X1388Y319D02*
X1399Y319D01*
X1641Y319D02*
X1652Y319D01*
X1688Y319D02*
X1699Y319D01*
X241Y318D02*
X252Y318D01*
X289Y318D02*
X300Y318D01*
X541Y318D02*
X552Y318D01*
X589Y318D02*
X599Y318D01*
X1341Y318D02*
X1351Y318D01*
X1389Y318D02*
X1399Y318D01*
X1641Y318D02*
X1651Y318D01*
X1689Y318D02*
X1699Y318D01*
X241Y317D02*
X251Y317D01*
X289Y317D02*
X300Y317D01*
X541Y317D02*
X551Y317D01*
X589Y317D02*
X599Y317D01*
X1341Y317D02*
X1351Y317D01*
X1389Y317D02*
X1399Y317D01*
X1641Y317D02*
X1651Y317D01*
X1689Y317D02*
X1699Y317D01*
X241Y316D02*
X251Y316D01*
X290Y316D02*
X300Y316D01*
X541Y316D02*
X551Y316D01*
X590Y316D02*
X599Y316D01*
X1341Y316D02*
X1351Y316D01*
X1389Y316D02*
X1399Y316D01*
X1641Y316D02*
X1651Y316D01*
X1689Y316D02*
X1699Y316D01*
X241Y315D02*
X251Y315D01*
X290Y315D02*
X300Y315D01*
X541Y315D02*
X551Y315D01*
X590Y315D02*
X599Y315D01*
X1341Y315D02*
X1350Y315D01*
X1390Y315D02*
X1399Y315D01*
X1641Y315D02*
X1650Y315D01*
X1690Y315D02*
X1699Y315D01*
X241Y314D02*
X251Y314D01*
X290Y314D02*
X300Y314D01*
X541Y314D02*
X550Y314D01*
X590Y314D02*
X599Y314D01*
X1341Y314D02*
X1350Y314D01*
X1390Y314D02*
X1399Y314D01*
X1641Y314D02*
X1650Y314D01*
X1690Y314D02*
X1699Y314D01*
X241Y313D02*
X250Y313D01*
X290Y313D02*
X300Y313D01*
X541Y313D02*
X550Y313D01*
X590Y313D02*
X599Y313D01*
X1341Y313D02*
X1350Y313D01*
X1390Y313D02*
X1399Y313D01*
X1641Y313D02*
X1650Y313D01*
X1690Y313D02*
X1699Y313D01*
X241Y312D02*
X250Y312D01*
X290Y312D02*
X300Y312D01*
X541Y312D02*
X550Y312D01*
X590Y312D02*
X599Y312D01*
X1341Y312D02*
X1350Y312D01*
X1390Y312D02*
X1399Y312D01*
X1641Y312D02*
X1650Y312D01*
X1690Y312D02*
X1699Y312D01*
X241Y311D02*
X250Y311D01*
X290Y311D02*
X300Y311D01*
X541Y311D02*
X550Y311D01*
X590Y311D02*
X599Y311D01*
X1341Y311D02*
X1350Y311D01*
X1390Y311D02*
X1399Y311D01*
X1641Y311D02*
X1650Y311D01*
X1690Y311D02*
X1699Y311D01*
X241Y310D02*
X250Y310D01*
X290Y310D02*
X300Y310D01*
X541Y310D02*
X550Y310D01*
X590Y310D02*
X599Y310D01*
X1341Y310D02*
X1350Y310D01*
X1390Y310D02*
X1399Y310D01*
X1641Y310D02*
X1650Y310D01*
X1690Y310D02*
X1699Y310D01*
X241Y309D02*
X250Y309D01*
X290Y309D02*
X300Y309D01*
X541Y309D02*
X550Y309D01*
X590Y309D02*
X599Y309D01*
X1341Y309D02*
X1350Y309D01*
X1390Y309D02*
X1399Y309D01*
X1641Y309D02*
X1650Y309D01*
X1690Y309D02*
X1699Y309D01*
X241Y308D02*
X250Y308D01*
X290Y308D02*
X300Y308D01*
X541Y308D02*
X550Y308D01*
X590Y308D02*
X599Y308D01*
X1341Y308D02*
X1350Y308D01*
X1390Y308D02*
X1399Y308D01*
X1641Y308D02*
X1650Y308D01*
X1690Y308D02*
X1699Y308D01*
X241Y307D02*
X251Y307D01*
X290Y307D02*
X300Y307D01*
X541Y307D02*
X550Y307D01*
X590Y307D02*
X599Y307D01*
X1341Y307D02*
X1350Y307D01*
X1390Y307D02*
X1399Y307D01*
X1641Y307D02*
X1650Y307D01*
X1690Y307D02*
X1699Y307D01*
X241Y306D02*
X251Y306D01*
X290Y306D02*
X300Y306D01*
X541Y306D02*
X551Y306D01*
X590Y306D02*
X599Y306D01*
X1341Y306D02*
X1350Y306D01*
X1390Y306D02*
X1399Y306D01*
X1641Y306D02*
X1650Y306D01*
X1690Y306D02*
X1699Y306D01*
X241Y305D02*
X251Y305D01*
X290Y305D02*
X300Y305D01*
X541Y305D02*
X551Y305D01*
X590Y305D02*
X599Y305D01*
X1341Y305D02*
X1351Y305D01*
X1389Y305D02*
X1399Y305D01*
X1641Y305D02*
X1651Y305D01*
X1689Y305D02*
X1699Y305D01*
X241Y304D02*
X251Y304D01*
X289Y304D02*
X300Y304D01*
X541Y304D02*
X551Y304D01*
X589Y304D02*
X599Y304D01*
X1341Y304D02*
X1351Y304D01*
X1389Y304D02*
X1399Y304D01*
X1641Y304D02*
X1651Y304D01*
X1689Y304D02*
X1699Y304D01*
X241Y303D02*
X252Y303D01*
X289Y303D02*
X300Y303D01*
X541Y303D02*
X552Y303D01*
X589Y303D02*
X599Y303D01*
X1341Y303D02*
X1351Y303D01*
X1389Y303D02*
X1399Y303D01*
X1641Y303D02*
X1651Y303D01*
X1689Y303D02*
X1699Y303D01*
X241Y302D02*
X252Y302D01*
X289Y302D02*
X300Y302D01*
X541Y302D02*
X552Y302D01*
X588Y302D02*
X599Y302D01*
X1341Y302D02*
X1352Y302D01*
X1388Y302D02*
X1399Y302D01*
X1641Y302D02*
X1652Y302D01*
X1688Y302D02*
X1699Y302D01*
X241Y301D02*
X253Y301D01*
X288Y301D02*
X300Y301D01*
X541Y301D02*
X553Y301D01*
X588Y301D02*
X599Y301D01*
X1341Y301D02*
X1352Y301D01*
X1388Y301D02*
X1399Y301D01*
X1641Y301D02*
X1652Y301D01*
X1688Y301D02*
X1699Y301D01*
X241Y300D02*
X253Y300D01*
X287Y300D02*
X300Y300D01*
X541Y300D02*
X553Y300D01*
X587Y300D02*
X599Y300D01*
X1341Y300D02*
X1353Y300D01*
X1387Y300D02*
X1399Y300D01*
X1641Y300D02*
X1653Y300D01*
X1687Y300D02*
X1699Y300D01*
X241Y299D02*
X254Y299D01*
X287Y299D02*
X300Y299D01*
X541Y299D02*
X554Y299D01*
X587Y299D02*
X599Y299D01*
X1341Y299D02*
X1354Y299D01*
X1386Y299D02*
X1399Y299D01*
X1641Y299D02*
X1654Y299D01*
X1686Y299D02*
X1699Y299D01*
X241Y298D02*
X255Y298D01*
X286Y298D02*
X300Y298D01*
X541Y298D02*
X555Y298D01*
X586Y298D02*
X599Y298D01*
X1341Y298D02*
X1355Y298D01*
X1386Y298D02*
X1399Y298D01*
X1641Y298D02*
X1654Y298D01*
X1686Y298D02*
X1699Y298D01*
X241Y297D02*
X256Y297D01*
X285Y297D02*
X300Y297D01*
X541Y297D02*
X556Y297D01*
X585Y297D02*
X599Y297D01*
X1341Y297D02*
X1355Y297D01*
X1385Y297D02*
X1399Y297D01*
X1641Y297D02*
X1655Y297D01*
X1685Y297D02*
X1699Y297D01*
X241Y296D02*
X257Y296D01*
X284Y296D02*
X300Y296D01*
X541Y296D02*
X557Y296D01*
X584Y296D02*
X599Y296D01*
X1341Y296D02*
X1356Y296D01*
X1384Y296D02*
X1399Y296D01*
X1641Y296D02*
X1656Y296D01*
X1684Y296D02*
X1699Y296D01*
X241Y295D02*
X258Y295D01*
X283Y295D02*
X300Y295D01*
X541Y295D02*
X558Y295D01*
X583Y295D02*
X599Y295D01*
X1341Y295D02*
X1358Y295D01*
X1382Y295D02*
X1399Y295D01*
X1641Y295D02*
X1658Y295D01*
X1682Y295D02*
X1699Y295D01*
X241Y294D02*
X259Y294D01*
X281Y294D02*
X300Y294D01*
X541Y294D02*
X559Y294D01*
X581Y294D02*
X599Y294D01*
X1341Y294D02*
X1359Y294D01*
X1381Y294D02*
X1399Y294D01*
X1641Y294D02*
X1659Y294D01*
X1681Y294D02*
X1699Y294D01*
X241Y293D02*
X261Y293D01*
X280Y293D02*
X300Y293D01*
X541Y293D02*
X561Y293D01*
X580Y293D02*
X599Y293D01*
X1341Y293D02*
X1361Y293D01*
X1379Y293D02*
X1399Y293D01*
X1641Y293D02*
X1661Y293D01*
X1679Y293D02*
X1699Y293D01*
X241Y292D02*
X264Y292D01*
X277Y292D02*
X300Y292D01*
X541Y292D02*
X563Y292D01*
X577Y292D02*
X599Y292D01*
X1341Y292D02*
X1363Y292D01*
X1377Y292D02*
X1399Y292D01*
X1641Y292D02*
X1663Y292D01*
X1677Y292D02*
X1699Y292D01*
X241Y291D02*
X268Y291D01*
X272Y291D02*
X300Y291D01*
X541Y291D02*
X568Y291D01*
X572Y291D02*
X599Y291D01*
X1341Y291D02*
X1368Y291D01*
X1372Y291D02*
X1399Y291D01*
X1641Y291D02*
X1668Y291D01*
X1672Y291D02*
X1699Y291D01*
X241Y290D02*
X300Y290D01*
X541Y290D02*
X599Y290D01*
X1341Y290D02*
X1399Y290D01*
X1641Y290D02*
X1699Y290D01*
X241Y289D02*
X300Y289D01*
X541Y289D02*
X599Y289D01*
X1341Y289D02*
X1399Y289D01*
X1641Y289D02*
X1699Y289D01*
X241Y288D02*
X300Y288D01*
X541Y288D02*
X599Y288D01*
X1341Y288D02*
X1399Y288D01*
X1641Y288D02*
X1699Y288D01*
X241Y287D02*
X300Y287D01*
X541Y287D02*
X599Y287D01*
X1341Y287D02*
X1399Y287D01*
X1641Y287D02*
X1699Y287D01*
X241Y286D02*
X300Y286D01*
X541Y286D02*
X599Y286D01*
X1341Y286D02*
X1399Y286D01*
X1641Y286D02*
X1699Y286D01*
X241Y285D02*
X300Y285D01*
X541Y285D02*
X599Y285D01*
X1341Y285D02*
X1399Y285D01*
X1641Y285D02*
X1699Y285D01*
X241Y284D02*
X300Y284D01*
X541Y284D02*
X599Y284D01*
X1341Y284D02*
X1399Y284D01*
X1641Y284D02*
X1699Y284D01*
X241Y283D02*
X300Y283D01*
X541Y283D02*
X599Y283D01*
X1341Y283D02*
X1399Y283D01*
X1641Y283D02*
X1699Y283D01*
X241Y282D02*
X300Y282D01*
X541Y282D02*
X599Y282D01*
X1341Y282D02*
X1399Y282D01*
X1641Y282D02*
X1699Y282D01*
X241Y281D02*
X299Y281D01*
X541Y281D02*
X599Y281D01*
X1341Y281D02*
X1399Y281D01*
X1641Y281D02*
X1699Y281D01*
D02*
G04 End of Copper1*
M02*