G04 MADE WITH FRITZING*
G04 WWW.FRITZING.ORG*
G04 DOUBLE SIDED*
G04 HOLES PLATED*
G04 CONTOUR ON CENTER OF CONTOUR VECTOR*
%ASAXBY*%
%FSLAX23Y23*%
%MOIN*%
%OFA0B0*%
%SFA1.0B1.0*%
%ADD10C,0.082917*%
%ADD11C,0.085000*%
%ADD12C,0.062000*%
%ADD13C,0.088000*%
%ADD14C,0.084000*%
%ADD15C,0.069370*%
%ADD16R,0.001000X0.001000*%
%LNMASK0*%
G90*
G70*
G54D10*
X3007Y103D03*
X1407Y103D03*
X3107Y103D03*
X3207Y103D03*
X3307Y103D03*
X3407Y103D03*
X3707Y1503D03*
X3507Y103D03*
X3607Y103D03*
X1447Y2003D03*
X2007Y103D03*
X2107Y103D03*
X2207Y103D03*
X2307Y103D03*
X3707Y703D03*
X2407Y103D03*
X2507Y103D03*
X2607Y103D03*
X2707Y103D03*
X2207Y2003D03*
X3707Y1903D03*
X3707Y1103D03*
X3707Y303D03*
X1047Y2003D03*
X1807Y103D03*
X1807Y2003D03*
X3707Y1703D03*
X3707Y1303D03*
X3707Y903D03*
X3407Y2003D03*
X3707Y503D03*
X3307Y2003D03*
X3207Y2003D03*
X3107Y2003D03*
X3007Y2003D03*
X2907Y2003D03*
X2807Y2003D03*
X2707Y2003D03*
X847Y2003D03*
X1247Y2003D03*
X1647Y2003D03*
X1207Y103D03*
X1607Y103D03*
X2407Y2003D03*
X2007Y2003D03*
X3707Y2003D03*
X3707Y1803D03*
X3707Y1603D03*
X3707Y1403D03*
X3707Y1203D03*
X3707Y1003D03*
X3707Y803D03*
X3707Y603D03*
X3707Y403D03*
X747Y2003D03*
X947Y2003D03*
X1147Y2003D03*
X1347Y2003D03*
X1547Y2003D03*
X1107Y103D03*
X1307Y103D03*
X1507Y103D03*
X1707Y103D03*
X2507Y2003D03*
X2307Y2003D03*
X2107Y2003D03*
X1907Y2003D03*
X3807Y2003D03*
X3807Y1903D03*
X3807Y1803D03*
X3807Y1703D03*
X3807Y1603D03*
X3807Y1503D03*
X3807Y1403D03*
X3807Y1303D03*
X3807Y1203D03*
X3807Y1103D03*
X3807Y1003D03*
X3807Y903D03*
X3807Y803D03*
X3807Y703D03*
X3807Y603D03*
X3807Y503D03*
X3807Y403D03*
X3807Y303D03*
X2907Y103D03*
G54D11*
X3507Y1103D03*
X3507Y703D03*
G54D12*
X2707Y1103D03*
X2707Y1203D03*
X2407Y1203D03*
X2407Y1103D03*
G54D11*
X2707Y703D03*
X3107Y703D03*
G54D13*
X98Y1103D03*
X98Y551D03*
X1007Y1103D03*
X1007Y1003D03*
X1007Y652D03*
X1007Y551D03*
G54D14*
X3007Y1803D03*
X3107Y1803D03*
X3207Y1803D03*
X3307Y1803D03*
X3407Y1803D03*
X3507Y1803D03*
G54D13*
X1607Y1703D03*
X2207Y503D03*
X2207Y203D03*
X1807Y1603D03*
X1907Y203D03*
X2407Y203D03*
X1907Y503D03*
X1707Y503D03*
X107Y1703D03*
X2407Y503D03*
X2007Y1603D03*
X1807Y1903D03*
X1707Y203D03*
X2007Y1903D03*
G54D15*
X1307Y503D03*
X1607Y503D03*
X1307Y303D03*
X1607Y303D03*
X1707Y1003D03*
X1407Y1003D03*
X1707Y1203D03*
X1407Y1203D03*
X2507Y503D03*
X2807Y503D03*
X2507Y303D03*
X2807Y303D03*
G54D13*
X3407Y403D03*
X3307Y403D03*
G54D11*
X3307Y1203D03*
X3307Y1603D03*
X3107Y1203D03*
X3107Y1603D03*
G54D16*
X1373Y1237D02*
X1441Y1237D01*
X1673Y1237D02*
X1741Y1237D01*
X1373Y1236D02*
X1441Y1236D01*
X1673Y1236D02*
X1741Y1236D01*
X1373Y1235D02*
X1441Y1235D01*
X1673Y1235D02*
X1741Y1235D01*
X1373Y1234D02*
X1441Y1234D01*
X1673Y1234D02*
X1741Y1234D01*
X2378Y1234D02*
X2436Y1234D01*
X2678Y1234D02*
X2736Y1234D01*
X1373Y1233D02*
X1441Y1233D01*
X1673Y1233D02*
X1741Y1233D01*
X2373Y1233D02*
X2441Y1233D01*
X2673Y1233D02*
X2741Y1233D01*
X1373Y1232D02*
X1441Y1232D01*
X1673Y1232D02*
X1741Y1232D01*
X2370Y1232D02*
X2444Y1232D01*
X2670Y1232D02*
X2744Y1232D01*
X1373Y1231D02*
X1441Y1231D01*
X1673Y1231D02*
X1741Y1231D01*
X2368Y1231D02*
X2446Y1231D01*
X2668Y1231D02*
X2746Y1231D01*
X1373Y1230D02*
X1441Y1230D01*
X1673Y1230D02*
X1741Y1230D01*
X2366Y1230D02*
X2448Y1230D01*
X2666Y1230D02*
X2748Y1230D01*
X1373Y1229D02*
X1441Y1229D01*
X1673Y1229D02*
X1741Y1229D01*
X2364Y1229D02*
X2449Y1229D01*
X2664Y1229D02*
X2749Y1229D01*
X1373Y1228D02*
X1441Y1228D01*
X1673Y1228D02*
X1741Y1228D01*
X2363Y1228D02*
X2451Y1228D01*
X2663Y1228D02*
X2751Y1228D01*
X1373Y1227D02*
X1441Y1227D01*
X1673Y1227D02*
X1741Y1227D01*
X2361Y1227D02*
X2452Y1227D01*
X2661Y1227D02*
X2752Y1227D01*
X1373Y1226D02*
X1441Y1226D01*
X1673Y1226D02*
X1741Y1226D01*
X2360Y1226D02*
X2453Y1226D01*
X2660Y1226D02*
X2753Y1226D01*
X1373Y1225D02*
X1441Y1225D01*
X1673Y1225D02*
X1741Y1225D01*
X2359Y1225D02*
X2454Y1225D01*
X2659Y1225D02*
X2754Y1225D01*
X1373Y1224D02*
X1441Y1224D01*
X1673Y1224D02*
X1741Y1224D01*
X2358Y1224D02*
X2455Y1224D01*
X2658Y1224D02*
X2755Y1224D01*
X1373Y1223D02*
X1441Y1223D01*
X1673Y1223D02*
X1741Y1223D01*
X2357Y1223D02*
X2456Y1223D01*
X2657Y1223D02*
X2756Y1223D01*
X1373Y1222D02*
X1441Y1222D01*
X1673Y1222D02*
X1741Y1222D01*
X2357Y1222D02*
X2457Y1222D01*
X2657Y1222D02*
X2757Y1222D01*
X1373Y1221D02*
X1441Y1221D01*
X1673Y1221D02*
X1741Y1221D01*
X2356Y1221D02*
X2458Y1221D01*
X2656Y1221D02*
X2758Y1221D01*
X1373Y1220D02*
X1441Y1220D01*
X1673Y1220D02*
X1741Y1220D01*
X2355Y1220D02*
X2458Y1220D01*
X2655Y1220D02*
X2758Y1220D01*
X1373Y1219D02*
X1441Y1219D01*
X1673Y1219D02*
X1741Y1219D01*
X2355Y1219D02*
X2459Y1219D01*
X2655Y1219D02*
X2759Y1219D01*
X1373Y1218D02*
X1441Y1218D01*
X1673Y1218D02*
X1741Y1218D01*
X2354Y1218D02*
X2459Y1218D01*
X2654Y1218D02*
X2759Y1218D01*
X1373Y1217D02*
X1401Y1217D01*
X1413Y1217D02*
X1441Y1217D01*
X1673Y1217D02*
X1701Y1217D01*
X1713Y1217D02*
X1741Y1217D01*
X2354Y1217D02*
X2460Y1217D01*
X2654Y1217D02*
X2760Y1217D01*
X1373Y1216D02*
X1399Y1216D01*
X1415Y1216D02*
X1441Y1216D01*
X1673Y1216D02*
X1699Y1216D01*
X1715Y1216D02*
X1741Y1216D01*
X2353Y1216D02*
X2460Y1216D01*
X2653Y1216D02*
X2760Y1216D01*
X1373Y1215D02*
X1398Y1215D01*
X1416Y1215D02*
X1441Y1215D01*
X1673Y1215D02*
X1698Y1215D01*
X1716Y1215D02*
X1741Y1215D01*
X2353Y1215D02*
X2461Y1215D01*
X2653Y1215D02*
X2761Y1215D01*
X1373Y1214D02*
X1396Y1214D01*
X1417Y1214D02*
X1441Y1214D01*
X1673Y1214D02*
X1696Y1214D01*
X1717Y1214D02*
X1741Y1214D01*
X2352Y1214D02*
X2404Y1214D01*
X2410Y1214D02*
X2461Y1214D01*
X2652Y1214D02*
X2704Y1214D01*
X2710Y1214D02*
X2761Y1214D01*
X1373Y1213D02*
X1395Y1213D01*
X1418Y1213D02*
X1441Y1213D01*
X1673Y1213D02*
X1695Y1213D01*
X1718Y1213D02*
X1741Y1213D01*
X2352Y1213D02*
X2401Y1213D01*
X2412Y1213D02*
X2462Y1213D01*
X2652Y1213D02*
X2701Y1213D01*
X2712Y1213D02*
X2762Y1213D01*
X1373Y1212D02*
X1395Y1212D01*
X1419Y1212D02*
X1441Y1212D01*
X1673Y1212D02*
X1695Y1212D01*
X1719Y1212D02*
X1741Y1212D01*
X2352Y1212D02*
X2400Y1212D01*
X2414Y1212D02*
X2462Y1212D01*
X2652Y1212D02*
X2700Y1212D01*
X2714Y1212D02*
X2762Y1212D01*
X1373Y1211D02*
X1394Y1211D01*
X1420Y1211D02*
X1441Y1211D01*
X1673Y1211D02*
X1694Y1211D01*
X1720Y1211D02*
X1741Y1211D01*
X2351Y1211D02*
X2399Y1211D01*
X2415Y1211D02*
X2462Y1211D01*
X2651Y1211D02*
X2699Y1211D01*
X2715Y1211D02*
X2762Y1211D01*
X1373Y1210D02*
X1393Y1210D01*
X1420Y1210D02*
X1441Y1210D01*
X1673Y1210D02*
X1693Y1210D01*
X1720Y1210D02*
X1741Y1210D01*
X2351Y1210D02*
X2398Y1210D01*
X2416Y1210D02*
X2462Y1210D01*
X2651Y1210D02*
X2698Y1210D01*
X2716Y1210D02*
X2762Y1210D01*
X1373Y1209D02*
X1393Y1209D01*
X1421Y1209D02*
X1441Y1209D01*
X1673Y1209D02*
X1693Y1209D01*
X1721Y1209D02*
X1741Y1209D01*
X2351Y1209D02*
X2397Y1209D01*
X2417Y1209D02*
X2463Y1209D01*
X2651Y1209D02*
X2697Y1209D01*
X2717Y1209D02*
X2763Y1209D01*
X1373Y1208D02*
X1392Y1208D01*
X1421Y1208D02*
X1441Y1208D01*
X1673Y1208D02*
X1692Y1208D01*
X1721Y1208D02*
X1741Y1208D01*
X2351Y1208D02*
X2396Y1208D01*
X2417Y1208D02*
X2463Y1208D01*
X2651Y1208D02*
X2696Y1208D01*
X2717Y1208D02*
X2763Y1208D01*
X1373Y1207D02*
X1392Y1207D01*
X1422Y1207D02*
X1441Y1207D01*
X1673Y1207D02*
X1692Y1207D01*
X1722Y1207D02*
X1741Y1207D01*
X2351Y1207D02*
X2396Y1207D01*
X2418Y1207D02*
X2463Y1207D01*
X2651Y1207D02*
X2696Y1207D01*
X2718Y1207D02*
X2763Y1207D01*
X1373Y1206D02*
X1392Y1206D01*
X1422Y1206D02*
X1441Y1206D01*
X1673Y1206D02*
X1692Y1206D01*
X1722Y1206D02*
X1741Y1206D01*
X2350Y1206D02*
X2396Y1206D01*
X2418Y1206D02*
X2463Y1206D01*
X2650Y1206D02*
X2696Y1206D01*
X2718Y1206D02*
X2763Y1206D01*
X1373Y1205D02*
X1392Y1205D01*
X1422Y1205D02*
X1441Y1205D01*
X1673Y1205D02*
X1692Y1205D01*
X1722Y1205D02*
X1741Y1205D01*
X2350Y1205D02*
X2395Y1205D01*
X2418Y1205D02*
X2463Y1205D01*
X2650Y1205D02*
X2695Y1205D01*
X2718Y1205D02*
X2763Y1205D01*
X1373Y1204D02*
X1392Y1204D01*
X1422Y1204D02*
X1441Y1204D01*
X1673Y1204D02*
X1692Y1204D01*
X1722Y1204D02*
X1741Y1204D01*
X2350Y1204D02*
X2395Y1204D01*
X2418Y1204D02*
X2463Y1204D01*
X2650Y1204D02*
X2695Y1204D01*
X2718Y1204D02*
X2763Y1204D01*
X1373Y1203D02*
X1392Y1203D01*
X1422Y1203D02*
X1441Y1203D01*
X1673Y1203D02*
X1692Y1203D01*
X1722Y1203D02*
X1741Y1203D01*
X2350Y1203D02*
X2395Y1203D01*
X2418Y1203D02*
X2463Y1203D01*
X2650Y1203D02*
X2695Y1203D01*
X2718Y1203D02*
X2763Y1203D01*
X1373Y1202D02*
X1392Y1202D01*
X1422Y1202D02*
X1441Y1202D01*
X1673Y1202D02*
X1692Y1202D01*
X1722Y1202D02*
X1741Y1202D01*
X2350Y1202D02*
X2395Y1202D01*
X2418Y1202D02*
X2463Y1202D01*
X2650Y1202D02*
X2695Y1202D01*
X2718Y1202D02*
X2763Y1202D01*
X1373Y1201D02*
X1392Y1201D01*
X1422Y1201D02*
X1441Y1201D01*
X1673Y1201D02*
X1692Y1201D01*
X1722Y1201D02*
X1741Y1201D01*
X2350Y1201D02*
X2396Y1201D01*
X2418Y1201D02*
X2463Y1201D01*
X2650Y1201D02*
X2696Y1201D01*
X2718Y1201D02*
X2763Y1201D01*
X1373Y1200D02*
X1392Y1200D01*
X1422Y1200D02*
X1441Y1200D01*
X1673Y1200D02*
X1692Y1200D01*
X1722Y1200D02*
X1741Y1200D01*
X2350Y1200D02*
X2396Y1200D01*
X2418Y1200D02*
X2463Y1200D01*
X2650Y1200D02*
X2696Y1200D01*
X2718Y1200D02*
X2763Y1200D01*
X1373Y1199D02*
X1392Y1199D01*
X1421Y1199D02*
X1441Y1199D01*
X1673Y1199D02*
X1692Y1199D01*
X1721Y1199D02*
X1741Y1199D01*
X2351Y1199D02*
X2396Y1199D01*
X2418Y1199D02*
X2463Y1199D01*
X2651Y1199D02*
X2696Y1199D01*
X2718Y1199D02*
X2763Y1199D01*
X1373Y1198D02*
X1393Y1198D01*
X1421Y1198D02*
X1441Y1198D01*
X1673Y1198D02*
X1693Y1198D01*
X1721Y1198D02*
X1741Y1198D01*
X2351Y1198D02*
X2397Y1198D01*
X2417Y1198D02*
X2463Y1198D01*
X2651Y1198D02*
X2697Y1198D01*
X2717Y1198D02*
X2763Y1198D01*
X1373Y1197D02*
X1393Y1197D01*
X1421Y1197D02*
X1441Y1197D01*
X1673Y1197D02*
X1693Y1197D01*
X1721Y1197D02*
X1741Y1197D01*
X2351Y1197D02*
X2397Y1197D01*
X2416Y1197D02*
X2463Y1197D01*
X2651Y1197D02*
X2697Y1197D01*
X2716Y1197D02*
X2763Y1197D01*
X1373Y1196D02*
X1394Y1196D01*
X1420Y1196D02*
X1441Y1196D01*
X1673Y1196D02*
X1694Y1196D01*
X1720Y1196D02*
X1741Y1196D01*
X2351Y1196D02*
X2398Y1196D01*
X2416Y1196D02*
X2462Y1196D01*
X2651Y1196D02*
X2698Y1196D01*
X2716Y1196D02*
X2762Y1196D01*
X1373Y1195D02*
X1394Y1195D01*
X1419Y1195D02*
X1441Y1195D01*
X1673Y1195D02*
X1694Y1195D01*
X1719Y1195D02*
X1741Y1195D01*
X2352Y1195D02*
X2399Y1195D01*
X2415Y1195D02*
X2462Y1195D01*
X2652Y1195D02*
X2699Y1195D01*
X2715Y1195D02*
X2762Y1195D01*
X1373Y1194D02*
X1395Y1194D01*
X1419Y1194D02*
X1441Y1194D01*
X1673Y1194D02*
X1695Y1194D01*
X1719Y1194D02*
X1741Y1194D01*
X2352Y1194D02*
X2400Y1194D01*
X2413Y1194D02*
X2462Y1194D01*
X2652Y1194D02*
X2700Y1194D01*
X2713Y1194D02*
X2762Y1194D01*
X1373Y1193D02*
X1396Y1193D01*
X1418Y1193D02*
X1441Y1193D01*
X1673Y1193D02*
X1696Y1193D01*
X1718Y1193D02*
X1741Y1193D01*
X2352Y1193D02*
X2402Y1193D01*
X2411Y1193D02*
X2461Y1193D01*
X2652Y1193D02*
X2702Y1193D01*
X2711Y1193D02*
X2761Y1193D01*
X1373Y1192D02*
X1397Y1192D01*
X1417Y1192D02*
X1441Y1192D01*
X1673Y1192D02*
X1697Y1192D01*
X1717Y1192D02*
X1741Y1192D01*
X2353Y1192D02*
X2461Y1192D01*
X2653Y1192D02*
X2761Y1192D01*
X1373Y1191D02*
X1398Y1191D01*
X1415Y1191D02*
X1441Y1191D01*
X1673Y1191D02*
X1698Y1191D01*
X1715Y1191D02*
X1741Y1191D01*
X2353Y1191D02*
X2461Y1191D01*
X2653Y1191D02*
X2761Y1191D01*
X1373Y1190D02*
X1400Y1190D01*
X1414Y1190D02*
X1441Y1190D01*
X1673Y1190D02*
X1700Y1190D01*
X1714Y1190D02*
X1741Y1190D01*
X2353Y1190D02*
X2460Y1190D01*
X2653Y1190D02*
X2760Y1190D01*
X1373Y1189D02*
X1403Y1189D01*
X1411Y1189D02*
X1441Y1189D01*
X1673Y1189D02*
X1703Y1189D01*
X1711Y1189D02*
X1741Y1189D01*
X2354Y1189D02*
X2460Y1189D01*
X2654Y1189D02*
X2760Y1189D01*
X1373Y1188D02*
X1441Y1188D01*
X1673Y1188D02*
X1741Y1188D01*
X2354Y1188D02*
X2459Y1188D01*
X2654Y1188D02*
X2759Y1188D01*
X1373Y1187D02*
X1441Y1187D01*
X1673Y1187D02*
X1741Y1187D01*
X2355Y1187D02*
X2459Y1187D01*
X2655Y1187D02*
X2759Y1187D01*
X1373Y1186D02*
X1441Y1186D01*
X1673Y1186D02*
X1741Y1186D01*
X2356Y1186D02*
X2458Y1186D01*
X2656Y1186D02*
X2758Y1186D01*
X1373Y1185D02*
X1441Y1185D01*
X1673Y1185D02*
X1741Y1185D01*
X2356Y1185D02*
X2457Y1185D01*
X2656Y1185D02*
X2757Y1185D01*
X1373Y1184D02*
X1441Y1184D01*
X1673Y1184D02*
X1741Y1184D01*
X2357Y1184D02*
X2457Y1184D01*
X2657Y1184D02*
X2757Y1184D01*
X1373Y1183D02*
X1441Y1183D01*
X1673Y1183D02*
X1741Y1183D01*
X2358Y1183D02*
X2456Y1183D01*
X2658Y1183D02*
X2756Y1183D01*
X1373Y1182D02*
X1441Y1182D01*
X1673Y1182D02*
X1741Y1182D01*
X2359Y1182D02*
X2455Y1182D01*
X2659Y1182D02*
X2755Y1182D01*
X1373Y1181D02*
X1441Y1181D01*
X1673Y1181D02*
X1741Y1181D01*
X2360Y1181D02*
X2454Y1181D01*
X2660Y1181D02*
X2754Y1181D01*
X1373Y1180D02*
X1441Y1180D01*
X1673Y1180D02*
X1741Y1180D01*
X2361Y1180D02*
X2453Y1180D01*
X2661Y1180D02*
X2753Y1180D01*
X1373Y1179D02*
X1441Y1179D01*
X1673Y1179D02*
X1741Y1179D01*
X2362Y1179D02*
X2452Y1179D01*
X2662Y1179D02*
X2752Y1179D01*
X1373Y1178D02*
X1441Y1178D01*
X1673Y1178D02*
X1741Y1178D01*
X2363Y1178D02*
X2450Y1178D01*
X2663Y1178D02*
X2750Y1178D01*
X1373Y1177D02*
X1441Y1177D01*
X1673Y1177D02*
X1741Y1177D01*
X2365Y1177D02*
X2449Y1177D01*
X2665Y1177D02*
X2749Y1177D01*
X1373Y1176D02*
X1441Y1176D01*
X1673Y1176D02*
X1741Y1176D01*
X2367Y1176D02*
X2447Y1176D01*
X2667Y1176D02*
X2747Y1176D01*
X1373Y1175D02*
X1441Y1175D01*
X1673Y1175D02*
X1741Y1175D01*
X2369Y1175D02*
X2445Y1175D01*
X2669Y1175D02*
X2745Y1175D01*
X1373Y1174D02*
X1441Y1174D01*
X1673Y1174D02*
X1741Y1174D01*
X2371Y1174D02*
X2442Y1174D01*
X2671Y1174D02*
X2742Y1174D01*
X1373Y1173D02*
X1441Y1173D01*
X1673Y1173D02*
X1741Y1173D01*
X2375Y1173D02*
X2439Y1173D01*
X2675Y1173D02*
X2739Y1173D01*
X1373Y1172D02*
X1441Y1172D01*
X1673Y1172D02*
X1741Y1172D01*
X1373Y1171D02*
X1441Y1171D01*
X1673Y1171D02*
X1741Y1171D01*
X1373Y1170D02*
X1441Y1170D01*
X1673Y1170D02*
X1741Y1170D01*
X1373Y1169D02*
X1441Y1169D01*
X1673Y1169D02*
X1741Y1169D01*
X2378Y1134D02*
X2436Y1134D01*
X2678Y1134D02*
X2736Y1134D01*
X2373Y1133D02*
X2441Y1133D01*
X2673Y1133D02*
X2741Y1133D01*
X2370Y1132D02*
X2444Y1132D01*
X2670Y1132D02*
X2744Y1132D01*
X2368Y1131D02*
X2446Y1131D01*
X2668Y1131D02*
X2746Y1131D01*
X2366Y1130D02*
X2448Y1130D01*
X2666Y1130D02*
X2748Y1130D01*
X2364Y1129D02*
X2449Y1129D01*
X2664Y1129D02*
X2749Y1129D01*
X2363Y1128D02*
X2451Y1128D01*
X2663Y1128D02*
X2751Y1128D01*
X2361Y1127D02*
X2452Y1127D01*
X2661Y1127D02*
X2752Y1127D01*
X2360Y1126D02*
X2453Y1126D01*
X2660Y1126D02*
X2753Y1126D01*
X2359Y1125D02*
X2454Y1125D01*
X2659Y1125D02*
X2754Y1125D01*
X2358Y1124D02*
X2455Y1124D01*
X2658Y1124D02*
X2755Y1124D01*
X2357Y1123D02*
X2456Y1123D01*
X2657Y1123D02*
X2756Y1123D01*
X2357Y1122D02*
X2457Y1122D01*
X2657Y1122D02*
X2757Y1122D01*
X2356Y1121D02*
X2458Y1121D01*
X2656Y1121D02*
X2758Y1121D01*
X2355Y1120D02*
X2458Y1120D01*
X2655Y1120D02*
X2758Y1120D01*
X2355Y1119D02*
X2459Y1119D01*
X2655Y1119D02*
X2759Y1119D01*
X2354Y1118D02*
X2459Y1118D01*
X2654Y1118D02*
X2759Y1118D01*
X2354Y1117D02*
X2460Y1117D01*
X2654Y1117D02*
X2760Y1117D01*
X2353Y1116D02*
X2460Y1116D01*
X2653Y1116D02*
X2760Y1116D01*
X2353Y1115D02*
X2461Y1115D01*
X2653Y1115D02*
X2761Y1115D01*
X2352Y1114D02*
X2404Y1114D01*
X2410Y1114D02*
X2461Y1114D01*
X2652Y1114D02*
X2704Y1114D01*
X2710Y1114D02*
X2761Y1114D01*
X2352Y1113D02*
X2401Y1113D01*
X2412Y1113D02*
X2462Y1113D01*
X2652Y1113D02*
X2701Y1113D01*
X2712Y1113D02*
X2762Y1113D01*
X2352Y1112D02*
X2400Y1112D01*
X2414Y1112D02*
X2462Y1112D01*
X2652Y1112D02*
X2700Y1112D01*
X2714Y1112D02*
X2762Y1112D01*
X2351Y1111D02*
X2399Y1111D01*
X2415Y1111D02*
X2462Y1111D01*
X2651Y1111D02*
X2699Y1111D01*
X2715Y1111D02*
X2762Y1111D01*
X2351Y1110D02*
X2398Y1110D01*
X2416Y1110D02*
X2462Y1110D01*
X2651Y1110D02*
X2698Y1110D01*
X2716Y1110D02*
X2762Y1110D01*
X2351Y1109D02*
X2397Y1109D01*
X2417Y1109D02*
X2463Y1109D01*
X2651Y1109D02*
X2697Y1109D01*
X2717Y1109D02*
X2763Y1109D01*
X2351Y1108D02*
X2396Y1108D01*
X2417Y1108D02*
X2463Y1108D01*
X2651Y1108D02*
X2696Y1108D01*
X2717Y1108D02*
X2763Y1108D01*
X2351Y1107D02*
X2396Y1107D01*
X2418Y1107D02*
X2463Y1107D01*
X2651Y1107D02*
X2696Y1107D01*
X2718Y1107D02*
X2763Y1107D01*
X2350Y1106D02*
X2396Y1106D01*
X2418Y1106D02*
X2463Y1106D01*
X2650Y1106D02*
X2696Y1106D01*
X2718Y1106D02*
X2763Y1106D01*
X2350Y1105D02*
X2395Y1105D01*
X2418Y1105D02*
X2463Y1105D01*
X2650Y1105D02*
X2695Y1105D01*
X2718Y1105D02*
X2763Y1105D01*
X2350Y1104D02*
X2395Y1104D01*
X2418Y1104D02*
X2463Y1104D01*
X2650Y1104D02*
X2695Y1104D01*
X2718Y1104D02*
X2763Y1104D01*
X2350Y1103D02*
X2395Y1103D01*
X2418Y1103D02*
X2463Y1103D01*
X2650Y1103D02*
X2695Y1103D01*
X2718Y1103D02*
X2763Y1103D01*
X2350Y1102D02*
X2395Y1102D01*
X2418Y1102D02*
X2463Y1102D01*
X2650Y1102D02*
X2695Y1102D01*
X2718Y1102D02*
X2763Y1102D01*
X2350Y1101D02*
X2396Y1101D01*
X2418Y1101D02*
X2463Y1101D01*
X2650Y1101D02*
X2696Y1101D01*
X2718Y1101D02*
X2763Y1101D01*
X2350Y1100D02*
X2396Y1100D01*
X2418Y1100D02*
X2463Y1100D01*
X2650Y1100D02*
X2696Y1100D01*
X2718Y1100D02*
X2763Y1100D01*
X2351Y1099D02*
X2396Y1099D01*
X2418Y1099D02*
X2463Y1099D01*
X2651Y1099D02*
X2696Y1099D01*
X2718Y1099D02*
X2763Y1099D01*
X2351Y1098D02*
X2397Y1098D01*
X2417Y1098D02*
X2463Y1098D01*
X2651Y1098D02*
X2697Y1098D01*
X2717Y1098D02*
X2763Y1098D01*
X2351Y1097D02*
X2397Y1097D01*
X2416Y1097D02*
X2463Y1097D01*
X2651Y1097D02*
X2697Y1097D01*
X2716Y1097D02*
X2763Y1097D01*
X2351Y1096D02*
X2398Y1096D01*
X2416Y1096D02*
X2462Y1096D01*
X2651Y1096D02*
X2698Y1096D01*
X2716Y1096D02*
X2762Y1096D01*
X2352Y1095D02*
X2399Y1095D01*
X2415Y1095D02*
X2462Y1095D01*
X2652Y1095D02*
X2699Y1095D01*
X2715Y1095D02*
X2762Y1095D01*
X2352Y1094D02*
X2400Y1094D01*
X2413Y1094D02*
X2462Y1094D01*
X2652Y1094D02*
X2700Y1094D01*
X2713Y1094D02*
X2762Y1094D01*
X2352Y1093D02*
X2402Y1093D01*
X2411Y1093D02*
X2461Y1093D01*
X2652Y1093D02*
X2702Y1093D01*
X2711Y1093D02*
X2761Y1093D01*
X2353Y1092D02*
X2461Y1092D01*
X2653Y1092D02*
X2761Y1092D01*
X2353Y1091D02*
X2461Y1091D01*
X2653Y1091D02*
X2761Y1091D01*
X2353Y1090D02*
X2460Y1090D01*
X2653Y1090D02*
X2760Y1090D01*
X2354Y1089D02*
X2460Y1089D01*
X2654Y1089D02*
X2760Y1089D01*
X2354Y1088D02*
X2459Y1088D01*
X2654Y1088D02*
X2759Y1088D01*
X2355Y1087D02*
X2459Y1087D01*
X2655Y1087D02*
X2759Y1087D01*
X2356Y1086D02*
X2458Y1086D01*
X2656Y1086D02*
X2758Y1086D01*
X2356Y1085D02*
X2457Y1085D01*
X2656Y1085D02*
X2757Y1085D01*
X2357Y1084D02*
X2457Y1084D01*
X2657Y1084D02*
X2757Y1084D01*
X2358Y1083D02*
X2456Y1083D01*
X2658Y1083D02*
X2756Y1083D01*
X2359Y1082D02*
X2455Y1082D01*
X2659Y1082D02*
X2755Y1082D01*
X2360Y1081D02*
X2454Y1081D01*
X2660Y1081D02*
X2754Y1081D01*
X2361Y1080D02*
X2453Y1080D01*
X2661Y1080D02*
X2753Y1080D01*
X2362Y1079D02*
X2452Y1079D01*
X2662Y1079D02*
X2752Y1079D01*
X2363Y1078D02*
X2450Y1078D01*
X2663Y1078D02*
X2750Y1078D01*
X2365Y1077D02*
X2449Y1077D01*
X2665Y1077D02*
X2749Y1077D01*
X2367Y1076D02*
X2447Y1076D01*
X2667Y1076D02*
X2747Y1076D01*
X2369Y1075D02*
X2445Y1075D01*
X2669Y1075D02*
X2745Y1075D01*
X2371Y1074D02*
X2442Y1074D01*
X2671Y1074D02*
X2742Y1074D01*
X2375Y1073D02*
X2439Y1073D01*
X2675Y1073D02*
X2739Y1073D01*
X1373Y1037D02*
X1441Y1037D01*
X1673Y1037D02*
X1741Y1037D01*
X1373Y1036D02*
X1441Y1036D01*
X1673Y1036D02*
X1741Y1036D01*
X1373Y1035D02*
X1441Y1035D01*
X1673Y1035D02*
X1741Y1035D01*
X1373Y1034D02*
X1441Y1034D01*
X1673Y1034D02*
X1741Y1034D01*
X1373Y1033D02*
X1441Y1033D01*
X1673Y1033D02*
X1741Y1033D01*
X1373Y1032D02*
X1441Y1032D01*
X1673Y1032D02*
X1741Y1032D01*
X1373Y1031D02*
X1441Y1031D01*
X1673Y1031D02*
X1741Y1031D01*
X1373Y1030D02*
X1441Y1030D01*
X1673Y1030D02*
X1741Y1030D01*
X1373Y1029D02*
X1441Y1029D01*
X1673Y1029D02*
X1741Y1029D01*
X1373Y1028D02*
X1441Y1028D01*
X1673Y1028D02*
X1741Y1028D01*
X1373Y1027D02*
X1441Y1027D01*
X1673Y1027D02*
X1741Y1027D01*
X1373Y1026D02*
X1441Y1026D01*
X1673Y1026D02*
X1741Y1026D01*
X1373Y1025D02*
X1441Y1025D01*
X1673Y1025D02*
X1741Y1025D01*
X1373Y1024D02*
X1441Y1024D01*
X1673Y1024D02*
X1741Y1024D01*
X1373Y1023D02*
X1441Y1023D01*
X1673Y1023D02*
X1741Y1023D01*
X1373Y1022D02*
X1441Y1022D01*
X1673Y1022D02*
X1741Y1022D01*
X1373Y1021D02*
X1441Y1021D01*
X1673Y1021D02*
X1741Y1021D01*
X1373Y1020D02*
X1441Y1020D01*
X1673Y1020D02*
X1741Y1020D01*
X1373Y1019D02*
X1441Y1019D01*
X1673Y1019D02*
X1741Y1019D01*
X1373Y1018D02*
X1441Y1018D01*
X1673Y1018D02*
X1741Y1018D01*
X1373Y1017D02*
X1401Y1017D01*
X1413Y1017D02*
X1441Y1017D01*
X1673Y1017D02*
X1701Y1017D01*
X1713Y1017D02*
X1741Y1017D01*
X1373Y1016D02*
X1399Y1016D01*
X1415Y1016D02*
X1441Y1016D01*
X1673Y1016D02*
X1699Y1016D01*
X1715Y1016D02*
X1741Y1016D01*
X1373Y1015D02*
X1398Y1015D01*
X1416Y1015D02*
X1441Y1015D01*
X1673Y1015D02*
X1698Y1015D01*
X1716Y1015D02*
X1741Y1015D01*
X1373Y1014D02*
X1396Y1014D01*
X1417Y1014D02*
X1441Y1014D01*
X1673Y1014D02*
X1696Y1014D01*
X1717Y1014D02*
X1741Y1014D01*
X1373Y1013D02*
X1395Y1013D01*
X1418Y1013D02*
X1441Y1013D01*
X1673Y1013D02*
X1695Y1013D01*
X1718Y1013D02*
X1741Y1013D01*
X1373Y1012D02*
X1395Y1012D01*
X1419Y1012D02*
X1441Y1012D01*
X1673Y1012D02*
X1695Y1012D01*
X1719Y1012D02*
X1741Y1012D01*
X1373Y1011D02*
X1394Y1011D01*
X1420Y1011D02*
X1441Y1011D01*
X1673Y1011D02*
X1694Y1011D01*
X1720Y1011D02*
X1741Y1011D01*
X1373Y1010D02*
X1393Y1010D01*
X1420Y1010D02*
X1441Y1010D01*
X1673Y1010D02*
X1693Y1010D01*
X1720Y1010D02*
X1741Y1010D01*
X1373Y1009D02*
X1393Y1009D01*
X1421Y1009D02*
X1441Y1009D01*
X1673Y1009D02*
X1693Y1009D01*
X1721Y1009D02*
X1741Y1009D01*
X1373Y1008D02*
X1392Y1008D01*
X1421Y1008D02*
X1441Y1008D01*
X1673Y1008D02*
X1692Y1008D01*
X1721Y1008D02*
X1741Y1008D01*
X1373Y1007D02*
X1392Y1007D01*
X1422Y1007D02*
X1441Y1007D01*
X1673Y1007D02*
X1692Y1007D01*
X1722Y1007D02*
X1741Y1007D01*
X1373Y1006D02*
X1392Y1006D01*
X1422Y1006D02*
X1441Y1006D01*
X1673Y1006D02*
X1692Y1006D01*
X1722Y1006D02*
X1741Y1006D01*
X1373Y1005D02*
X1392Y1005D01*
X1422Y1005D02*
X1441Y1005D01*
X1673Y1005D02*
X1692Y1005D01*
X1722Y1005D02*
X1741Y1005D01*
X1373Y1004D02*
X1392Y1004D01*
X1422Y1004D02*
X1441Y1004D01*
X1673Y1004D02*
X1692Y1004D01*
X1722Y1004D02*
X1741Y1004D01*
X1373Y1003D02*
X1392Y1003D01*
X1422Y1003D02*
X1441Y1003D01*
X1673Y1003D02*
X1692Y1003D01*
X1722Y1003D02*
X1741Y1003D01*
X1373Y1002D02*
X1392Y1002D01*
X1422Y1002D02*
X1441Y1002D01*
X1673Y1002D02*
X1692Y1002D01*
X1722Y1002D02*
X1741Y1002D01*
X1373Y1001D02*
X1392Y1001D01*
X1422Y1001D02*
X1441Y1001D01*
X1673Y1001D02*
X1692Y1001D01*
X1722Y1001D02*
X1741Y1001D01*
X1373Y1000D02*
X1392Y1000D01*
X1422Y1000D02*
X1441Y1000D01*
X1673Y1000D02*
X1692Y1000D01*
X1722Y1000D02*
X1741Y1000D01*
X1373Y999D02*
X1392Y999D01*
X1421Y999D02*
X1441Y999D01*
X1673Y999D02*
X1692Y999D01*
X1721Y999D02*
X1741Y999D01*
X1373Y998D02*
X1393Y998D01*
X1421Y998D02*
X1441Y998D01*
X1673Y998D02*
X1693Y998D01*
X1721Y998D02*
X1741Y998D01*
X1373Y997D02*
X1393Y997D01*
X1421Y997D02*
X1441Y997D01*
X1673Y997D02*
X1693Y997D01*
X1721Y997D02*
X1741Y997D01*
X1373Y996D02*
X1394Y996D01*
X1420Y996D02*
X1441Y996D01*
X1673Y996D02*
X1694Y996D01*
X1720Y996D02*
X1741Y996D01*
X1373Y995D02*
X1394Y995D01*
X1419Y995D02*
X1441Y995D01*
X1673Y995D02*
X1694Y995D01*
X1719Y995D02*
X1741Y995D01*
X1373Y994D02*
X1395Y994D01*
X1419Y994D02*
X1441Y994D01*
X1673Y994D02*
X1695Y994D01*
X1719Y994D02*
X1741Y994D01*
X1373Y993D02*
X1396Y993D01*
X1418Y993D02*
X1441Y993D01*
X1673Y993D02*
X1696Y993D01*
X1718Y993D02*
X1741Y993D01*
X1373Y992D02*
X1397Y992D01*
X1417Y992D02*
X1441Y992D01*
X1673Y992D02*
X1697Y992D01*
X1717Y992D02*
X1741Y992D01*
X1373Y991D02*
X1398Y991D01*
X1415Y991D02*
X1441Y991D01*
X1673Y991D02*
X1698Y991D01*
X1715Y991D02*
X1741Y991D01*
X1373Y990D02*
X1400Y990D01*
X1414Y990D02*
X1441Y990D01*
X1673Y990D02*
X1700Y990D01*
X1714Y990D02*
X1741Y990D01*
X1373Y989D02*
X1403Y989D01*
X1411Y989D02*
X1441Y989D01*
X1673Y989D02*
X1703Y989D01*
X1711Y989D02*
X1741Y989D01*
X1373Y988D02*
X1441Y988D01*
X1673Y988D02*
X1741Y988D01*
X1373Y987D02*
X1441Y987D01*
X1673Y987D02*
X1741Y987D01*
X1373Y986D02*
X1441Y986D01*
X1673Y986D02*
X1741Y986D01*
X1373Y985D02*
X1441Y985D01*
X1673Y985D02*
X1741Y985D01*
X1373Y984D02*
X1441Y984D01*
X1673Y984D02*
X1741Y984D01*
X1373Y983D02*
X1441Y983D01*
X1673Y983D02*
X1741Y983D01*
X1373Y982D02*
X1441Y982D01*
X1673Y982D02*
X1741Y982D01*
X1373Y981D02*
X1441Y981D01*
X1673Y981D02*
X1741Y981D01*
X1373Y980D02*
X1441Y980D01*
X1673Y980D02*
X1741Y980D01*
X1373Y979D02*
X1441Y979D01*
X1673Y979D02*
X1741Y979D01*
X1373Y978D02*
X1441Y978D01*
X1673Y978D02*
X1741Y978D01*
X1373Y977D02*
X1441Y977D01*
X1673Y977D02*
X1741Y977D01*
X1373Y976D02*
X1441Y976D01*
X1673Y976D02*
X1741Y976D01*
X1373Y975D02*
X1441Y975D01*
X1673Y975D02*
X1741Y975D01*
X1373Y974D02*
X1441Y974D01*
X1673Y974D02*
X1741Y974D01*
X1373Y973D02*
X1441Y973D01*
X1673Y973D02*
X1741Y973D01*
X1373Y972D02*
X1441Y972D01*
X1673Y972D02*
X1741Y972D01*
X1373Y971D02*
X1441Y971D01*
X1673Y971D02*
X1741Y971D01*
X1373Y970D02*
X1441Y970D01*
X1673Y970D02*
X1741Y970D01*
X1373Y969D02*
X1441Y969D01*
X1673Y969D02*
X1741Y969D01*
X1273Y537D02*
X1341Y537D01*
X1573Y537D02*
X1641Y537D01*
X2473Y537D02*
X2541Y537D01*
X2773Y537D02*
X2841Y537D01*
X1273Y536D02*
X1341Y536D01*
X1573Y536D02*
X1641Y536D01*
X2473Y536D02*
X2541Y536D01*
X2773Y536D02*
X2841Y536D01*
X1273Y535D02*
X1341Y535D01*
X1573Y535D02*
X1641Y535D01*
X2473Y535D02*
X2541Y535D01*
X2773Y535D02*
X2841Y535D01*
X1273Y534D02*
X1341Y534D01*
X1573Y534D02*
X1641Y534D01*
X2473Y534D02*
X2541Y534D01*
X2773Y534D02*
X2841Y534D01*
X1273Y533D02*
X1341Y533D01*
X1573Y533D02*
X1641Y533D01*
X2473Y533D02*
X2541Y533D01*
X2773Y533D02*
X2841Y533D01*
X1273Y532D02*
X1341Y532D01*
X1573Y532D02*
X1641Y532D01*
X2473Y532D02*
X2541Y532D01*
X2773Y532D02*
X2841Y532D01*
X1273Y531D02*
X1341Y531D01*
X1573Y531D02*
X1641Y531D01*
X2473Y531D02*
X2541Y531D01*
X2773Y531D02*
X2841Y531D01*
X1273Y530D02*
X1341Y530D01*
X1573Y530D02*
X1641Y530D01*
X2473Y530D02*
X2541Y530D01*
X2773Y530D02*
X2841Y530D01*
X1273Y529D02*
X1341Y529D01*
X1573Y529D02*
X1641Y529D01*
X2473Y529D02*
X2541Y529D01*
X2773Y529D02*
X2841Y529D01*
X1273Y528D02*
X1341Y528D01*
X1573Y528D02*
X1641Y528D01*
X2473Y528D02*
X2541Y528D01*
X2773Y528D02*
X2841Y528D01*
X1273Y527D02*
X1341Y527D01*
X1573Y527D02*
X1641Y527D01*
X2473Y527D02*
X2541Y527D01*
X2773Y527D02*
X2841Y527D01*
X1273Y526D02*
X1341Y526D01*
X1573Y526D02*
X1641Y526D01*
X2473Y526D02*
X2541Y526D01*
X2773Y526D02*
X2841Y526D01*
X1273Y525D02*
X1341Y525D01*
X1573Y525D02*
X1641Y525D01*
X2473Y525D02*
X2541Y525D01*
X2773Y525D02*
X2841Y525D01*
X1273Y524D02*
X1341Y524D01*
X1573Y524D02*
X1641Y524D01*
X2473Y524D02*
X2541Y524D01*
X2773Y524D02*
X2841Y524D01*
X1273Y523D02*
X1341Y523D01*
X1573Y523D02*
X1641Y523D01*
X2473Y523D02*
X2541Y523D01*
X2773Y523D02*
X2841Y523D01*
X1273Y522D02*
X1341Y522D01*
X1573Y522D02*
X1641Y522D01*
X2473Y522D02*
X2541Y522D01*
X2773Y522D02*
X2841Y522D01*
X1273Y521D02*
X1341Y521D01*
X1573Y521D02*
X1641Y521D01*
X2473Y521D02*
X2541Y521D01*
X2773Y521D02*
X2841Y521D01*
X1273Y520D02*
X1341Y520D01*
X1573Y520D02*
X1641Y520D01*
X2473Y520D02*
X2541Y520D01*
X2773Y520D02*
X2841Y520D01*
X1273Y519D02*
X1341Y519D01*
X1573Y519D02*
X1641Y519D01*
X2473Y519D02*
X2541Y519D01*
X2773Y519D02*
X2841Y519D01*
X1273Y518D02*
X1341Y518D01*
X1573Y518D02*
X1641Y518D01*
X2473Y518D02*
X2541Y518D01*
X2773Y518D02*
X2841Y518D01*
X1273Y517D02*
X1301Y517D01*
X1313Y517D02*
X1341Y517D01*
X1573Y517D02*
X1601Y517D01*
X1613Y517D02*
X1641Y517D01*
X2473Y517D02*
X2501Y517D01*
X2513Y517D02*
X2541Y517D01*
X2773Y517D02*
X2801Y517D01*
X2813Y517D02*
X2841Y517D01*
X1273Y516D02*
X1299Y516D01*
X1315Y516D02*
X1341Y516D01*
X1573Y516D02*
X1599Y516D01*
X1615Y516D02*
X1641Y516D01*
X2473Y516D02*
X2499Y516D01*
X2515Y516D02*
X2541Y516D01*
X2773Y516D02*
X2799Y516D01*
X2815Y516D02*
X2841Y516D01*
X1273Y515D02*
X1298Y515D01*
X1316Y515D02*
X1341Y515D01*
X1573Y515D02*
X1598Y515D01*
X1616Y515D02*
X1641Y515D01*
X2473Y515D02*
X2498Y515D01*
X2516Y515D02*
X2541Y515D01*
X2773Y515D02*
X2798Y515D01*
X2816Y515D02*
X2841Y515D01*
X1273Y514D02*
X1296Y514D01*
X1317Y514D02*
X1341Y514D01*
X1573Y514D02*
X1596Y514D01*
X1617Y514D02*
X1641Y514D01*
X2473Y514D02*
X2496Y514D01*
X2517Y514D02*
X2541Y514D01*
X2773Y514D02*
X2796Y514D01*
X2817Y514D02*
X2841Y514D01*
X1273Y513D02*
X1295Y513D01*
X1318Y513D02*
X1341Y513D01*
X1573Y513D02*
X1595Y513D01*
X1618Y513D02*
X1641Y513D01*
X2473Y513D02*
X2495Y513D01*
X2518Y513D02*
X2541Y513D01*
X2773Y513D02*
X2795Y513D01*
X2818Y513D02*
X2841Y513D01*
X1273Y512D02*
X1295Y512D01*
X1319Y512D02*
X1341Y512D01*
X1573Y512D02*
X1595Y512D01*
X1619Y512D02*
X1641Y512D01*
X2473Y512D02*
X2495Y512D01*
X2519Y512D02*
X2541Y512D01*
X2773Y512D02*
X2795Y512D01*
X2819Y512D02*
X2841Y512D01*
X1273Y511D02*
X1294Y511D01*
X1320Y511D02*
X1341Y511D01*
X1573Y511D02*
X1594Y511D01*
X1620Y511D02*
X1641Y511D01*
X2473Y511D02*
X2494Y511D01*
X2520Y511D02*
X2541Y511D01*
X2773Y511D02*
X2794Y511D01*
X2820Y511D02*
X2841Y511D01*
X1273Y510D02*
X1293Y510D01*
X1320Y510D02*
X1341Y510D01*
X1573Y510D02*
X1593Y510D01*
X1620Y510D02*
X1641Y510D01*
X2473Y510D02*
X2493Y510D01*
X2520Y510D02*
X2541Y510D01*
X2773Y510D02*
X2793Y510D01*
X2820Y510D02*
X2841Y510D01*
X1273Y509D02*
X1293Y509D01*
X1321Y509D02*
X1341Y509D01*
X1573Y509D02*
X1593Y509D01*
X1621Y509D02*
X1641Y509D01*
X2473Y509D02*
X2493Y509D01*
X2521Y509D02*
X2541Y509D01*
X2773Y509D02*
X2793Y509D01*
X2821Y509D02*
X2841Y509D01*
X1273Y508D02*
X1292Y508D01*
X1321Y508D02*
X1341Y508D01*
X1573Y508D02*
X1592Y508D01*
X1621Y508D02*
X1641Y508D01*
X2473Y508D02*
X2492Y508D01*
X2521Y508D02*
X2541Y508D01*
X2773Y508D02*
X2792Y508D01*
X2821Y508D02*
X2841Y508D01*
X1273Y507D02*
X1292Y507D01*
X1322Y507D02*
X1341Y507D01*
X1573Y507D02*
X1592Y507D01*
X1622Y507D02*
X1641Y507D01*
X2473Y507D02*
X2492Y507D01*
X2522Y507D02*
X2541Y507D01*
X2773Y507D02*
X2792Y507D01*
X2822Y507D02*
X2841Y507D01*
X1273Y506D02*
X1292Y506D01*
X1322Y506D02*
X1341Y506D01*
X1573Y506D02*
X1592Y506D01*
X1622Y506D02*
X1641Y506D01*
X2473Y506D02*
X2492Y506D01*
X2522Y506D02*
X2541Y506D01*
X2773Y506D02*
X2792Y506D01*
X2822Y506D02*
X2841Y506D01*
X1273Y505D02*
X1292Y505D01*
X1322Y505D02*
X1341Y505D01*
X1573Y505D02*
X1592Y505D01*
X1622Y505D02*
X1641Y505D01*
X2473Y505D02*
X2492Y505D01*
X2522Y505D02*
X2541Y505D01*
X2773Y505D02*
X2792Y505D01*
X2822Y505D02*
X2841Y505D01*
X1273Y504D02*
X1292Y504D01*
X1322Y504D02*
X1341Y504D01*
X1573Y504D02*
X1592Y504D01*
X1622Y504D02*
X1641Y504D01*
X2473Y504D02*
X2492Y504D01*
X2522Y504D02*
X2541Y504D01*
X2773Y504D02*
X2792Y504D01*
X2822Y504D02*
X2841Y504D01*
X1273Y503D02*
X1292Y503D01*
X1322Y503D02*
X1341Y503D01*
X1573Y503D02*
X1592Y503D01*
X1622Y503D02*
X1641Y503D01*
X2473Y503D02*
X2492Y503D01*
X2522Y503D02*
X2541Y503D01*
X2773Y503D02*
X2792Y503D01*
X2822Y503D02*
X2841Y503D01*
X1273Y502D02*
X1292Y502D01*
X1322Y502D02*
X1341Y502D01*
X1573Y502D02*
X1592Y502D01*
X1622Y502D02*
X1641Y502D01*
X2473Y502D02*
X2492Y502D01*
X2522Y502D02*
X2541Y502D01*
X2773Y502D02*
X2792Y502D01*
X2822Y502D02*
X2841Y502D01*
X1273Y501D02*
X1292Y501D01*
X1322Y501D02*
X1341Y501D01*
X1573Y501D02*
X1592Y501D01*
X1622Y501D02*
X1641Y501D01*
X2473Y501D02*
X2492Y501D01*
X2522Y501D02*
X2541Y501D01*
X2773Y501D02*
X2792Y501D01*
X2822Y501D02*
X2841Y501D01*
X1273Y500D02*
X1292Y500D01*
X1322Y500D02*
X1341Y500D01*
X1573Y500D02*
X1592Y500D01*
X1622Y500D02*
X1641Y500D01*
X2473Y500D02*
X2492Y500D01*
X2522Y500D02*
X2541Y500D01*
X2773Y500D02*
X2792Y500D01*
X2822Y500D02*
X2841Y500D01*
X1273Y499D02*
X1292Y499D01*
X1321Y499D02*
X1341Y499D01*
X1573Y499D02*
X1592Y499D01*
X1621Y499D02*
X1641Y499D01*
X2473Y499D02*
X2492Y499D01*
X2521Y499D02*
X2541Y499D01*
X2773Y499D02*
X2792Y499D01*
X2821Y499D02*
X2841Y499D01*
X1273Y498D02*
X1293Y498D01*
X1321Y498D02*
X1341Y498D01*
X1573Y498D02*
X1593Y498D01*
X1621Y498D02*
X1641Y498D01*
X2473Y498D02*
X2493Y498D01*
X2521Y498D02*
X2541Y498D01*
X2773Y498D02*
X2793Y498D01*
X2821Y498D02*
X2841Y498D01*
X1273Y497D02*
X1293Y497D01*
X1321Y497D02*
X1341Y497D01*
X1573Y497D02*
X1593Y497D01*
X1621Y497D02*
X1641Y497D01*
X2473Y497D02*
X2493Y497D01*
X2521Y497D02*
X2541Y497D01*
X2773Y497D02*
X2793Y497D01*
X2821Y497D02*
X2841Y497D01*
X1273Y496D02*
X1294Y496D01*
X1320Y496D02*
X1341Y496D01*
X1573Y496D02*
X1594Y496D01*
X1620Y496D02*
X1641Y496D01*
X2473Y496D02*
X2494Y496D01*
X2520Y496D02*
X2541Y496D01*
X2773Y496D02*
X2794Y496D01*
X2820Y496D02*
X2841Y496D01*
X1273Y495D02*
X1294Y495D01*
X1319Y495D02*
X1341Y495D01*
X1573Y495D02*
X1594Y495D01*
X1619Y495D02*
X1641Y495D01*
X2473Y495D02*
X2494Y495D01*
X2519Y495D02*
X2541Y495D01*
X2773Y495D02*
X2794Y495D01*
X2819Y495D02*
X2841Y495D01*
X1273Y494D02*
X1295Y494D01*
X1319Y494D02*
X1341Y494D01*
X1573Y494D02*
X1595Y494D01*
X1619Y494D02*
X1641Y494D01*
X2473Y494D02*
X2495Y494D01*
X2519Y494D02*
X2541Y494D01*
X2773Y494D02*
X2795Y494D01*
X2819Y494D02*
X2841Y494D01*
X1273Y493D02*
X1296Y493D01*
X1318Y493D02*
X1341Y493D01*
X1573Y493D02*
X1596Y493D01*
X1618Y493D02*
X1641Y493D01*
X2473Y493D02*
X2496Y493D01*
X2518Y493D02*
X2541Y493D01*
X2773Y493D02*
X2796Y493D01*
X2818Y493D02*
X2841Y493D01*
X1273Y492D02*
X1297Y492D01*
X1317Y492D02*
X1341Y492D01*
X1573Y492D02*
X1597Y492D01*
X1617Y492D02*
X1641Y492D01*
X2473Y492D02*
X2497Y492D01*
X2517Y492D02*
X2541Y492D01*
X2773Y492D02*
X2797Y492D01*
X2817Y492D02*
X2841Y492D01*
X1273Y491D02*
X1298Y491D01*
X1315Y491D02*
X1341Y491D01*
X1573Y491D02*
X1598Y491D01*
X1615Y491D02*
X1641Y491D01*
X2473Y491D02*
X2498Y491D01*
X2515Y491D02*
X2541Y491D01*
X2773Y491D02*
X2798Y491D01*
X2815Y491D02*
X2841Y491D01*
X1273Y490D02*
X1300Y490D01*
X1314Y490D02*
X1341Y490D01*
X1573Y490D02*
X1600Y490D01*
X1614Y490D02*
X1641Y490D01*
X2473Y490D02*
X2500Y490D01*
X2514Y490D02*
X2541Y490D01*
X2773Y490D02*
X2800Y490D01*
X2814Y490D02*
X2841Y490D01*
X1273Y489D02*
X1303Y489D01*
X1311Y489D02*
X1341Y489D01*
X1573Y489D02*
X1603Y489D01*
X1611Y489D02*
X1641Y489D01*
X2473Y489D02*
X2503Y489D01*
X2511Y489D02*
X2541Y489D01*
X2773Y489D02*
X2803Y489D01*
X2811Y489D02*
X2841Y489D01*
X1273Y488D02*
X1341Y488D01*
X1573Y488D02*
X1641Y488D01*
X2473Y488D02*
X2541Y488D01*
X2773Y488D02*
X2841Y488D01*
X1273Y487D02*
X1341Y487D01*
X1573Y487D02*
X1641Y487D01*
X2473Y487D02*
X2541Y487D01*
X2773Y487D02*
X2841Y487D01*
X1273Y486D02*
X1341Y486D01*
X1573Y486D02*
X1641Y486D01*
X2473Y486D02*
X2541Y486D01*
X2773Y486D02*
X2841Y486D01*
X1273Y485D02*
X1341Y485D01*
X1573Y485D02*
X1641Y485D01*
X2473Y485D02*
X2541Y485D01*
X2773Y485D02*
X2841Y485D01*
X1273Y484D02*
X1341Y484D01*
X1573Y484D02*
X1641Y484D01*
X2473Y484D02*
X2541Y484D01*
X2773Y484D02*
X2841Y484D01*
X1273Y483D02*
X1341Y483D01*
X1573Y483D02*
X1641Y483D01*
X2473Y483D02*
X2541Y483D01*
X2773Y483D02*
X2841Y483D01*
X1273Y482D02*
X1341Y482D01*
X1573Y482D02*
X1641Y482D01*
X2473Y482D02*
X2541Y482D01*
X2773Y482D02*
X2841Y482D01*
X1273Y481D02*
X1341Y481D01*
X1573Y481D02*
X1641Y481D01*
X2473Y481D02*
X2541Y481D01*
X2773Y481D02*
X2841Y481D01*
X1273Y480D02*
X1341Y480D01*
X1573Y480D02*
X1641Y480D01*
X2473Y480D02*
X2541Y480D01*
X2773Y480D02*
X2841Y480D01*
X1273Y479D02*
X1341Y479D01*
X1573Y479D02*
X1641Y479D01*
X2473Y479D02*
X2541Y479D01*
X2773Y479D02*
X2841Y479D01*
X1273Y478D02*
X1341Y478D01*
X1573Y478D02*
X1641Y478D01*
X2473Y478D02*
X2541Y478D01*
X2773Y478D02*
X2841Y478D01*
X1273Y477D02*
X1341Y477D01*
X1573Y477D02*
X1641Y477D01*
X2473Y477D02*
X2541Y477D01*
X2773Y477D02*
X2841Y477D01*
X1273Y476D02*
X1341Y476D01*
X1573Y476D02*
X1641Y476D01*
X2473Y476D02*
X2541Y476D01*
X2773Y476D02*
X2841Y476D01*
X1273Y475D02*
X1341Y475D01*
X1573Y475D02*
X1641Y475D01*
X2473Y475D02*
X2541Y475D01*
X2773Y475D02*
X2841Y475D01*
X1273Y474D02*
X1341Y474D01*
X1573Y474D02*
X1641Y474D01*
X2473Y474D02*
X2541Y474D01*
X2773Y474D02*
X2841Y474D01*
X1273Y473D02*
X1341Y473D01*
X1573Y473D02*
X1641Y473D01*
X2473Y473D02*
X2541Y473D01*
X2773Y473D02*
X2841Y473D01*
X1273Y472D02*
X1341Y472D01*
X1573Y472D02*
X1641Y472D01*
X2473Y472D02*
X2541Y472D01*
X2773Y472D02*
X2841Y472D01*
X1273Y471D02*
X1341Y471D01*
X1573Y471D02*
X1641Y471D01*
X2473Y471D02*
X2541Y471D01*
X2773Y471D02*
X2841Y471D01*
X1273Y470D02*
X1341Y470D01*
X1573Y470D02*
X1641Y470D01*
X2473Y470D02*
X2541Y470D01*
X2773Y470D02*
X2841Y470D01*
X1273Y469D02*
X1341Y469D01*
X1573Y469D02*
X1641Y469D01*
X2473Y469D02*
X2541Y469D01*
X2773Y469D02*
X2841Y469D01*
X1273Y337D02*
X1341Y337D01*
X1573Y337D02*
X1641Y337D01*
X2473Y337D02*
X2541Y337D01*
X2773Y337D02*
X2841Y337D01*
X1273Y336D02*
X1341Y336D01*
X1573Y336D02*
X1641Y336D01*
X2473Y336D02*
X2541Y336D01*
X2773Y336D02*
X2841Y336D01*
X1273Y335D02*
X1341Y335D01*
X1573Y335D02*
X1641Y335D01*
X2473Y335D02*
X2541Y335D01*
X2773Y335D02*
X2841Y335D01*
X1273Y334D02*
X1341Y334D01*
X1573Y334D02*
X1641Y334D01*
X2473Y334D02*
X2541Y334D01*
X2773Y334D02*
X2841Y334D01*
X1273Y333D02*
X1341Y333D01*
X1573Y333D02*
X1641Y333D01*
X2473Y333D02*
X2541Y333D01*
X2773Y333D02*
X2841Y333D01*
X1273Y332D02*
X1341Y332D01*
X1573Y332D02*
X1641Y332D01*
X2473Y332D02*
X2541Y332D01*
X2773Y332D02*
X2841Y332D01*
X1273Y331D02*
X1341Y331D01*
X1573Y331D02*
X1641Y331D01*
X2473Y331D02*
X2541Y331D01*
X2773Y331D02*
X2841Y331D01*
X1273Y330D02*
X1341Y330D01*
X1573Y330D02*
X1641Y330D01*
X2473Y330D02*
X2541Y330D01*
X2773Y330D02*
X2841Y330D01*
X1273Y329D02*
X1341Y329D01*
X1573Y329D02*
X1641Y329D01*
X2473Y329D02*
X2541Y329D01*
X2773Y329D02*
X2841Y329D01*
X1273Y328D02*
X1341Y328D01*
X1573Y328D02*
X1641Y328D01*
X2473Y328D02*
X2541Y328D01*
X2773Y328D02*
X2841Y328D01*
X1273Y327D02*
X1341Y327D01*
X1573Y327D02*
X1641Y327D01*
X2473Y327D02*
X2541Y327D01*
X2773Y327D02*
X2841Y327D01*
X1273Y326D02*
X1341Y326D01*
X1573Y326D02*
X1641Y326D01*
X2473Y326D02*
X2541Y326D01*
X2773Y326D02*
X2841Y326D01*
X1273Y325D02*
X1341Y325D01*
X1573Y325D02*
X1641Y325D01*
X2473Y325D02*
X2541Y325D01*
X2773Y325D02*
X2841Y325D01*
X1273Y324D02*
X1341Y324D01*
X1573Y324D02*
X1641Y324D01*
X2473Y324D02*
X2541Y324D01*
X2773Y324D02*
X2841Y324D01*
X1273Y323D02*
X1341Y323D01*
X1573Y323D02*
X1641Y323D01*
X2473Y323D02*
X2541Y323D01*
X2773Y323D02*
X2841Y323D01*
X1273Y322D02*
X1341Y322D01*
X1573Y322D02*
X1641Y322D01*
X2473Y322D02*
X2541Y322D01*
X2773Y322D02*
X2841Y322D01*
X1273Y321D02*
X1341Y321D01*
X1573Y321D02*
X1641Y321D01*
X2473Y321D02*
X2541Y321D01*
X2773Y321D02*
X2841Y321D01*
X1273Y320D02*
X1341Y320D01*
X1573Y320D02*
X1641Y320D01*
X2473Y320D02*
X2541Y320D01*
X2773Y320D02*
X2841Y320D01*
X1273Y319D02*
X1341Y319D01*
X1573Y319D02*
X1641Y319D01*
X2473Y319D02*
X2541Y319D01*
X2773Y319D02*
X2841Y319D01*
X1273Y318D02*
X1341Y318D01*
X1573Y318D02*
X1641Y318D01*
X2473Y318D02*
X2541Y318D01*
X2773Y318D02*
X2841Y318D01*
X1273Y317D02*
X1301Y317D01*
X1313Y317D02*
X1341Y317D01*
X1573Y317D02*
X1601Y317D01*
X1613Y317D02*
X1641Y317D01*
X2473Y317D02*
X2501Y317D01*
X2513Y317D02*
X2541Y317D01*
X2773Y317D02*
X2801Y317D01*
X2813Y317D02*
X2841Y317D01*
X1273Y316D02*
X1299Y316D01*
X1315Y316D02*
X1341Y316D01*
X1573Y316D02*
X1599Y316D01*
X1615Y316D02*
X1641Y316D01*
X2473Y316D02*
X2499Y316D01*
X2515Y316D02*
X2541Y316D01*
X2773Y316D02*
X2799Y316D01*
X2815Y316D02*
X2841Y316D01*
X1273Y315D02*
X1298Y315D01*
X1316Y315D02*
X1341Y315D01*
X1573Y315D02*
X1598Y315D01*
X1616Y315D02*
X1641Y315D01*
X2473Y315D02*
X2498Y315D01*
X2516Y315D02*
X2541Y315D01*
X2773Y315D02*
X2798Y315D01*
X2816Y315D02*
X2841Y315D01*
X1273Y314D02*
X1296Y314D01*
X1317Y314D02*
X1341Y314D01*
X1573Y314D02*
X1596Y314D01*
X1617Y314D02*
X1641Y314D01*
X2473Y314D02*
X2496Y314D01*
X2517Y314D02*
X2541Y314D01*
X2773Y314D02*
X2796Y314D01*
X2817Y314D02*
X2841Y314D01*
X1273Y313D02*
X1295Y313D01*
X1318Y313D02*
X1341Y313D01*
X1573Y313D02*
X1595Y313D01*
X1618Y313D02*
X1641Y313D01*
X2473Y313D02*
X2495Y313D01*
X2518Y313D02*
X2541Y313D01*
X2773Y313D02*
X2795Y313D01*
X2818Y313D02*
X2841Y313D01*
X1273Y312D02*
X1295Y312D01*
X1319Y312D02*
X1341Y312D01*
X1573Y312D02*
X1595Y312D01*
X1619Y312D02*
X1641Y312D01*
X2473Y312D02*
X2495Y312D01*
X2519Y312D02*
X2541Y312D01*
X2773Y312D02*
X2795Y312D01*
X2819Y312D02*
X2841Y312D01*
X1273Y311D02*
X1294Y311D01*
X1320Y311D02*
X1341Y311D01*
X1573Y311D02*
X1594Y311D01*
X1620Y311D02*
X1641Y311D01*
X2473Y311D02*
X2494Y311D01*
X2520Y311D02*
X2541Y311D01*
X2773Y311D02*
X2794Y311D01*
X2820Y311D02*
X2841Y311D01*
X1273Y310D02*
X1293Y310D01*
X1320Y310D02*
X1341Y310D01*
X1573Y310D02*
X1593Y310D01*
X1620Y310D02*
X1641Y310D01*
X2473Y310D02*
X2493Y310D01*
X2520Y310D02*
X2541Y310D01*
X2773Y310D02*
X2793Y310D01*
X2820Y310D02*
X2841Y310D01*
X1273Y309D02*
X1293Y309D01*
X1321Y309D02*
X1341Y309D01*
X1573Y309D02*
X1593Y309D01*
X1621Y309D02*
X1641Y309D01*
X2473Y309D02*
X2493Y309D01*
X2521Y309D02*
X2541Y309D01*
X2773Y309D02*
X2793Y309D01*
X2821Y309D02*
X2841Y309D01*
X1273Y308D02*
X1292Y308D01*
X1321Y308D02*
X1341Y308D01*
X1573Y308D02*
X1592Y308D01*
X1621Y308D02*
X1641Y308D01*
X2473Y308D02*
X2492Y308D01*
X2521Y308D02*
X2541Y308D01*
X2773Y308D02*
X2792Y308D01*
X2821Y308D02*
X2841Y308D01*
X1273Y307D02*
X1292Y307D01*
X1322Y307D02*
X1341Y307D01*
X1573Y307D02*
X1592Y307D01*
X1622Y307D02*
X1641Y307D01*
X2473Y307D02*
X2492Y307D01*
X2522Y307D02*
X2541Y307D01*
X2773Y307D02*
X2792Y307D01*
X2822Y307D02*
X2841Y307D01*
X1273Y306D02*
X1292Y306D01*
X1322Y306D02*
X1341Y306D01*
X1573Y306D02*
X1592Y306D01*
X1622Y306D02*
X1641Y306D01*
X2473Y306D02*
X2492Y306D01*
X2522Y306D02*
X2541Y306D01*
X2773Y306D02*
X2792Y306D01*
X2822Y306D02*
X2841Y306D01*
X1273Y305D02*
X1292Y305D01*
X1322Y305D02*
X1341Y305D01*
X1573Y305D02*
X1592Y305D01*
X1622Y305D02*
X1641Y305D01*
X2473Y305D02*
X2492Y305D01*
X2522Y305D02*
X2541Y305D01*
X2773Y305D02*
X2792Y305D01*
X2822Y305D02*
X2841Y305D01*
X1273Y304D02*
X1292Y304D01*
X1322Y304D02*
X1341Y304D01*
X1573Y304D02*
X1592Y304D01*
X1622Y304D02*
X1641Y304D01*
X2473Y304D02*
X2492Y304D01*
X2522Y304D02*
X2541Y304D01*
X2773Y304D02*
X2792Y304D01*
X2822Y304D02*
X2841Y304D01*
X1273Y303D02*
X1292Y303D01*
X1322Y303D02*
X1341Y303D01*
X1573Y303D02*
X1592Y303D01*
X1622Y303D02*
X1641Y303D01*
X2473Y303D02*
X2492Y303D01*
X2522Y303D02*
X2541Y303D01*
X2773Y303D02*
X2792Y303D01*
X2822Y303D02*
X2841Y303D01*
X1273Y302D02*
X1292Y302D01*
X1322Y302D02*
X1341Y302D01*
X1573Y302D02*
X1592Y302D01*
X1622Y302D02*
X1641Y302D01*
X2473Y302D02*
X2492Y302D01*
X2522Y302D02*
X2541Y302D01*
X2773Y302D02*
X2792Y302D01*
X2822Y302D02*
X2841Y302D01*
X1273Y301D02*
X1292Y301D01*
X1322Y301D02*
X1341Y301D01*
X1573Y301D02*
X1592Y301D01*
X1622Y301D02*
X1641Y301D01*
X2473Y301D02*
X2492Y301D01*
X2522Y301D02*
X2541Y301D01*
X2773Y301D02*
X2792Y301D01*
X2822Y301D02*
X2841Y301D01*
X1273Y300D02*
X1292Y300D01*
X1322Y300D02*
X1341Y300D01*
X1573Y300D02*
X1592Y300D01*
X1622Y300D02*
X1641Y300D01*
X2473Y300D02*
X2492Y300D01*
X2522Y300D02*
X2541Y300D01*
X2773Y300D02*
X2792Y300D01*
X2822Y300D02*
X2841Y300D01*
X1273Y299D02*
X1292Y299D01*
X1321Y299D02*
X1341Y299D01*
X1573Y299D02*
X1592Y299D01*
X1621Y299D02*
X1641Y299D01*
X2473Y299D02*
X2492Y299D01*
X2521Y299D02*
X2541Y299D01*
X2773Y299D02*
X2792Y299D01*
X2821Y299D02*
X2841Y299D01*
X1273Y298D02*
X1293Y298D01*
X1321Y298D02*
X1341Y298D01*
X1573Y298D02*
X1593Y298D01*
X1621Y298D02*
X1641Y298D01*
X2473Y298D02*
X2493Y298D01*
X2521Y298D02*
X2541Y298D01*
X2773Y298D02*
X2793Y298D01*
X2821Y298D02*
X2841Y298D01*
X1273Y297D02*
X1293Y297D01*
X1321Y297D02*
X1341Y297D01*
X1573Y297D02*
X1593Y297D01*
X1621Y297D02*
X1641Y297D01*
X2473Y297D02*
X2493Y297D01*
X2521Y297D02*
X2541Y297D01*
X2773Y297D02*
X2793Y297D01*
X2821Y297D02*
X2841Y297D01*
X1273Y296D02*
X1294Y296D01*
X1320Y296D02*
X1341Y296D01*
X1573Y296D02*
X1594Y296D01*
X1620Y296D02*
X1641Y296D01*
X2473Y296D02*
X2494Y296D01*
X2520Y296D02*
X2541Y296D01*
X2773Y296D02*
X2794Y296D01*
X2820Y296D02*
X2841Y296D01*
X1273Y295D02*
X1294Y295D01*
X1319Y295D02*
X1341Y295D01*
X1573Y295D02*
X1594Y295D01*
X1619Y295D02*
X1641Y295D01*
X2473Y295D02*
X2494Y295D01*
X2519Y295D02*
X2541Y295D01*
X2773Y295D02*
X2794Y295D01*
X2819Y295D02*
X2841Y295D01*
X1273Y294D02*
X1295Y294D01*
X1319Y294D02*
X1341Y294D01*
X1573Y294D02*
X1595Y294D01*
X1619Y294D02*
X1641Y294D01*
X2473Y294D02*
X2495Y294D01*
X2519Y294D02*
X2541Y294D01*
X2773Y294D02*
X2795Y294D01*
X2819Y294D02*
X2841Y294D01*
X1273Y293D02*
X1296Y293D01*
X1318Y293D02*
X1341Y293D01*
X1573Y293D02*
X1596Y293D01*
X1618Y293D02*
X1641Y293D01*
X2473Y293D02*
X2496Y293D01*
X2518Y293D02*
X2541Y293D01*
X2773Y293D02*
X2796Y293D01*
X2818Y293D02*
X2841Y293D01*
X1273Y292D02*
X1297Y292D01*
X1317Y292D02*
X1341Y292D01*
X1573Y292D02*
X1597Y292D01*
X1617Y292D02*
X1641Y292D01*
X2473Y292D02*
X2497Y292D01*
X2517Y292D02*
X2541Y292D01*
X2773Y292D02*
X2797Y292D01*
X2817Y292D02*
X2841Y292D01*
X1273Y291D02*
X1298Y291D01*
X1315Y291D02*
X1341Y291D01*
X1573Y291D02*
X1598Y291D01*
X1615Y291D02*
X1641Y291D01*
X2473Y291D02*
X2498Y291D01*
X2515Y291D02*
X2541Y291D01*
X2773Y291D02*
X2798Y291D01*
X2815Y291D02*
X2841Y291D01*
X1273Y290D02*
X1300Y290D01*
X1314Y290D02*
X1341Y290D01*
X1573Y290D02*
X1600Y290D01*
X1614Y290D02*
X1641Y290D01*
X2473Y290D02*
X2500Y290D01*
X2514Y290D02*
X2541Y290D01*
X2773Y290D02*
X2800Y290D01*
X2814Y290D02*
X2841Y290D01*
X1273Y289D02*
X1303Y289D01*
X1311Y289D02*
X1341Y289D01*
X1573Y289D02*
X1603Y289D01*
X1611Y289D02*
X1641Y289D01*
X2473Y289D02*
X2503Y289D01*
X2511Y289D02*
X2541Y289D01*
X2773Y289D02*
X2803Y289D01*
X2811Y289D02*
X2841Y289D01*
X1273Y288D02*
X1341Y288D01*
X1573Y288D02*
X1641Y288D01*
X2473Y288D02*
X2541Y288D01*
X2773Y288D02*
X2841Y288D01*
X1273Y287D02*
X1341Y287D01*
X1573Y287D02*
X1641Y287D01*
X2473Y287D02*
X2541Y287D01*
X2773Y287D02*
X2841Y287D01*
X1273Y286D02*
X1341Y286D01*
X1573Y286D02*
X1641Y286D01*
X2473Y286D02*
X2541Y286D01*
X2773Y286D02*
X2841Y286D01*
X1273Y285D02*
X1341Y285D01*
X1573Y285D02*
X1641Y285D01*
X2473Y285D02*
X2541Y285D01*
X2773Y285D02*
X2841Y285D01*
X1273Y284D02*
X1341Y284D01*
X1573Y284D02*
X1641Y284D01*
X2473Y284D02*
X2541Y284D01*
X2773Y284D02*
X2841Y284D01*
X1273Y283D02*
X1341Y283D01*
X1573Y283D02*
X1641Y283D01*
X2473Y283D02*
X2541Y283D01*
X2773Y283D02*
X2841Y283D01*
X1273Y282D02*
X1341Y282D01*
X1573Y282D02*
X1641Y282D01*
X2473Y282D02*
X2541Y282D01*
X2773Y282D02*
X2841Y282D01*
X1273Y281D02*
X1341Y281D01*
X1573Y281D02*
X1641Y281D01*
X2473Y281D02*
X2541Y281D01*
X2773Y281D02*
X2841Y281D01*
X1273Y280D02*
X1341Y280D01*
X1573Y280D02*
X1641Y280D01*
X2473Y280D02*
X2541Y280D01*
X2773Y280D02*
X2841Y280D01*
X1273Y279D02*
X1341Y279D01*
X1573Y279D02*
X1641Y279D01*
X2473Y279D02*
X2541Y279D01*
X2773Y279D02*
X2841Y279D01*
X1273Y278D02*
X1341Y278D01*
X1573Y278D02*
X1641Y278D01*
X2473Y278D02*
X2541Y278D01*
X2773Y278D02*
X2841Y278D01*
X1273Y277D02*
X1341Y277D01*
X1573Y277D02*
X1641Y277D01*
X2473Y277D02*
X2541Y277D01*
X2773Y277D02*
X2841Y277D01*
X1273Y276D02*
X1341Y276D01*
X1573Y276D02*
X1641Y276D01*
X2473Y276D02*
X2541Y276D01*
X2773Y276D02*
X2841Y276D01*
X1273Y275D02*
X1341Y275D01*
X1573Y275D02*
X1641Y275D01*
X2473Y275D02*
X2541Y275D01*
X2773Y275D02*
X2841Y275D01*
X1273Y274D02*
X1341Y274D01*
X1573Y274D02*
X1641Y274D01*
X2473Y274D02*
X2541Y274D01*
X2773Y274D02*
X2841Y274D01*
X1273Y273D02*
X1341Y273D01*
X1573Y273D02*
X1641Y273D01*
X2473Y273D02*
X2541Y273D01*
X2773Y273D02*
X2841Y273D01*
X1273Y272D02*
X1341Y272D01*
X1573Y272D02*
X1641Y272D01*
X2473Y272D02*
X2541Y272D01*
X2773Y272D02*
X2841Y272D01*
X1273Y271D02*
X1341Y271D01*
X1573Y271D02*
X1641Y271D01*
X2473Y271D02*
X2541Y271D01*
X2773Y271D02*
X2841Y271D01*
X1273Y270D02*
X1341Y270D01*
X1573Y270D02*
X1641Y270D01*
X2473Y270D02*
X2541Y270D01*
X2773Y270D02*
X2841Y270D01*
X1273Y269D02*
X1341Y269D01*
X1573Y269D02*
X1641Y269D01*
X2473Y269D02*
X2541Y269D01*
X2773Y269D02*
X2841Y269D01*
D02*
G04 End of Mask0*
M02*