; NON-PLATED HOLES START AT T1
; THROUGH (PLATED) HOLES START AT T100
M48
INCH
T100C0.035000
T101C0.040000
T102C0.038194
T103C0.038000
T104C0.032000
T105C0.039370
%
T100
X031073Y007027
X031073Y016027
X031073Y012027
X035073Y007027
X027073Y007027
X033073Y016027
X035073Y011027
X033073Y012027
T101
X035073Y018027
X030073Y018027
X031073Y018027
X032073Y018027
X033073Y018027
X034073Y018027
T102
X020072Y001027
X037072Y004027
X030072Y020027
X037072Y009027
X037072Y014027
X037072Y012027
X022072Y001027
X037072Y015027
X025072Y020027
X037072Y007027
X023072Y020027
X018072Y020027
X014472Y020027
X024072Y020027
X024072Y001027
X027072Y020027
X018072Y001027
X014072Y001027
X029072Y020027
X037072Y018027
X028072Y020027
X037072Y013027
X020072Y020027
X012072Y001027
X037072Y017027
X038072Y007027
X032072Y020027
X009472Y020027
X015472Y020027
X033072Y020027
X007472Y020027
X037072Y006027
X038072Y003027
X037072Y003027
X036072Y001027
X038072Y008027
X013472Y020027
X038072Y013027
X031072Y001027
X033072Y001027
X037072Y020027
X038072Y010027
X037072Y008027
X023072Y001027
X038072Y018027
X011072Y001027
X021072Y020027
X038072Y009027
X013072Y001027
X012472Y020027
X010472Y020027
X026072Y001027
X029072Y001027
X034072Y020027
X038072Y016027
X016472Y020027
X037072Y005027
X017072Y001027
X037072Y010027
X038072Y014027
X037072Y011027
X022072Y020027
X037072Y016027
X032072Y001027
X038072Y011027
X038072Y015027
X016072Y001027
X038072Y006027
X038072Y012027
X038072Y004027
X031072Y020027
X027072Y001027
X037072Y019027
X019072Y020027
X038072Y020027
X038072Y017027
X034072Y001027
X035072Y001027
X011472Y020027
X025072Y001027
X008472Y020027
X030072Y001027
X038072Y019027
X015072Y001027
X021072Y001027
X038072Y005027
T103
X018073Y016027
X010072Y011030
X022073Y005027
X022073Y002027
X018073Y019027
X010072Y010027
X020073Y016027
X000983Y011030
X000983Y005512
X024073Y002027
X034073Y004027
X001072Y017027
X024073Y005027
X017073Y002027
X016073Y017027
X019073Y002027
X019073Y005027
X010072Y005512
X020073Y019027
X017073Y005027
X033073Y004027
X010072Y006515
T104
X027073Y012027
X027073Y011027
X024073Y011027
X024073Y012027
T105
X013073Y005027
X028073Y005027
X013073Y003027
X016073Y003027
X025073Y003027
X014073Y010027
X025073Y005027
X016073Y005027
X028073Y003027
X017073Y010027
X017073Y012027
X014073Y012027
T00
M30
