G04 MADE WITH FRITZING*
G04 WWW.FRITZING.ORG*
G04 DOUBLE SIDED*
G04 HOLES PLATED*
G04 CONTOUR ON CENTER OF CONTOUR VECTOR*
%ASAXBY*%
%FSLAX23Y23*%
%MOIN*%
%OFA0B0*%
%SFA1.0B1.0*%
%ADD10C,0.072917*%
%ADD11C,0.075000*%
%ADD12C,0.052000*%
%ADD13C,0.078000*%
%ADD14C,0.074000*%
%ADD15C,0.059370*%
%ADD16C,0.024000*%
%ADD17R,0.001000X0.001000*%
%LNCOPPER1*%
G90*
G70*
G54D10*
X3007Y103D03*
X1407Y103D03*
X3107Y103D03*
X3207Y103D03*
X3307Y103D03*
X3407Y103D03*
X3707Y1503D03*
X3507Y103D03*
X3607Y103D03*
X1447Y2003D03*
X2007Y103D03*
X2107Y103D03*
X2207Y103D03*
X2307Y103D03*
X3707Y703D03*
X2407Y103D03*
X2507Y103D03*
X2607Y103D03*
X2707Y103D03*
X2207Y2003D03*
X3707Y1903D03*
X3707Y1103D03*
X3707Y303D03*
X1047Y2003D03*
X1807Y103D03*
X1807Y2003D03*
X3707Y1703D03*
X3707Y1303D03*
X3707Y903D03*
X3407Y2003D03*
X3707Y503D03*
X3307Y2003D03*
X3207Y2003D03*
X3107Y2003D03*
X3007Y2003D03*
X2907Y2003D03*
X2807Y2003D03*
X2707Y2003D03*
X847Y2003D03*
X1247Y2003D03*
X1647Y2003D03*
X1207Y103D03*
X1607Y103D03*
X2407Y2003D03*
X2007Y2003D03*
X3707Y2003D03*
X3707Y1803D03*
X3707Y1603D03*
X3707Y1403D03*
X3707Y1203D03*
X3707Y1003D03*
X3707Y803D03*
X3707Y603D03*
X3707Y403D03*
X747Y2003D03*
X947Y2003D03*
X1147Y2003D03*
X1347Y2003D03*
X1547Y2003D03*
X1107Y103D03*
X1307Y103D03*
X1507Y103D03*
X1707Y103D03*
X2507Y2003D03*
X2307Y2003D03*
X2107Y2003D03*
X1907Y2003D03*
X3807Y2003D03*
X3807Y1903D03*
X3807Y1803D03*
X3807Y1703D03*
X3807Y1603D03*
X3807Y1503D03*
X3807Y1403D03*
X3807Y1303D03*
X3807Y1203D03*
X3807Y1103D03*
X3807Y1003D03*
X3807Y903D03*
X3807Y803D03*
X3807Y703D03*
X3807Y603D03*
X3807Y503D03*
X3807Y403D03*
X3807Y303D03*
X2907Y103D03*
G54D11*
X3507Y1103D03*
X3507Y703D03*
G54D12*
X2707Y1103D03*
X2707Y1203D03*
X2407Y1203D03*
X2407Y1103D03*
X2707Y1103D03*
X2707Y1203D03*
X2407Y1203D03*
X2407Y1103D03*
G54D11*
X2707Y703D03*
X3107Y703D03*
G54D13*
X98Y1103D03*
X98Y551D03*
X1007Y1103D03*
X1007Y1003D03*
X1007Y652D03*
X1007Y551D03*
G54D14*
X3007Y1803D03*
X3107Y1803D03*
X3207Y1803D03*
X3307Y1803D03*
X3407Y1803D03*
X3507Y1803D03*
G54D13*
X1607Y1703D03*
X2207Y503D03*
X2207Y203D03*
X1807Y1603D03*
X1907Y203D03*
X2407Y203D03*
X1907Y503D03*
X1707Y503D03*
X107Y1703D03*
X2407Y503D03*
X2007Y1603D03*
X1807Y1903D03*
X1707Y203D03*
X2007Y1903D03*
G54D15*
X1307Y503D03*
X1607Y503D03*
X1307Y303D03*
X1607Y303D03*
X1307Y503D03*
X1607Y503D03*
X1307Y303D03*
X1607Y303D03*
X1707Y1003D03*
X1407Y1003D03*
X1707Y1203D03*
X1407Y1203D03*
X1707Y1003D03*
X1407Y1003D03*
X1707Y1203D03*
X1407Y1203D03*
X2507Y503D03*
X2807Y503D03*
X2507Y303D03*
X2807Y303D03*
X2507Y503D03*
X2807Y503D03*
X2507Y303D03*
X2807Y303D03*
G54D13*
X3407Y403D03*
X3307Y403D03*
G54D11*
X3307Y1203D03*
X3307Y1603D03*
X3107Y1203D03*
X3107Y1603D03*
G54D16*
X1496Y1175D02*
X1509Y1801D01*
D02*
X1421Y1030D02*
X1496Y1175D01*
D02*
X1509Y1801D02*
X1779Y1893D01*
D02*
X3136Y703D02*
X3479Y703D01*
D02*
X1287Y326D02*
X1027Y629D01*
D02*
X3393Y1775D02*
X3320Y1628D01*
D02*
X3084Y1783D02*
X2428Y1220D01*
D02*
X1837Y1603D02*
X1977Y1603D01*
D02*
X3303Y1834D02*
X3300Y1859D01*
X3300Y1859D02*
X2532Y1955D01*
X2532Y1955D02*
X2521Y1976D01*
D02*
X2477Y503D02*
X2437Y503D01*
D02*
X2308Y1973D02*
X2328Y1067D01*
X2328Y1067D02*
X2403Y533D01*
D02*
X3831Y1584D02*
X3876Y1547D01*
X3876Y1547D02*
X3876Y227D01*
X3876Y227D02*
X3660Y227D01*
X3660Y227D02*
X3512Y1075D01*
D02*
X1377Y1202D02*
X1308Y1202D01*
D02*
X1308Y1202D02*
X1308Y904D01*
D02*
X1308Y904D02*
X1509Y904D01*
D02*
X1509Y904D02*
X1706Y1704D01*
D02*
X1706Y1704D02*
X2108Y1801D01*
D02*
X2108Y1801D02*
X2107Y1973D01*
D02*
X1638Y503D02*
X1677Y503D01*
D02*
X1877Y503D02*
X1737Y503D01*
D02*
X2201Y1973D02*
X1913Y532D01*
D02*
X1877Y203D02*
X1737Y203D01*
D02*
X2177Y203D02*
X1937Y203D01*
D02*
X2377Y203D02*
X2237Y203D01*
D02*
X3206Y1772D02*
X3180Y947D01*
X3180Y947D02*
X2508Y323D01*
X2508Y323D02*
X2508Y334D01*
G54D17*
X1378Y1232D02*
X1436Y1232D01*
X1678Y1232D02*
X1736Y1232D01*
X1378Y1231D02*
X1436Y1231D01*
X1678Y1231D02*
X1736Y1231D01*
X1378Y1230D02*
X1436Y1230D01*
X1678Y1230D02*
X1736Y1230D01*
X1378Y1229D02*
X1436Y1229D01*
X1678Y1229D02*
X1736Y1229D01*
X2378Y1229D02*
X2436Y1229D01*
X2678Y1229D02*
X2736Y1229D01*
X1378Y1228D02*
X1436Y1228D01*
X1678Y1228D02*
X1736Y1228D01*
X2373Y1228D02*
X2440Y1228D01*
X2673Y1228D02*
X2740Y1228D01*
X1378Y1227D02*
X1436Y1227D01*
X1678Y1227D02*
X1736Y1227D01*
X2371Y1227D02*
X2443Y1227D01*
X2671Y1227D02*
X2743Y1227D01*
X1378Y1226D02*
X1436Y1226D01*
X1678Y1226D02*
X1736Y1226D01*
X2369Y1226D02*
X2445Y1226D01*
X2669Y1226D02*
X2745Y1226D01*
X1378Y1225D02*
X1436Y1225D01*
X1678Y1225D02*
X1736Y1225D01*
X2367Y1225D02*
X2446Y1225D01*
X2667Y1225D02*
X2746Y1225D01*
X1378Y1224D02*
X1436Y1224D01*
X1678Y1224D02*
X1736Y1224D01*
X2366Y1224D02*
X2448Y1224D01*
X2666Y1224D02*
X2748Y1224D01*
X1378Y1223D02*
X1436Y1223D01*
X1678Y1223D02*
X1736Y1223D01*
X2365Y1223D02*
X2449Y1223D01*
X2665Y1223D02*
X2749Y1223D01*
X1378Y1222D02*
X1401Y1222D01*
X1413Y1222D02*
X1436Y1222D01*
X1678Y1222D02*
X1701Y1222D01*
X1713Y1222D02*
X1736Y1222D01*
X2363Y1222D02*
X2450Y1222D01*
X2663Y1222D02*
X2750Y1222D01*
X1378Y1221D02*
X1398Y1221D01*
X1416Y1221D02*
X1436Y1221D01*
X1678Y1221D02*
X1698Y1221D01*
X1716Y1221D02*
X1736Y1221D01*
X2362Y1221D02*
X2451Y1221D01*
X2662Y1221D02*
X2751Y1221D01*
X1378Y1220D02*
X1396Y1220D01*
X1418Y1220D02*
X1436Y1220D01*
X1678Y1220D02*
X1696Y1220D01*
X1718Y1220D02*
X1736Y1220D01*
X2362Y1220D02*
X2452Y1220D01*
X2662Y1220D02*
X2752Y1220D01*
X1378Y1219D02*
X1395Y1219D01*
X1419Y1219D02*
X1436Y1219D01*
X1678Y1219D02*
X1695Y1219D01*
X1719Y1219D02*
X1736Y1219D01*
X2361Y1219D02*
X2404Y1219D01*
X2410Y1219D02*
X2453Y1219D01*
X2661Y1219D02*
X2704Y1219D01*
X2710Y1219D02*
X2753Y1219D01*
X1378Y1218D02*
X1393Y1218D01*
X1420Y1218D02*
X1436Y1218D01*
X1678Y1218D02*
X1693Y1218D01*
X1720Y1218D02*
X1736Y1218D01*
X2360Y1218D02*
X2400Y1218D01*
X2413Y1218D02*
X2454Y1218D01*
X2660Y1218D02*
X2700Y1218D01*
X2713Y1218D02*
X2754Y1218D01*
X1378Y1217D02*
X1392Y1217D01*
X1421Y1217D02*
X1436Y1217D01*
X1678Y1217D02*
X1692Y1217D01*
X1721Y1217D02*
X1736Y1217D01*
X2359Y1217D02*
X2398Y1217D01*
X2415Y1217D02*
X2454Y1217D01*
X2659Y1217D02*
X2698Y1217D01*
X2715Y1217D02*
X2754Y1217D01*
X1378Y1216D02*
X1391Y1216D01*
X1422Y1216D02*
X1436Y1216D01*
X1678Y1216D02*
X1691Y1216D01*
X1722Y1216D02*
X1736Y1216D01*
X2359Y1216D02*
X2397Y1216D01*
X2417Y1216D02*
X2455Y1216D01*
X2659Y1216D02*
X2697Y1216D01*
X2717Y1216D02*
X2755Y1216D01*
X1378Y1215D02*
X1391Y1215D01*
X1423Y1215D02*
X1436Y1215D01*
X1678Y1215D02*
X1691Y1215D01*
X1723Y1215D02*
X1736Y1215D01*
X2358Y1215D02*
X2396Y1215D01*
X2418Y1215D02*
X2455Y1215D01*
X2658Y1215D02*
X2696Y1215D01*
X2718Y1215D02*
X2755Y1215D01*
X1378Y1214D02*
X1390Y1214D01*
X1424Y1214D02*
X1436Y1214D01*
X1678Y1214D02*
X1690Y1214D01*
X1724Y1214D02*
X1736Y1214D01*
X2358Y1214D02*
X2395Y1214D01*
X2419Y1214D02*
X2456Y1214D01*
X2658Y1214D02*
X2695Y1214D01*
X2719Y1214D02*
X2756Y1214D01*
X1378Y1213D02*
X1389Y1213D01*
X1424Y1213D02*
X1436Y1213D01*
X1678Y1213D02*
X1689Y1213D01*
X1724Y1213D02*
X1736Y1213D01*
X2357Y1213D02*
X2394Y1213D01*
X2420Y1213D02*
X2456Y1213D01*
X2657Y1213D02*
X2694Y1213D01*
X2720Y1213D02*
X2756Y1213D01*
X1378Y1212D02*
X1389Y1212D01*
X1425Y1212D02*
X1436Y1212D01*
X1678Y1212D02*
X1689Y1212D01*
X1725Y1212D02*
X1736Y1212D01*
X2357Y1212D02*
X2393Y1212D01*
X2421Y1212D02*
X2457Y1212D01*
X2657Y1212D02*
X2693Y1212D01*
X2721Y1212D02*
X2757Y1212D01*
X1378Y1211D02*
X1388Y1211D01*
X1425Y1211D02*
X1436Y1211D01*
X1678Y1211D02*
X1688Y1211D01*
X1725Y1211D02*
X1736Y1211D01*
X2356Y1211D02*
X2392Y1211D01*
X2421Y1211D02*
X2457Y1211D01*
X2656Y1211D02*
X2692Y1211D01*
X2721Y1211D02*
X2757Y1211D01*
X1378Y1210D02*
X1388Y1210D01*
X1426Y1210D02*
X1436Y1210D01*
X1678Y1210D02*
X1688Y1210D01*
X1726Y1210D02*
X1736Y1210D01*
X2356Y1210D02*
X2392Y1210D01*
X2422Y1210D02*
X2457Y1210D01*
X2656Y1210D02*
X2692Y1210D01*
X2722Y1210D02*
X2757Y1210D01*
X1378Y1209D02*
X1388Y1209D01*
X1426Y1209D02*
X1436Y1209D01*
X1678Y1209D02*
X1688Y1209D01*
X1726Y1209D02*
X1736Y1209D01*
X2356Y1209D02*
X2391Y1209D01*
X2422Y1209D02*
X2458Y1209D01*
X2656Y1209D02*
X2691Y1209D01*
X2722Y1209D02*
X2758Y1209D01*
X1378Y1208D02*
X1387Y1208D01*
X1426Y1208D02*
X1436Y1208D01*
X1678Y1208D02*
X1687Y1208D01*
X1726Y1208D02*
X1736Y1208D01*
X2356Y1208D02*
X2391Y1208D01*
X2422Y1208D02*
X2458Y1208D01*
X2656Y1208D02*
X2691Y1208D01*
X2722Y1208D02*
X2758Y1208D01*
X1378Y1207D02*
X1387Y1207D01*
X1427Y1207D02*
X1436Y1207D01*
X1678Y1207D02*
X1687Y1207D01*
X1727Y1207D02*
X1736Y1207D01*
X2356Y1207D02*
X2391Y1207D01*
X2423Y1207D02*
X2458Y1207D01*
X2656Y1207D02*
X2691Y1207D01*
X2723Y1207D02*
X2758Y1207D01*
X1378Y1206D02*
X1387Y1206D01*
X1427Y1206D02*
X1436Y1206D01*
X1678Y1206D02*
X1687Y1206D01*
X1727Y1206D02*
X1736Y1206D01*
X2355Y1206D02*
X2391Y1206D01*
X2423Y1206D02*
X2458Y1206D01*
X2655Y1206D02*
X2691Y1206D01*
X2723Y1206D02*
X2758Y1206D01*
X1378Y1205D02*
X1387Y1205D01*
X1427Y1205D02*
X1436Y1205D01*
X1678Y1205D02*
X1687Y1205D01*
X1727Y1205D02*
X1736Y1205D01*
X2355Y1205D02*
X2390Y1205D01*
X2423Y1205D02*
X2458Y1205D01*
X2655Y1205D02*
X2690Y1205D01*
X2723Y1205D02*
X2758Y1205D01*
X1378Y1204D02*
X1387Y1204D01*
X1427Y1204D02*
X1436Y1204D01*
X1678Y1204D02*
X1687Y1204D01*
X1727Y1204D02*
X1736Y1204D01*
X2355Y1204D02*
X2390Y1204D01*
X2423Y1204D02*
X2458Y1204D01*
X2655Y1204D02*
X2690Y1204D01*
X2723Y1204D02*
X2758Y1204D01*
X1378Y1203D02*
X1387Y1203D01*
X1427Y1203D02*
X1436Y1203D01*
X1678Y1203D02*
X1687Y1203D01*
X1727Y1203D02*
X1736Y1203D01*
X2355Y1203D02*
X2390Y1203D01*
X2423Y1203D02*
X2458Y1203D01*
X2655Y1203D02*
X2690Y1203D01*
X2723Y1203D02*
X2758Y1203D01*
X1378Y1202D02*
X1387Y1202D01*
X1427Y1202D02*
X1436Y1202D01*
X1678Y1202D02*
X1687Y1202D01*
X1727Y1202D02*
X1736Y1202D01*
X2355Y1202D02*
X2390Y1202D01*
X2423Y1202D02*
X2458Y1202D01*
X2655Y1202D02*
X2690Y1202D01*
X2723Y1202D02*
X2758Y1202D01*
X1378Y1201D02*
X1387Y1201D01*
X1427Y1201D02*
X1436Y1201D01*
X1678Y1201D02*
X1687Y1201D01*
X1727Y1201D02*
X1736Y1201D01*
X2355Y1201D02*
X2391Y1201D01*
X2423Y1201D02*
X2458Y1201D01*
X2655Y1201D02*
X2691Y1201D01*
X2723Y1201D02*
X2758Y1201D01*
X1378Y1200D02*
X1387Y1200D01*
X1427Y1200D02*
X1436Y1200D01*
X1678Y1200D02*
X1687Y1200D01*
X1727Y1200D02*
X1736Y1200D01*
X2356Y1200D02*
X2391Y1200D01*
X2423Y1200D02*
X2458Y1200D01*
X2656Y1200D02*
X2691Y1200D01*
X2723Y1200D02*
X2758Y1200D01*
X1378Y1199D02*
X1387Y1199D01*
X1426Y1199D02*
X1436Y1199D01*
X1678Y1199D02*
X1687Y1199D01*
X1726Y1199D02*
X1736Y1199D01*
X2356Y1199D02*
X2391Y1199D01*
X2423Y1199D02*
X2458Y1199D01*
X2656Y1199D02*
X2691Y1199D01*
X2723Y1199D02*
X2758Y1199D01*
X1378Y1198D02*
X1387Y1198D01*
X1426Y1198D02*
X1436Y1198D01*
X1678Y1198D02*
X1687Y1198D01*
X1726Y1198D02*
X1736Y1198D01*
X2356Y1198D02*
X2391Y1198D01*
X2422Y1198D02*
X2458Y1198D01*
X2656Y1198D02*
X2691Y1198D01*
X2722Y1198D02*
X2758Y1198D01*
X1378Y1197D02*
X1388Y1197D01*
X1426Y1197D02*
X1436Y1197D01*
X1678Y1197D02*
X1688Y1197D01*
X1726Y1197D02*
X1736Y1197D01*
X2356Y1197D02*
X2392Y1197D01*
X2422Y1197D02*
X2458Y1197D01*
X2656Y1197D02*
X2692Y1197D01*
X2722Y1197D02*
X2758Y1197D01*
X1378Y1196D02*
X1388Y1196D01*
X1426Y1196D02*
X1436Y1196D01*
X1678Y1196D02*
X1688Y1196D01*
X1726Y1196D02*
X1736Y1196D01*
X2356Y1196D02*
X2392Y1196D01*
X2421Y1196D02*
X2457Y1196D01*
X2656Y1196D02*
X2692Y1196D01*
X2721Y1196D02*
X2757Y1196D01*
X1378Y1195D02*
X1388Y1195D01*
X1425Y1195D02*
X1436Y1195D01*
X1678Y1195D02*
X1688Y1195D01*
X1725Y1195D02*
X1736Y1195D01*
X2357Y1195D02*
X2393Y1195D01*
X2421Y1195D02*
X2457Y1195D01*
X2657Y1195D02*
X2693Y1195D01*
X2721Y1195D02*
X2757Y1195D01*
X1378Y1194D02*
X1389Y1194D01*
X1425Y1194D02*
X1436Y1194D01*
X1678Y1194D02*
X1689Y1194D01*
X1725Y1194D02*
X1736Y1194D01*
X2357Y1194D02*
X2393Y1194D01*
X2420Y1194D02*
X2457Y1194D01*
X2657Y1194D02*
X2693Y1194D01*
X2720Y1194D02*
X2757Y1194D01*
X1378Y1193D02*
X1390Y1193D01*
X1424Y1193D02*
X1436Y1193D01*
X1678Y1193D02*
X1690Y1193D01*
X1724Y1193D02*
X1736Y1193D01*
X2357Y1193D02*
X2394Y1193D01*
X2419Y1193D02*
X2456Y1193D01*
X2657Y1193D02*
X2694Y1193D01*
X2719Y1193D02*
X2756Y1193D01*
X1378Y1192D02*
X1390Y1192D01*
X1423Y1192D02*
X1436Y1192D01*
X1678Y1192D02*
X1690Y1192D01*
X1723Y1192D02*
X1736Y1192D01*
X2358Y1192D02*
X2395Y1192D01*
X2419Y1192D02*
X2456Y1192D01*
X2658Y1192D02*
X2695Y1192D01*
X2719Y1192D02*
X2756Y1192D01*
X1378Y1191D02*
X1391Y1191D01*
X1423Y1191D02*
X1436Y1191D01*
X1678Y1191D02*
X1691Y1191D01*
X1723Y1191D02*
X1736Y1191D01*
X2358Y1191D02*
X2396Y1191D01*
X2417Y1191D02*
X2455Y1191D01*
X2658Y1191D02*
X2696Y1191D01*
X2717Y1191D02*
X2755Y1191D01*
X1378Y1190D02*
X1392Y1190D01*
X1422Y1190D02*
X1436Y1190D01*
X1678Y1190D02*
X1692Y1190D01*
X1722Y1190D02*
X1736Y1190D01*
X2359Y1190D02*
X2397Y1190D01*
X2416Y1190D02*
X2455Y1190D01*
X2659Y1190D02*
X2697Y1190D01*
X2716Y1190D02*
X2755Y1190D01*
X1378Y1189D02*
X1393Y1189D01*
X1421Y1189D02*
X1436Y1189D01*
X1678Y1189D02*
X1693Y1189D01*
X1721Y1189D02*
X1736Y1189D01*
X2360Y1189D02*
X2399Y1189D01*
X2414Y1189D02*
X2454Y1189D01*
X2660Y1189D02*
X2699Y1189D01*
X2714Y1189D02*
X2754Y1189D01*
X1378Y1188D02*
X1394Y1188D01*
X1420Y1188D02*
X1436Y1188D01*
X1678Y1188D02*
X1694Y1188D01*
X1720Y1188D02*
X1736Y1188D01*
X2360Y1188D02*
X2402Y1188D01*
X2412Y1188D02*
X2453Y1188D01*
X2660Y1188D02*
X2702Y1188D01*
X2712Y1188D02*
X2753Y1188D01*
X1378Y1187D02*
X1395Y1187D01*
X1418Y1187D02*
X1436Y1187D01*
X1678Y1187D02*
X1695Y1187D01*
X1718Y1187D02*
X1736Y1187D01*
X2361Y1187D02*
X2452Y1187D01*
X2661Y1187D02*
X2752Y1187D01*
X1378Y1186D02*
X1397Y1186D01*
X1417Y1186D02*
X1436Y1186D01*
X1678Y1186D02*
X1697Y1186D01*
X1717Y1186D02*
X1736Y1186D01*
X2362Y1186D02*
X2452Y1186D01*
X2662Y1186D02*
X2752Y1186D01*
X1378Y1185D02*
X1399Y1185D01*
X1415Y1185D02*
X1436Y1185D01*
X1678Y1185D02*
X1699Y1185D01*
X1715Y1185D02*
X1736Y1185D01*
X2363Y1185D02*
X2451Y1185D01*
X2663Y1185D02*
X2751Y1185D01*
X1378Y1184D02*
X1402Y1184D01*
X1411Y1184D02*
X1436Y1184D01*
X1678Y1184D02*
X1702Y1184D01*
X1711Y1184D02*
X1736Y1184D01*
X2364Y1184D02*
X2450Y1184D01*
X2664Y1184D02*
X2750Y1184D01*
X1378Y1183D02*
X1436Y1183D01*
X1678Y1183D02*
X1736Y1183D01*
X2365Y1183D02*
X2448Y1183D01*
X2665Y1183D02*
X2748Y1183D01*
X1378Y1182D02*
X1436Y1182D01*
X1678Y1182D02*
X1736Y1182D01*
X2366Y1182D02*
X2447Y1182D01*
X2666Y1182D02*
X2747Y1182D01*
X1378Y1181D02*
X1436Y1181D01*
X1678Y1181D02*
X1736Y1181D01*
X2368Y1181D02*
X2446Y1181D01*
X2668Y1181D02*
X2746Y1181D01*
X1378Y1180D02*
X1436Y1180D01*
X1678Y1180D02*
X1736Y1180D01*
X2370Y1180D02*
X2444Y1180D01*
X2670Y1180D02*
X2744Y1180D01*
X1378Y1179D02*
X1436Y1179D01*
X1678Y1179D02*
X1736Y1179D01*
X2372Y1179D02*
X2442Y1179D01*
X2672Y1179D02*
X2742Y1179D01*
X1378Y1178D02*
X1436Y1178D01*
X1678Y1178D02*
X1736Y1178D01*
X2375Y1178D02*
X2438Y1178D01*
X2675Y1178D02*
X2738Y1178D01*
X1378Y1177D02*
X1436Y1177D01*
X1678Y1177D02*
X1736Y1177D01*
X1378Y1176D02*
X1436Y1176D01*
X1678Y1176D02*
X1736Y1176D01*
X1378Y1175D02*
X1436Y1175D01*
X1678Y1175D02*
X1736Y1175D01*
X1378Y1174D02*
X1436Y1174D01*
X1678Y1174D02*
X1736Y1174D01*
X2378Y1129D02*
X2436Y1129D01*
X2678Y1129D02*
X2736Y1129D01*
X2373Y1128D02*
X2440Y1128D01*
X2673Y1128D02*
X2740Y1128D01*
X2371Y1127D02*
X2443Y1127D01*
X2671Y1127D02*
X2743Y1127D01*
X2369Y1126D02*
X2445Y1126D01*
X2669Y1126D02*
X2745Y1126D01*
X2367Y1125D02*
X2446Y1125D01*
X2667Y1125D02*
X2746Y1125D01*
X2366Y1124D02*
X2448Y1124D01*
X2666Y1124D02*
X2748Y1124D01*
X2365Y1123D02*
X2449Y1123D01*
X2665Y1123D02*
X2749Y1123D01*
X2363Y1122D02*
X2450Y1122D01*
X2663Y1122D02*
X2750Y1122D01*
X2362Y1121D02*
X2451Y1121D01*
X2662Y1121D02*
X2751Y1121D01*
X2362Y1120D02*
X2452Y1120D01*
X2662Y1120D02*
X2752Y1120D01*
X2361Y1119D02*
X2404Y1119D01*
X2410Y1119D02*
X2453Y1119D01*
X2661Y1119D02*
X2704Y1119D01*
X2710Y1119D02*
X2753Y1119D01*
X2360Y1118D02*
X2400Y1118D01*
X2413Y1118D02*
X2454Y1118D01*
X2660Y1118D02*
X2700Y1118D01*
X2713Y1118D02*
X2754Y1118D01*
X2359Y1117D02*
X2398Y1117D01*
X2415Y1117D02*
X2454Y1117D01*
X2659Y1117D02*
X2698Y1117D01*
X2715Y1117D02*
X2754Y1117D01*
X2359Y1116D02*
X2397Y1116D01*
X2417Y1116D02*
X2455Y1116D01*
X2659Y1116D02*
X2697Y1116D01*
X2717Y1116D02*
X2755Y1116D01*
X2358Y1115D02*
X2396Y1115D01*
X2418Y1115D02*
X2455Y1115D01*
X2658Y1115D02*
X2696Y1115D01*
X2718Y1115D02*
X2755Y1115D01*
X2358Y1114D02*
X2395Y1114D01*
X2419Y1114D02*
X2456Y1114D01*
X2658Y1114D02*
X2695Y1114D01*
X2719Y1114D02*
X2756Y1114D01*
X2357Y1113D02*
X2394Y1113D01*
X2420Y1113D02*
X2456Y1113D01*
X2657Y1113D02*
X2694Y1113D01*
X2720Y1113D02*
X2756Y1113D01*
X2357Y1112D02*
X2393Y1112D01*
X2421Y1112D02*
X2457Y1112D01*
X2657Y1112D02*
X2693Y1112D01*
X2721Y1112D02*
X2757Y1112D01*
X2356Y1111D02*
X2392Y1111D01*
X2421Y1111D02*
X2457Y1111D01*
X2656Y1111D02*
X2692Y1111D01*
X2721Y1111D02*
X2757Y1111D01*
X2356Y1110D02*
X2392Y1110D01*
X2422Y1110D02*
X2457Y1110D01*
X2656Y1110D02*
X2692Y1110D01*
X2722Y1110D02*
X2757Y1110D01*
X2356Y1109D02*
X2391Y1109D01*
X2422Y1109D02*
X2458Y1109D01*
X2656Y1109D02*
X2691Y1109D01*
X2722Y1109D02*
X2758Y1109D01*
X2356Y1108D02*
X2391Y1108D01*
X2422Y1108D02*
X2458Y1108D01*
X2656Y1108D02*
X2691Y1108D01*
X2722Y1108D02*
X2758Y1108D01*
X2356Y1107D02*
X2391Y1107D01*
X2423Y1107D02*
X2458Y1107D01*
X2656Y1107D02*
X2691Y1107D01*
X2723Y1107D02*
X2758Y1107D01*
X2355Y1106D02*
X2391Y1106D01*
X2423Y1106D02*
X2458Y1106D01*
X2655Y1106D02*
X2691Y1106D01*
X2723Y1106D02*
X2758Y1106D01*
X2355Y1105D02*
X2390Y1105D01*
X2423Y1105D02*
X2458Y1105D01*
X2655Y1105D02*
X2690Y1105D01*
X2723Y1105D02*
X2758Y1105D01*
X2355Y1104D02*
X2390Y1104D01*
X2423Y1104D02*
X2458Y1104D01*
X2655Y1104D02*
X2690Y1104D01*
X2723Y1104D02*
X2758Y1104D01*
X2355Y1103D02*
X2390Y1103D01*
X2423Y1103D02*
X2458Y1103D01*
X2655Y1103D02*
X2690Y1103D01*
X2723Y1103D02*
X2758Y1103D01*
X2355Y1102D02*
X2390Y1102D01*
X2423Y1102D02*
X2458Y1102D01*
X2655Y1102D02*
X2690Y1102D01*
X2723Y1102D02*
X2758Y1102D01*
X2355Y1101D02*
X2391Y1101D01*
X2423Y1101D02*
X2458Y1101D01*
X2655Y1101D02*
X2691Y1101D01*
X2723Y1101D02*
X2758Y1101D01*
X2356Y1100D02*
X2391Y1100D01*
X2423Y1100D02*
X2458Y1100D01*
X2656Y1100D02*
X2691Y1100D01*
X2723Y1100D02*
X2758Y1100D01*
X2356Y1099D02*
X2391Y1099D01*
X2423Y1099D02*
X2458Y1099D01*
X2656Y1099D02*
X2691Y1099D01*
X2723Y1099D02*
X2758Y1099D01*
X2356Y1098D02*
X2391Y1098D01*
X2422Y1098D02*
X2458Y1098D01*
X2656Y1098D02*
X2691Y1098D01*
X2722Y1098D02*
X2758Y1098D01*
X2356Y1097D02*
X2392Y1097D01*
X2422Y1097D02*
X2458Y1097D01*
X2656Y1097D02*
X2692Y1097D01*
X2722Y1097D02*
X2758Y1097D01*
X2356Y1096D02*
X2392Y1096D01*
X2421Y1096D02*
X2457Y1096D01*
X2656Y1096D02*
X2692Y1096D01*
X2721Y1096D02*
X2757Y1096D01*
X2357Y1095D02*
X2393Y1095D01*
X2421Y1095D02*
X2457Y1095D01*
X2657Y1095D02*
X2693Y1095D01*
X2721Y1095D02*
X2757Y1095D01*
X2357Y1094D02*
X2393Y1094D01*
X2420Y1094D02*
X2457Y1094D01*
X2657Y1094D02*
X2693Y1094D01*
X2720Y1094D02*
X2757Y1094D01*
X2357Y1093D02*
X2394Y1093D01*
X2419Y1093D02*
X2456Y1093D01*
X2657Y1093D02*
X2694Y1093D01*
X2719Y1093D02*
X2756Y1093D01*
X2358Y1092D02*
X2395Y1092D01*
X2419Y1092D02*
X2456Y1092D01*
X2658Y1092D02*
X2695Y1092D01*
X2719Y1092D02*
X2756Y1092D01*
X2358Y1091D02*
X2396Y1091D01*
X2417Y1091D02*
X2455Y1091D01*
X2658Y1091D02*
X2696Y1091D01*
X2717Y1091D02*
X2755Y1091D01*
X2359Y1090D02*
X2397Y1090D01*
X2416Y1090D02*
X2455Y1090D01*
X2659Y1090D02*
X2697Y1090D01*
X2716Y1090D02*
X2755Y1090D01*
X2360Y1089D02*
X2399Y1089D01*
X2414Y1089D02*
X2454Y1089D01*
X2660Y1089D02*
X2699Y1089D01*
X2714Y1089D02*
X2754Y1089D01*
X2360Y1088D02*
X2402Y1088D01*
X2412Y1088D02*
X2453Y1088D01*
X2660Y1088D02*
X2702Y1088D01*
X2712Y1088D02*
X2753Y1088D01*
X2361Y1087D02*
X2452Y1087D01*
X2661Y1087D02*
X2752Y1087D01*
X2362Y1086D02*
X2452Y1086D01*
X2662Y1086D02*
X2752Y1086D01*
X2363Y1085D02*
X2451Y1085D01*
X2663Y1085D02*
X2751Y1085D01*
X2364Y1084D02*
X2450Y1084D01*
X2664Y1084D02*
X2750Y1084D01*
X2365Y1083D02*
X2448Y1083D01*
X2665Y1083D02*
X2748Y1083D01*
X2366Y1082D02*
X2447Y1082D01*
X2666Y1082D02*
X2747Y1082D01*
X2368Y1081D02*
X2446Y1081D01*
X2668Y1081D02*
X2746Y1081D01*
X2370Y1080D02*
X2444Y1080D01*
X2670Y1080D02*
X2744Y1080D01*
X2372Y1079D02*
X2442Y1079D01*
X2672Y1079D02*
X2742Y1079D01*
X2375Y1078D02*
X2438Y1078D01*
X2675Y1078D02*
X2738Y1078D01*
X1378Y1032D02*
X1436Y1032D01*
X1678Y1032D02*
X1736Y1032D01*
X1378Y1031D02*
X1436Y1031D01*
X1678Y1031D02*
X1736Y1031D01*
X1378Y1030D02*
X1436Y1030D01*
X1678Y1030D02*
X1736Y1030D01*
X1378Y1029D02*
X1436Y1029D01*
X1678Y1029D02*
X1736Y1029D01*
X1378Y1028D02*
X1436Y1028D01*
X1678Y1028D02*
X1736Y1028D01*
X1378Y1027D02*
X1436Y1027D01*
X1678Y1027D02*
X1736Y1027D01*
X1378Y1026D02*
X1436Y1026D01*
X1678Y1026D02*
X1736Y1026D01*
X1378Y1025D02*
X1436Y1025D01*
X1678Y1025D02*
X1736Y1025D01*
X1378Y1024D02*
X1436Y1024D01*
X1678Y1024D02*
X1736Y1024D01*
X1378Y1023D02*
X1436Y1023D01*
X1678Y1023D02*
X1736Y1023D01*
X1378Y1022D02*
X1401Y1022D01*
X1413Y1022D02*
X1436Y1022D01*
X1678Y1022D02*
X1701Y1022D01*
X1713Y1022D02*
X1736Y1022D01*
X1378Y1021D02*
X1398Y1021D01*
X1416Y1021D02*
X1436Y1021D01*
X1678Y1021D02*
X1698Y1021D01*
X1716Y1021D02*
X1736Y1021D01*
X1378Y1020D02*
X1396Y1020D01*
X1418Y1020D02*
X1436Y1020D01*
X1678Y1020D02*
X1696Y1020D01*
X1718Y1020D02*
X1736Y1020D01*
X1378Y1019D02*
X1395Y1019D01*
X1419Y1019D02*
X1436Y1019D01*
X1678Y1019D02*
X1695Y1019D01*
X1719Y1019D02*
X1736Y1019D01*
X1378Y1018D02*
X1393Y1018D01*
X1420Y1018D02*
X1436Y1018D01*
X1678Y1018D02*
X1693Y1018D01*
X1720Y1018D02*
X1736Y1018D01*
X1378Y1017D02*
X1392Y1017D01*
X1421Y1017D02*
X1436Y1017D01*
X1678Y1017D02*
X1692Y1017D01*
X1721Y1017D02*
X1736Y1017D01*
X1378Y1016D02*
X1391Y1016D01*
X1422Y1016D02*
X1436Y1016D01*
X1678Y1016D02*
X1691Y1016D01*
X1722Y1016D02*
X1736Y1016D01*
X1378Y1015D02*
X1391Y1015D01*
X1423Y1015D02*
X1436Y1015D01*
X1678Y1015D02*
X1691Y1015D01*
X1723Y1015D02*
X1736Y1015D01*
X1378Y1014D02*
X1390Y1014D01*
X1424Y1014D02*
X1436Y1014D01*
X1678Y1014D02*
X1690Y1014D01*
X1724Y1014D02*
X1736Y1014D01*
X1378Y1013D02*
X1389Y1013D01*
X1424Y1013D02*
X1436Y1013D01*
X1678Y1013D02*
X1689Y1013D01*
X1724Y1013D02*
X1736Y1013D01*
X1378Y1012D02*
X1389Y1012D01*
X1425Y1012D02*
X1436Y1012D01*
X1678Y1012D02*
X1689Y1012D01*
X1725Y1012D02*
X1736Y1012D01*
X1378Y1011D02*
X1388Y1011D01*
X1425Y1011D02*
X1436Y1011D01*
X1678Y1011D02*
X1688Y1011D01*
X1725Y1011D02*
X1736Y1011D01*
X1378Y1010D02*
X1388Y1010D01*
X1426Y1010D02*
X1436Y1010D01*
X1678Y1010D02*
X1688Y1010D01*
X1726Y1010D02*
X1736Y1010D01*
X1378Y1009D02*
X1388Y1009D01*
X1426Y1009D02*
X1436Y1009D01*
X1678Y1009D02*
X1688Y1009D01*
X1726Y1009D02*
X1736Y1009D01*
X1378Y1008D02*
X1387Y1008D01*
X1426Y1008D02*
X1436Y1008D01*
X1678Y1008D02*
X1687Y1008D01*
X1726Y1008D02*
X1736Y1008D01*
X1378Y1007D02*
X1387Y1007D01*
X1427Y1007D02*
X1436Y1007D01*
X1678Y1007D02*
X1687Y1007D01*
X1727Y1007D02*
X1736Y1007D01*
X1378Y1006D02*
X1387Y1006D01*
X1427Y1006D02*
X1436Y1006D01*
X1678Y1006D02*
X1687Y1006D01*
X1727Y1006D02*
X1736Y1006D01*
X1378Y1005D02*
X1387Y1005D01*
X1427Y1005D02*
X1436Y1005D01*
X1678Y1005D02*
X1687Y1005D01*
X1727Y1005D02*
X1736Y1005D01*
X1378Y1004D02*
X1387Y1004D01*
X1427Y1004D02*
X1436Y1004D01*
X1678Y1004D02*
X1687Y1004D01*
X1727Y1004D02*
X1736Y1004D01*
X1378Y1003D02*
X1387Y1003D01*
X1427Y1003D02*
X1436Y1003D01*
X1678Y1003D02*
X1687Y1003D01*
X1727Y1003D02*
X1736Y1003D01*
X1378Y1002D02*
X1387Y1002D01*
X1427Y1002D02*
X1436Y1002D01*
X1678Y1002D02*
X1687Y1002D01*
X1727Y1002D02*
X1736Y1002D01*
X1378Y1001D02*
X1387Y1001D01*
X1427Y1001D02*
X1436Y1001D01*
X1678Y1001D02*
X1687Y1001D01*
X1727Y1001D02*
X1736Y1001D01*
X1378Y1000D02*
X1387Y1000D01*
X1427Y1000D02*
X1436Y1000D01*
X1678Y1000D02*
X1687Y1000D01*
X1727Y1000D02*
X1736Y1000D01*
X1378Y999D02*
X1387Y999D01*
X1426Y999D02*
X1436Y999D01*
X1678Y999D02*
X1687Y999D01*
X1726Y999D02*
X1736Y999D01*
X1378Y998D02*
X1387Y998D01*
X1426Y998D02*
X1436Y998D01*
X1678Y998D02*
X1687Y998D01*
X1726Y998D02*
X1736Y998D01*
X1378Y997D02*
X1388Y997D01*
X1426Y997D02*
X1436Y997D01*
X1678Y997D02*
X1688Y997D01*
X1726Y997D02*
X1736Y997D01*
X1378Y996D02*
X1388Y996D01*
X1426Y996D02*
X1436Y996D01*
X1678Y996D02*
X1688Y996D01*
X1726Y996D02*
X1736Y996D01*
X1378Y995D02*
X1388Y995D01*
X1425Y995D02*
X1436Y995D01*
X1678Y995D02*
X1688Y995D01*
X1725Y995D02*
X1736Y995D01*
X1378Y994D02*
X1389Y994D01*
X1425Y994D02*
X1436Y994D01*
X1678Y994D02*
X1689Y994D01*
X1725Y994D02*
X1736Y994D01*
X1378Y993D02*
X1390Y993D01*
X1424Y993D02*
X1436Y993D01*
X1678Y993D02*
X1690Y993D01*
X1724Y993D02*
X1736Y993D01*
X1378Y992D02*
X1390Y992D01*
X1423Y992D02*
X1436Y992D01*
X1678Y992D02*
X1690Y992D01*
X1723Y992D02*
X1736Y992D01*
X1378Y991D02*
X1391Y991D01*
X1423Y991D02*
X1436Y991D01*
X1678Y991D02*
X1691Y991D01*
X1723Y991D02*
X1736Y991D01*
X1378Y990D02*
X1392Y990D01*
X1422Y990D02*
X1436Y990D01*
X1678Y990D02*
X1692Y990D01*
X1722Y990D02*
X1736Y990D01*
X1378Y989D02*
X1393Y989D01*
X1421Y989D02*
X1436Y989D01*
X1678Y989D02*
X1693Y989D01*
X1721Y989D02*
X1736Y989D01*
X1378Y988D02*
X1394Y988D01*
X1420Y988D02*
X1436Y988D01*
X1678Y988D02*
X1694Y988D01*
X1720Y988D02*
X1736Y988D01*
X1378Y987D02*
X1395Y987D01*
X1418Y987D02*
X1436Y987D01*
X1678Y987D02*
X1695Y987D01*
X1718Y987D02*
X1736Y987D01*
X1378Y986D02*
X1397Y986D01*
X1417Y986D02*
X1436Y986D01*
X1678Y986D02*
X1697Y986D01*
X1717Y986D02*
X1736Y986D01*
X1378Y985D02*
X1399Y985D01*
X1415Y985D02*
X1436Y985D01*
X1678Y985D02*
X1699Y985D01*
X1715Y985D02*
X1736Y985D01*
X1378Y984D02*
X1402Y984D01*
X1411Y984D02*
X1436Y984D01*
X1678Y984D02*
X1702Y984D01*
X1711Y984D02*
X1736Y984D01*
X1378Y983D02*
X1436Y983D01*
X1678Y983D02*
X1736Y983D01*
X1378Y982D02*
X1436Y982D01*
X1678Y982D02*
X1736Y982D01*
X1378Y981D02*
X1436Y981D01*
X1678Y981D02*
X1736Y981D01*
X1378Y980D02*
X1436Y980D01*
X1678Y980D02*
X1736Y980D01*
X1378Y979D02*
X1436Y979D01*
X1678Y979D02*
X1736Y979D01*
X1378Y978D02*
X1436Y978D01*
X1678Y978D02*
X1736Y978D01*
X1378Y977D02*
X1436Y977D01*
X1678Y977D02*
X1736Y977D01*
X1378Y976D02*
X1436Y976D01*
X1678Y976D02*
X1736Y976D01*
X1378Y975D02*
X1436Y975D01*
X1678Y975D02*
X1736Y975D01*
X1378Y974D02*
X1436Y974D01*
X1678Y974D02*
X1736Y974D01*
X1278Y532D02*
X1336Y532D01*
X1578Y532D02*
X1636Y532D01*
X2478Y532D02*
X2536Y532D01*
X2778Y532D02*
X2836Y532D01*
X1278Y531D02*
X1336Y531D01*
X1578Y531D02*
X1636Y531D01*
X2478Y531D02*
X2536Y531D01*
X2778Y531D02*
X2836Y531D01*
X1278Y530D02*
X1336Y530D01*
X1578Y530D02*
X1636Y530D01*
X2478Y530D02*
X2536Y530D01*
X2778Y530D02*
X2836Y530D01*
X1278Y529D02*
X1336Y529D01*
X1578Y529D02*
X1636Y529D01*
X2478Y529D02*
X2536Y529D01*
X2778Y529D02*
X2836Y529D01*
X1278Y528D02*
X1336Y528D01*
X1578Y528D02*
X1636Y528D01*
X2478Y528D02*
X2536Y528D01*
X2778Y528D02*
X2836Y528D01*
X1278Y527D02*
X1336Y527D01*
X1578Y527D02*
X1636Y527D01*
X2478Y527D02*
X2536Y527D01*
X2778Y527D02*
X2836Y527D01*
X1278Y526D02*
X1336Y526D01*
X1578Y526D02*
X1636Y526D01*
X2478Y526D02*
X2536Y526D01*
X2778Y526D02*
X2836Y526D01*
X1278Y525D02*
X1336Y525D01*
X1578Y525D02*
X1636Y525D01*
X2478Y525D02*
X2536Y525D01*
X2778Y525D02*
X2836Y525D01*
X1278Y524D02*
X1336Y524D01*
X1578Y524D02*
X1636Y524D01*
X2478Y524D02*
X2536Y524D01*
X2778Y524D02*
X2836Y524D01*
X1278Y523D02*
X1336Y523D01*
X1578Y523D02*
X1636Y523D01*
X2478Y523D02*
X2536Y523D01*
X2778Y523D02*
X2836Y523D01*
X1278Y522D02*
X1301Y522D01*
X1313Y522D02*
X1336Y522D01*
X1578Y522D02*
X1601Y522D01*
X1613Y522D02*
X1636Y522D01*
X2478Y522D02*
X2501Y522D01*
X2513Y522D02*
X2536Y522D01*
X2778Y522D02*
X2801Y522D01*
X2813Y522D02*
X2836Y522D01*
X1278Y521D02*
X1298Y521D01*
X1316Y521D02*
X1336Y521D01*
X1578Y521D02*
X1598Y521D01*
X1616Y521D02*
X1636Y521D01*
X2478Y521D02*
X2498Y521D01*
X2516Y521D02*
X2536Y521D01*
X2778Y521D02*
X2798Y521D01*
X2816Y521D02*
X2836Y521D01*
X1278Y520D02*
X1296Y520D01*
X1318Y520D02*
X1336Y520D01*
X1578Y520D02*
X1596Y520D01*
X1618Y520D02*
X1636Y520D01*
X2478Y520D02*
X2496Y520D01*
X2518Y520D02*
X2536Y520D01*
X2778Y520D02*
X2796Y520D01*
X2818Y520D02*
X2836Y520D01*
X1278Y519D02*
X1295Y519D01*
X1319Y519D02*
X1336Y519D01*
X1578Y519D02*
X1595Y519D01*
X1619Y519D02*
X1636Y519D01*
X2478Y519D02*
X2495Y519D01*
X2519Y519D02*
X2536Y519D01*
X2778Y519D02*
X2795Y519D01*
X2819Y519D02*
X2836Y519D01*
X1278Y518D02*
X1293Y518D01*
X1320Y518D02*
X1336Y518D01*
X1578Y518D02*
X1593Y518D01*
X1620Y518D02*
X1636Y518D01*
X2478Y518D02*
X2493Y518D01*
X2520Y518D02*
X2536Y518D01*
X2778Y518D02*
X2793Y518D01*
X2820Y518D02*
X2836Y518D01*
X1278Y517D02*
X1292Y517D01*
X1321Y517D02*
X1336Y517D01*
X1578Y517D02*
X1592Y517D01*
X1621Y517D02*
X1636Y517D01*
X2478Y517D02*
X2492Y517D01*
X2521Y517D02*
X2536Y517D01*
X2778Y517D02*
X2792Y517D01*
X2821Y517D02*
X2836Y517D01*
X1278Y516D02*
X1291Y516D01*
X1322Y516D02*
X1336Y516D01*
X1578Y516D02*
X1591Y516D01*
X1622Y516D02*
X1636Y516D01*
X2478Y516D02*
X2491Y516D01*
X2522Y516D02*
X2536Y516D01*
X2778Y516D02*
X2791Y516D01*
X2822Y516D02*
X2836Y516D01*
X1278Y515D02*
X1291Y515D01*
X1323Y515D02*
X1336Y515D01*
X1578Y515D02*
X1591Y515D01*
X1623Y515D02*
X1636Y515D01*
X2478Y515D02*
X2491Y515D01*
X2523Y515D02*
X2536Y515D01*
X2778Y515D02*
X2791Y515D01*
X2823Y515D02*
X2836Y515D01*
X1278Y514D02*
X1290Y514D01*
X1324Y514D02*
X1336Y514D01*
X1578Y514D02*
X1590Y514D01*
X1624Y514D02*
X1636Y514D01*
X2478Y514D02*
X2490Y514D01*
X2524Y514D02*
X2536Y514D01*
X2778Y514D02*
X2790Y514D01*
X2824Y514D02*
X2836Y514D01*
X1278Y513D02*
X1289Y513D01*
X1324Y513D02*
X1336Y513D01*
X1578Y513D02*
X1589Y513D01*
X1624Y513D02*
X1636Y513D01*
X2478Y513D02*
X2489Y513D01*
X2524Y513D02*
X2536Y513D01*
X2778Y513D02*
X2789Y513D01*
X2824Y513D02*
X2836Y513D01*
X1278Y512D02*
X1289Y512D01*
X1325Y512D02*
X1336Y512D01*
X1578Y512D02*
X1589Y512D01*
X1625Y512D02*
X1636Y512D01*
X2478Y512D02*
X2489Y512D01*
X2525Y512D02*
X2536Y512D01*
X2778Y512D02*
X2789Y512D01*
X2825Y512D02*
X2836Y512D01*
X1278Y511D02*
X1288Y511D01*
X1325Y511D02*
X1336Y511D01*
X1578Y511D02*
X1588Y511D01*
X1625Y511D02*
X1636Y511D01*
X2478Y511D02*
X2488Y511D01*
X2525Y511D02*
X2536Y511D01*
X2778Y511D02*
X2788Y511D01*
X2825Y511D02*
X2836Y511D01*
X1278Y510D02*
X1288Y510D01*
X1326Y510D02*
X1336Y510D01*
X1578Y510D02*
X1588Y510D01*
X1626Y510D02*
X1636Y510D01*
X2478Y510D02*
X2488Y510D01*
X2526Y510D02*
X2536Y510D01*
X2778Y510D02*
X2788Y510D01*
X2826Y510D02*
X2836Y510D01*
X1278Y509D02*
X1288Y509D01*
X1326Y509D02*
X1336Y509D01*
X1578Y509D02*
X1588Y509D01*
X1626Y509D02*
X1636Y509D01*
X2478Y509D02*
X2488Y509D01*
X2526Y509D02*
X2536Y509D01*
X2778Y509D02*
X2788Y509D01*
X2826Y509D02*
X2836Y509D01*
X1278Y508D02*
X1287Y508D01*
X1326Y508D02*
X1336Y508D01*
X1578Y508D02*
X1587Y508D01*
X1626Y508D02*
X1636Y508D01*
X2478Y508D02*
X2487Y508D01*
X2526Y508D02*
X2536Y508D01*
X2778Y508D02*
X2787Y508D01*
X2826Y508D02*
X2836Y508D01*
X1278Y507D02*
X1287Y507D01*
X1327Y507D02*
X1336Y507D01*
X1578Y507D02*
X1587Y507D01*
X1627Y507D02*
X1636Y507D01*
X2478Y507D02*
X2487Y507D01*
X2527Y507D02*
X2536Y507D01*
X2778Y507D02*
X2787Y507D01*
X2827Y507D02*
X2836Y507D01*
X1278Y506D02*
X1287Y506D01*
X1327Y506D02*
X1336Y506D01*
X1578Y506D02*
X1587Y506D01*
X1627Y506D02*
X1636Y506D01*
X2478Y506D02*
X2487Y506D01*
X2527Y506D02*
X2536Y506D01*
X2778Y506D02*
X2787Y506D01*
X2827Y506D02*
X2836Y506D01*
X1278Y505D02*
X1287Y505D01*
X1327Y505D02*
X1336Y505D01*
X1578Y505D02*
X1587Y505D01*
X1627Y505D02*
X1636Y505D01*
X2478Y505D02*
X2487Y505D01*
X2527Y505D02*
X2536Y505D01*
X2778Y505D02*
X2787Y505D01*
X2827Y505D02*
X2836Y505D01*
X1278Y504D02*
X1287Y504D01*
X1327Y504D02*
X1336Y504D01*
X1578Y504D02*
X1587Y504D01*
X1627Y504D02*
X1636Y504D01*
X2478Y504D02*
X2487Y504D01*
X2527Y504D02*
X2536Y504D01*
X2778Y504D02*
X2787Y504D01*
X2827Y504D02*
X2836Y504D01*
X1278Y503D02*
X1287Y503D01*
X1327Y503D02*
X1336Y503D01*
X1578Y503D02*
X1587Y503D01*
X1627Y503D02*
X1636Y503D01*
X2478Y503D02*
X2487Y503D01*
X2527Y503D02*
X2536Y503D01*
X2778Y503D02*
X2787Y503D01*
X2827Y503D02*
X2836Y503D01*
X1278Y502D02*
X1287Y502D01*
X1327Y502D02*
X1336Y502D01*
X1578Y502D02*
X1587Y502D01*
X1627Y502D02*
X1636Y502D01*
X2478Y502D02*
X2487Y502D01*
X2527Y502D02*
X2536Y502D01*
X2778Y502D02*
X2787Y502D01*
X2827Y502D02*
X2836Y502D01*
X1278Y501D02*
X1287Y501D01*
X1327Y501D02*
X1336Y501D01*
X1578Y501D02*
X1587Y501D01*
X1627Y501D02*
X1636Y501D01*
X2478Y501D02*
X2487Y501D01*
X2527Y501D02*
X2536Y501D01*
X2778Y501D02*
X2787Y501D01*
X2827Y501D02*
X2836Y501D01*
X1278Y500D02*
X1287Y500D01*
X1327Y500D02*
X1336Y500D01*
X1578Y500D02*
X1587Y500D01*
X1627Y500D02*
X1636Y500D01*
X2478Y500D02*
X2487Y500D01*
X2527Y500D02*
X2536Y500D01*
X2778Y500D02*
X2787Y500D01*
X2827Y500D02*
X2836Y500D01*
X1278Y499D02*
X1287Y499D01*
X1326Y499D02*
X1336Y499D01*
X1578Y499D02*
X1587Y499D01*
X1626Y499D02*
X1636Y499D01*
X2478Y499D02*
X2487Y499D01*
X2526Y499D02*
X2536Y499D01*
X2778Y499D02*
X2787Y499D01*
X2826Y499D02*
X2836Y499D01*
X1278Y498D02*
X1287Y498D01*
X1326Y498D02*
X1336Y498D01*
X1578Y498D02*
X1587Y498D01*
X1626Y498D02*
X1636Y498D01*
X2478Y498D02*
X2487Y498D01*
X2526Y498D02*
X2536Y498D01*
X2778Y498D02*
X2787Y498D01*
X2826Y498D02*
X2836Y498D01*
X1278Y497D02*
X1288Y497D01*
X1326Y497D02*
X1336Y497D01*
X1578Y497D02*
X1588Y497D01*
X1626Y497D02*
X1636Y497D01*
X2478Y497D02*
X2488Y497D01*
X2526Y497D02*
X2536Y497D01*
X2778Y497D02*
X2788Y497D01*
X2826Y497D02*
X2836Y497D01*
X1278Y496D02*
X1288Y496D01*
X1326Y496D02*
X1336Y496D01*
X1578Y496D02*
X1588Y496D01*
X1626Y496D02*
X1636Y496D01*
X2478Y496D02*
X2488Y496D01*
X2526Y496D02*
X2536Y496D01*
X2778Y496D02*
X2788Y496D01*
X2826Y496D02*
X2836Y496D01*
X1278Y495D02*
X1288Y495D01*
X1325Y495D02*
X1336Y495D01*
X1578Y495D02*
X1588Y495D01*
X1625Y495D02*
X1636Y495D01*
X2478Y495D02*
X2488Y495D01*
X2525Y495D02*
X2536Y495D01*
X2778Y495D02*
X2788Y495D01*
X2825Y495D02*
X2836Y495D01*
X1278Y494D02*
X1289Y494D01*
X1325Y494D02*
X1336Y494D01*
X1578Y494D02*
X1589Y494D01*
X1625Y494D02*
X1636Y494D01*
X2478Y494D02*
X2489Y494D01*
X2525Y494D02*
X2536Y494D01*
X2778Y494D02*
X2789Y494D01*
X2825Y494D02*
X2836Y494D01*
X1278Y493D02*
X1290Y493D01*
X1324Y493D02*
X1336Y493D01*
X1578Y493D02*
X1590Y493D01*
X1624Y493D02*
X1636Y493D01*
X2478Y493D02*
X2490Y493D01*
X2524Y493D02*
X2536Y493D01*
X2778Y493D02*
X2790Y493D01*
X2824Y493D02*
X2836Y493D01*
X1278Y492D02*
X1290Y492D01*
X1323Y492D02*
X1336Y492D01*
X1578Y492D02*
X1590Y492D01*
X1623Y492D02*
X1636Y492D01*
X2478Y492D02*
X2490Y492D01*
X2523Y492D02*
X2536Y492D01*
X2778Y492D02*
X2790Y492D01*
X2823Y492D02*
X2836Y492D01*
X1278Y491D02*
X1291Y491D01*
X1323Y491D02*
X1336Y491D01*
X1578Y491D02*
X1591Y491D01*
X1623Y491D02*
X1636Y491D01*
X2478Y491D02*
X2491Y491D01*
X2523Y491D02*
X2536Y491D01*
X2778Y491D02*
X2791Y491D01*
X2823Y491D02*
X2836Y491D01*
X1278Y490D02*
X1292Y490D01*
X1322Y490D02*
X1336Y490D01*
X1578Y490D02*
X1592Y490D01*
X1622Y490D02*
X1636Y490D01*
X2478Y490D02*
X2492Y490D01*
X2522Y490D02*
X2536Y490D01*
X2778Y490D02*
X2792Y490D01*
X2822Y490D02*
X2836Y490D01*
X1278Y489D02*
X1293Y489D01*
X1321Y489D02*
X1336Y489D01*
X1578Y489D02*
X1593Y489D01*
X1621Y489D02*
X1636Y489D01*
X2478Y489D02*
X2493Y489D01*
X2521Y489D02*
X2536Y489D01*
X2778Y489D02*
X2793Y489D01*
X2821Y489D02*
X2836Y489D01*
X1278Y488D02*
X1294Y488D01*
X1320Y488D02*
X1336Y488D01*
X1578Y488D02*
X1594Y488D01*
X1620Y488D02*
X1636Y488D01*
X2478Y488D02*
X2494Y488D01*
X2520Y488D02*
X2536Y488D01*
X2778Y488D02*
X2794Y488D01*
X2820Y488D02*
X2836Y488D01*
X1278Y487D02*
X1295Y487D01*
X1318Y487D02*
X1336Y487D01*
X1578Y487D02*
X1595Y487D01*
X1618Y487D02*
X1636Y487D01*
X2478Y487D02*
X2495Y487D01*
X2518Y487D02*
X2536Y487D01*
X2778Y487D02*
X2795Y487D01*
X2818Y487D02*
X2836Y487D01*
X1278Y486D02*
X1297Y486D01*
X1317Y486D02*
X1336Y486D01*
X1578Y486D02*
X1597Y486D01*
X1617Y486D02*
X1636Y486D01*
X2478Y486D02*
X2497Y486D01*
X2517Y486D02*
X2536Y486D01*
X2778Y486D02*
X2797Y486D01*
X2817Y486D02*
X2836Y486D01*
X1278Y485D02*
X1299Y485D01*
X1315Y485D02*
X1336Y485D01*
X1578Y485D02*
X1599Y485D01*
X1615Y485D02*
X1636Y485D01*
X2478Y485D02*
X2499Y485D01*
X2515Y485D02*
X2536Y485D01*
X2778Y485D02*
X2799Y485D01*
X2815Y485D02*
X2836Y485D01*
X1278Y484D02*
X1302Y484D01*
X1311Y484D02*
X1336Y484D01*
X1578Y484D02*
X1602Y484D01*
X1611Y484D02*
X1636Y484D01*
X2478Y484D02*
X2502Y484D01*
X2511Y484D02*
X2536Y484D01*
X2778Y484D02*
X2802Y484D01*
X2811Y484D02*
X2836Y484D01*
X1278Y483D02*
X1336Y483D01*
X1578Y483D02*
X1636Y483D01*
X2478Y483D02*
X2536Y483D01*
X2778Y483D02*
X2836Y483D01*
X1278Y482D02*
X1336Y482D01*
X1578Y482D02*
X1636Y482D01*
X2478Y482D02*
X2536Y482D01*
X2778Y482D02*
X2836Y482D01*
X1278Y481D02*
X1336Y481D01*
X1578Y481D02*
X1636Y481D01*
X2478Y481D02*
X2536Y481D01*
X2778Y481D02*
X2836Y481D01*
X1278Y480D02*
X1336Y480D01*
X1578Y480D02*
X1636Y480D01*
X2478Y480D02*
X2536Y480D01*
X2778Y480D02*
X2836Y480D01*
X1278Y479D02*
X1336Y479D01*
X1578Y479D02*
X1636Y479D01*
X2478Y479D02*
X2536Y479D01*
X2778Y479D02*
X2836Y479D01*
X1278Y478D02*
X1336Y478D01*
X1578Y478D02*
X1636Y478D01*
X2478Y478D02*
X2536Y478D01*
X2778Y478D02*
X2836Y478D01*
X1278Y477D02*
X1336Y477D01*
X1578Y477D02*
X1636Y477D01*
X2478Y477D02*
X2536Y477D01*
X2778Y477D02*
X2836Y477D01*
X1278Y476D02*
X1336Y476D01*
X1578Y476D02*
X1636Y476D01*
X2478Y476D02*
X2536Y476D01*
X2778Y476D02*
X2836Y476D01*
X1278Y475D02*
X1336Y475D01*
X1578Y475D02*
X1636Y475D01*
X2478Y475D02*
X2536Y475D01*
X2778Y475D02*
X2836Y475D01*
X1278Y474D02*
X1336Y474D01*
X1578Y474D02*
X1636Y474D01*
X2478Y474D02*
X2536Y474D01*
X2778Y474D02*
X2836Y474D01*
X1278Y332D02*
X1336Y332D01*
X1578Y332D02*
X1636Y332D01*
X2478Y332D02*
X2536Y332D01*
X2778Y332D02*
X2836Y332D01*
X1278Y331D02*
X1336Y331D01*
X1578Y331D02*
X1636Y331D01*
X2478Y331D02*
X2536Y331D01*
X2778Y331D02*
X2836Y331D01*
X1278Y330D02*
X1336Y330D01*
X1578Y330D02*
X1636Y330D01*
X2478Y330D02*
X2536Y330D01*
X2778Y330D02*
X2836Y330D01*
X1278Y329D02*
X1336Y329D01*
X1578Y329D02*
X1636Y329D01*
X2478Y329D02*
X2536Y329D01*
X2778Y329D02*
X2836Y329D01*
X1278Y328D02*
X1336Y328D01*
X1578Y328D02*
X1636Y328D01*
X2478Y328D02*
X2536Y328D01*
X2778Y328D02*
X2836Y328D01*
X1278Y327D02*
X1336Y327D01*
X1578Y327D02*
X1636Y327D01*
X2478Y327D02*
X2536Y327D01*
X2778Y327D02*
X2836Y327D01*
X1278Y326D02*
X1336Y326D01*
X1578Y326D02*
X1636Y326D01*
X2478Y326D02*
X2536Y326D01*
X2778Y326D02*
X2836Y326D01*
X1278Y325D02*
X1336Y325D01*
X1578Y325D02*
X1636Y325D01*
X2478Y325D02*
X2536Y325D01*
X2778Y325D02*
X2836Y325D01*
X1278Y324D02*
X1336Y324D01*
X1578Y324D02*
X1636Y324D01*
X2478Y324D02*
X2536Y324D01*
X2778Y324D02*
X2836Y324D01*
X1278Y323D02*
X1336Y323D01*
X1578Y323D02*
X1636Y323D01*
X2478Y323D02*
X2536Y323D01*
X2778Y323D02*
X2836Y323D01*
X1278Y322D02*
X1301Y322D01*
X1313Y322D02*
X1336Y322D01*
X1578Y322D02*
X1601Y322D01*
X1613Y322D02*
X1636Y322D01*
X2478Y322D02*
X2501Y322D01*
X2513Y322D02*
X2536Y322D01*
X2778Y322D02*
X2801Y322D01*
X2813Y322D02*
X2836Y322D01*
X1278Y321D02*
X1298Y321D01*
X1316Y321D02*
X1336Y321D01*
X1578Y321D02*
X1598Y321D01*
X1616Y321D02*
X1636Y321D01*
X2478Y321D02*
X2498Y321D01*
X2516Y321D02*
X2536Y321D01*
X2778Y321D02*
X2798Y321D01*
X2816Y321D02*
X2836Y321D01*
X1278Y320D02*
X1296Y320D01*
X1318Y320D02*
X1336Y320D01*
X1578Y320D02*
X1596Y320D01*
X1618Y320D02*
X1636Y320D01*
X2478Y320D02*
X2496Y320D01*
X2518Y320D02*
X2536Y320D01*
X2778Y320D02*
X2796Y320D01*
X2818Y320D02*
X2836Y320D01*
X1278Y319D02*
X1295Y319D01*
X1319Y319D02*
X1336Y319D01*
X1578Y319D02*
X1595Y319D01*
X1619Y319D02*
X1636Y319D01*
X2478Y319D02*
X2495Y319D01*
X2519Y319D02*
X2536Y319D01*
X2778Y319D02*
X2795Y319D01*
X2819Y319D02*
X2836Y319D01*
X1278Y318D02*
X1293Y318D01*
X1320Y318D02*
X1336Y318D01*
X1578Y318D02*
X1593Y318D01*
X1620Y318D02*
X1636Y318D01*
X2478Y318D02*
X2493Y318D01*
X2520Y318D02*
X2536Y318D01*
X2778Y318D02*
X2793Y318D01*
X2820Y318D02*
X2836Y318D01*
X1278Y317D02*
X1292Y317D01*
X1321Y317D02*
X1336Y317D01*
X1578Y317D02*
X1592Y317D01*
X1621Y317D02*
X1636Y317D01*
X2478Y317D02*
X2492Y317D01*
X2521Y317D02*
X2536Y317D01*
X2778Y317D02*
X2792Y317D01*
X2821Y317D02*
X2836Y317D01*
X1278Y316D02*
X1291Y316D01*
X1322Y316D02*
X1336Y316D01*
X1578Y316D02*
X1591Y316D01*
X1622Y316D02*
X1636Y316D01*
X2478Y316D02*
X2491Y316D01*
X2522Y316D02*
X2536Y316D01*
X2778Y316D02*
X2791Y316D01*
X2822Y316D02*
X2836Y316D01*
X1278Y315D02*
X1291Y315D01*
X1323Y315D02*
X1336Y315D01*
X1578Y315D02*
X1591Y315D01*
X1623Y315D02*
X1636Y315D01*
X2478Y315D02*
X2491Y315D01*
X2523Y315D02*
X2536Y315D01*
X2778Y315D02*
X2791Y315D01*
X2823Y315D02*
X2836Y315D01*
X1278Y314D02*
X1290Y314D01*
X1324Y314D02*
X1336Y314D01*
X1578Y314D02*
X1590Y314D01*
X1624Y314D02*
X1636Y314D01*
X2478Y314D02*
X2490Y314D01*
X2524Y314D02*
X2536Y314D01*
X2778Y314D02*
X2790Y314D01*
X2824Y314D02*
X2836Y314D01*
X1278Y313D02*
X1289Y313D01*
X1324Y313D02*
X1336Y313D01*
X1578Y313D02*
X1589Y313D01*
X1624Y313D02*
X1636Y313D01*
X2478Y313D02*
X2489Y313D01*
X2524Y313D02*
X2536Y313D01*
X2778Y313D02*
X2789Y313D01*
X2824Y313D02*
X2836Y313D01*
X1278Y312D02*
X1289Y312D01*
X1325Y312D02*
X1336Y312D01*
X1578Y312D02*
X1589Y312D01*
X1625Y312D02*
X1636Y312D01*
X2478Y312D02*
X2489Y312D01*
X2525Y312D02*
X2536Y312D01*
X2778Y312D02*
X2789Y312D01*
X2825Y312D02*
X2836Y312D01*
X1278Y311D02*
X1288Y311D01*
X1325Y311D02*
X1336Y311D01*
X1578Y311D02*
X1588Y311D01*
X1625Y311D02*
X1636Y311D01*
X2478Y311D02*
X2488Y311D01*
X2525Y311D02*
X2536Y311D01*
X2778Y311D02*
X2788Y311D01*
X2825Y311D02*
X2836Y311D01*
X1278Y310D02*
X1288Y310D01*
X1326Y310D02*
X1336Y310D01*
X1578Y310D02*
X1588Y310D01*
X1626Y310D02*
X1636Y310D01*
X2478Y310D02*
X2488Y310D01*
X2526Y310D02*
X2536Y310D01*
X2778Y310D02*
X2788Y310D01*
X2826Y310D02*
X2836Y310D01*
X1278Y309D02*
X1288Y309D01*
X1326Y309D02*
X1336Y309D01*
X1578Y309D02*
X1588Y309D01*
X1626Y309D02*
X1636Y309D01*
X2478Y309D02*
X2488Y309D01*
X2526Y309D02*
X2536Y309D01*
X2778Y309D02*
X2788Y309D01*
X2826Y309D02*
X2836Y309D01*
X1278Y308D02*
X1287Y308D01*
X1326Y308D02*
X1336Y308D01*
X1578Y308D02*
X1587Y308D01*
X1626Y308D02*
X1636Y308D01*
X2478Y308D02*
X2487Y308D01*
X2526Y308D02*
X2536Y308D01*
X2778Y308D02*
X2787Y308D01*
X2826Y308D02*
X2836Y308D01*
X1278Y307D02*
X1287Y307D01*
X1327Y307D02*
X1336Y307D01*
X1578Y307D02*
X1587Y307D01*
X1627Y307D02*
X1636Y307D01*
X2478Y307D02*
X2487Y307D01*
X2527Y307D02*
X2536Y307D01*
X2778Y307D02*
X2787Y307D01*
X2827Y307D02*
X2836Y307D01*
X1278Y306D02*
X1287Y306D01*
X1327Y306D02*
X1336Y306D01*
X1578Y306D02*
X1587Y306D01*
X1627Y306D02*
X1636Y306D01*
X2478Y306D02*
X2487Y306D01*
X2527Y306D02*
X2536Y306D01*
X2778Y306D02*
X2787Y306D01*
X2827Y306D02*
X2836Y306D01*
X1278Y305D02*
X1287Y305D01*
X1327Y305D02*
X1336Y305D01*
X1578Y305D02*
X1587Y305D01*
X1627Y305D02*
X1636Y305D01*
X2478Y305D02*
X2487Y305D01*
X2527Y305D02*
X2536Y305D01*
X2778Y305D02*
X2787Y305D01*
X2827Y305D02*
X2836Y305D01*
X1278Y304D02*
X1287Y304D01*
X1327Y304D02*
X1336Y304D01*
X1578Y304D02*
X1587Y304D01*
X1627Y304D02*
X1636Y304D01*
X2478Y304D02*
X2487Y304D01*
X2527Y304D02*
X2536Y304D01*
X2778Y304D02*
X2787Y304D01*
X2827Y304D02*
X2836Y304D01*
X1278Y303D02*
X1287Y303D01*
X1327Y303D02*
X1336Y303D01*
X1578Y303D02*
X1587Y303D01*
X1627Y303D02*
X1636Y303D01*
X2478Y303D02*
X2487Y303D01*
X2527Y303D02*
X2536Y303D01*
X2778Y303D02*
X2787Y303D01*
X2827Y303D02*
X2836Y303D01*
X1278Y302D02*
X1287Y302D01*
X1327Y302D02*
X1336Y302D01*
X1578Y302D02*
X1587Y302D01*
X1627Y302D02*
X1636Y302D01*
X2478Y302D02*
X2487Y302D01*
X2527Y302D02*
X2536Y302D01*
X2778Y302D02*
X2787Y302D01*
X2827Y302D02*
X2836Y302D01*
X1278Y301D02*
X1287Y301D01*
X1327Y301D02*
X1336Y301D01*
X1578Y301D02*
X1587Y301D01*
X1627Y301D02*
X1636Y301D01*
X2478Y301D02*
X2487Y301D01*
X2527Y301D02*
X2536Y301D01*
X2778Y301D02*
X2787Y301D01*
X2827Y301D02*
X2836Y301D01*
X1278Y300D02*
X1287Y300D01*
X1327Y300D02*
X1336Y300D01*
X1578Y300D02*
X1587Y300D01*
X1627Y300D02*
X1636Y300D01*
X2478Y300D02*
X2487Y300D01*
X2527Y300D02*
X2536Y300D01*
X2778Y300D02*
X2787Y300D01*
X2827Y300D02*
X2836Y300D01*
X1278Y299D02*
X1287Y299D01*
X1326Y299D02*
X1336Y299D01*
X1578Y299D02*
X1587Y299D01*
X1626Y299D02*
X1636Y299D01*
X2478Y299D02*
X2487Y299D01*
X2526Y299D02*
X2536Y299D01*
X2778Y299D02*
X2787Y299D01*
X2826Y299D02*
X2836Y299D01*
X1278Y298D02*
X1287Y298D01*
X1326Y298D02*
X1336Y298D01*
X1578Y298D02*
X1587Y298D01*
X1626Y298D02*
X1636Y298D01*
X2478Y298D02*
X2487Y298D01*
X2526Y298D02*
X2536Y298D01*
X2778Y298D02*
X2787Y298D01*
X2826Y298D02*
X2836Y298D01*
X1278Y297D02*
X1288Y297D01*
X1326Y297D02*
X1336Y297D01*
X1578Y297D02*
X1588Y297D01*
X1626Y297D02*
X1636Y297D01*
X2478Y297D02*
X2488Y297D01*
X2526Y297D02*
X2536Y297D01*
X2778Y297D02*
X2788Y297D01*
X2826Y297D02*
X2836Y297D01*
X1278Y296D02*
X1288Y296D01*
X1326Y296D02*
X1336Y296D01*
X1578Y296D02*
X1588Y296D01*
X1626Y296D02*
X1636Y296D01*
X2478Y296D02*
X2488Y296D01*
X2526Y296D02*
X2536Y296D01*
X2778Y296D02*
X2788Y296D01*
X2826Y296D02*
X2836Y296D01*
X1278Y295D02*
X1288Y295D01*
X1325Y295D02*
X1336Y295D01*
X1578Y295D02*
X1588Y295D01*
X1625Y295D02*
X1636Y295D01*
X2478Y295D02*
X2488Y295D01*
X2525Y295D02*
X2536Y295D01*
X2778Y295D02*
X2788Y295D01*
X2825Y295D02*
X2836Y295D01*
X1278Y294D02*
X1289Y294D01*
X1325Y294D02*
X1336Y294D01*
X1578Y294D02*
X1589Y294D01*
X1625Y294D02*
X1636Y294D01*
X2478Y294D02*
X2489Y294D01*
X2525Y294D02*
X2536Y294D01*
X2778Y294D02*
X2789Y294D01*
X2825Y294D02*
X2836Y294D01*
X1278Y293D02*
X1290Y293D01*
X1324Y293D02*
X1336Y293D01*
X1578Y293D02*
X1590Y293D01*
X1624Y293D02*
X1636Y293D01*
X2478Y293D02*
X2490Y293D01*
X2524Y293D02*
X2536Y293D01*
X2778Y293D02*
X2790Y293D01*
X2824Y293D02*
X2836Y293D01*
X1278Y292D02*
X1290Y292D01*
X1323Y292D02*
X1336Y292D01*
X1578Y292D02*
X1590Y292D01*
X1623Y292D02*
X1636Y292D01*
X2478Y292D02*
X2490Y292D01*
X2523Y292D02*
X2536Y292D01*
X2778Y292D02*
X2790Y292D01*
X2823Y292D02*
X2836Y292D01*
X1278Y291D02*
X1291Y291D01*
X1323Y291D02*
X1336Y291D01*
X1578Y291D02*
X1591Y291D01*
X1623Y291D02*
X1636Y291D01*
X2478Y291D02*
X2491Y291D01*
X2523Y291D02*
X2536Y291D01*
X2778Y291D02*
X2791Y291D01*
X2823Y291D02*
X2836Y291D01*
X1278Y290D02*
X1292Y290D01*
X1322Y290D02*
X1336Y290D01*
X1578Y290D02*
X1592Y290D01*
X1622Y290D02*
X1636Y290D01*
X2478Y290D02*
X2492Y290D01*
X2522Y290D02*
X2536Y290D01*
X2778Y290D02*
X2792Y290D01*
X2822Y290D02*
X2836Y290D01*
X1278Y289D02*
X1293Y289D01*
X1321Y289D02*
X1336Y289D01*
X1578Y289D02*
X1593Y289D01*
X1621Y289D02*
X1636Y289D01*
X2478Y289D02*
X2493Y289D01*
X2521Y289D02*
X2536Y289D01*
X2778Y289D02*
X2793Y289D01*
X2821Y289D02*
X2836Y289D01*
X1278Y288D02*
X1294Y288D01*
X1320Y288D02*
X1336Y288D01*
X1578Y288D02*
X1594Y288D01*
X1620Y288D02*
X1636Y288D01*
X2478Y288D02*
X2494Y288D01*
X2520Y288D02*
X2536Y288D01*
X2778Y288D02*
X2794Y288D01*
X2820Y288D02*
X2836Y288D01*
X1278Y287D02*
X1295Y287D01*
X1318Y287D02*
X1336Y287D01*
X1578Y287D02*
X1595Y287D01*
X1618Y287D02*
X1636Y287D01*
X2478Y287D02*
X2495Y287D01*
X2518Y287D02*
X2536Y287D01*
X2778Y287D02*
X2795Y287D01*
X2818Y287D02*
X2836Y287D01*
X1278Y286D02*
X1297Y286D01*
X1317Y286D02*
X1336Y286D01*
X1578Y286D02*
X1597Y286D01*
X1617Y286D02*
X1636Y286D01*
X2478Y286D02*
X2497Y286D01*
X2517Y286D02*
X2536Y286D01*
X2778Y286D02*
X2797Y286D01*
X2817Y286D02*
X2836Y286D01*
X1278Y285D02*
X1299Y285D01*
X1315Y285D02*
X1336Y285D01*
X1578Y285D02*
X1599Y285D01*
X1615Y285D02*
X1636Y285D01*
X2478Y285D02*
X2499Y285D01*
X2515Y285D02*
X2536Y285D01*
X2778Y285D02*
X2799Y285D01*
X2815Y285D02*
X2836Y285D01*
X1278Y284D02*
X1302Y284D01*
X1311Y284D02*
X1336Y284D01*
X1578Y284D02*
X1602Y284D01*
X1611Y284D02*
X1636Y284D01*
X2478Y284D02*
X2502Y284D01*
X2511Y284D02*
X2536Y284D01*
X2778Y284D02*
X2802Y284D01*
X2811Y284D02*
X2836Y284D01*
X1278Y283D02*
X1336Y283D01*
X1578Y283D02*
X1636Y283D01*
X2478Y283D02*
X2536Y283D01*
X2778Y283D02*
X2836Y283D01*
X1278Y282D02*
X1336Y282D01*
X1578Y282D02*
X1636Y282D01*
X2478Y282D02*
X2536Y282D01*
X2778Y282D02*
X2836Y282D01*
X1278Y281D02*
X1336Y281D01*
X1578Y281D02*
X1636Y281D01*
X2478Y281D02*
X2536Y281D01*
X2778Y281D02*
X2836Y281D01*
X1278Y280D02*
X1336Y280D01*
X1578Y280D02*
X1636Y280D01*
X2478Y280D02*
X2536Y280D01*
X2778Y280D02*
X2836Y280D01*
X1278Y279D02*
X1336Y279D01*
X1578Y279D02*
X1636Y279D01*
X2478Y279D02*
X2536Y279D01*
X2778Y279D02*
X2836Y279D01*
X1278Y278D02*
X1336Y278D01*
X1578Y278D02*
X1636Y278D01*
X2478Y278D02*
X2536Y278D01*
X2778Y278D02*
X2836Y278D01*
X1278Y277D02*
X1336Y277D01*
X1578Y277D02*
X1636Y277D01*
X2478Y277D02*
X2536Y277D01*
X2778Y277D02*
X2836Y277D01*
X1278Y276D02*
X1336Y276D01*
X1578Y276D02*
X1636Y276D01*
X2478Y276D02*
X2536Y276D01*
X2778Y276D02*
X2836Y276D01*
X1278Y275D02*
X1336Y275D01*
X1578Y275D02*
X1636Y275D01*
X2478Y275D02*
X2536Y275D01*
X2778Y275D02*
X2836Y275D01*
X1278Y274D02*
X1336Y274D01*
X1578Y274D02*
X1636Y274D01*
X2478Y274D02*
X2536Y274D01*
X2778Y274D02*
X2836Y274D01*
D02*
G04 End of Copper1*
M02*